<?xml version="1.0" encoding="UTF-8"?>
<svg width="16px" height="16px" viewBox="0 0 16 16" version="1.1" xmlns="http://www.w3.org/2000/svg" xmlns:xlink="http://www.w3.org/1999/xlink">
    <title>icon/18/分析记录管理@1x</title>
    <defs>
        <path d="M12.8571429,3.13333333 C13.4094276,3.13333333 13.8571429,3.58104858 13.8571429,4.13333333 L13.8579262,7.11446548 C13.4884149,7.03940454 13.105952,7 12.7142857,7 C9.55837286,7 7,9.55837286 7,12.7142857 C7,14.4212723 7.74846943,15.9534446 8.93512677,17.0005208 L2,17 C1.44771525,17 1,16.5522847 1,16 L1,4.13333333 C1,3.58104858 1.44771525,3.13333333 2,3.13333333 L12.8571429,3.13333333 Z M13.6509901,8 C14.1551316,8.12857539 14.6262985,8.3396188 15.0492719,8.61791345 C14.9061094,8.81057808 14.8217798,9.04912942 14.8217798,9.30737447 C14.8217798,9.94855206 15.3416233,10.4683292 15.9828828,10.4683292 C16.204987,10.4683292 16.4125258,10.4059754 16.5889446,10.2978203 C16.7665004,10.6254572 16.9054987,10.9779068 17,11.3481484 C16.4264472,11.4190451 15.9828828,11.9077292 15.9828828,12.5 L15.9865232,12.5926098 C16.0299339,13.142554 16.4566342,13.5846863 17,13.6518516 C16.9054987,14.0220932 16.7665004,14.3745428 16.5889446,14.7021797 C16.4125258,14.5940246 16.204987,14.5316708 15.9828828,14.5316708 C15.3416233,14.5316708 14.8217798,15.0514479 14.8217798,15.6926255 C14.8217798,15.9508706 14.9061094,16.1894219 15.0492719,16.3820865 C14.6791702,16.6255944 14.2721703,16.817613 13.8384678,16.9479483 L13.6509901,17 L13.6480874,16.9722616 C13.5651563,16.4124321 13.0825368,15.9828642 12.4995736,15.9828642 C11.9073635,15.9828642 11.4187056,16.4261679 11.3475749,16.9998515 C10.8437785,16.8712941 10.3729208,16.6603792 9.95041093,16.3822507 C10.0930379,16.1894219 10.1773675,15.9508706 10.1773675,15.6926255 C10.1773675,15.0514479 9.65752398,14.5316708 9.01626447,14.5316708 C8.79400975,14.5316708 8.58634016,14.5941092 8.41011085,14.7031701 C8.23264688,14.3745428 8.09364861,14.0220932 8,13.65201 C8.54275134,13.5844816 8.96923612,13.1424096 9.01262578,12.5925887 L9.01626447,12.5 C9.01626447,11.9078655 8.57290419,11.41927 8,11.34799 C8.09364861,10.9779068 8.23264688,10.6254572 8.41011085,10.2968299 C8.58634016,10.4058908 8.79400975,10.4683292 9.01626447,10.4683292 C9.65752398,10.4683292 10.1773675,9.94855206 10.1773675,9.30737447 C10.1773675,9.04912942 10.0930379,8.81057808 9.95041093,8.61774931 C10.3729208,8.33962075 10.8437785,8.12870585 11.3475749,8.00014854 C11.4187056,8.57383214 11.9073635,9.01713578 12.4995736,9.01713578 C13.0825368,9.01713578 13.5651563,8.58756789 13.6480874,8.02773842 L13.6509901,8 Z M12.4995736,10.7585679 C11.5376844,10.7585679 10.7579191,11.5382336 10.7579191,12.5 C10.7579191,13.4617664 11.5376844,14.2414321 12.4995736,14.2414321 C13.4614629,14.2414321 14.2412282,13.4617664 14.2412282,12.5 C14.2412282,11.5382336 13.4614629,10.7585679 12.4995736,10.7585679 Z M6.92857143,7.4 L3.64285714,7.4 C3.39739725,7.4 3.19324877,7.57687516 3.15091281,7.81012437 L3.14285714,7.9 L3.14285714,7.96666667 C3.14285714,8.21212656 3.3197323,8.41627504 3.55298151,8.458611 L3.64285714,8.46666667 L6.92857143,8.46666667 C7.17403132,8.46666667 7.3781798,8.28979151 7.42051576,8.0565423 L7.42857143,7.96666667 L7.42857143,7.9 C7.42857143,7.62385763 7.2047138,7.4 6.92857143,7.4 Z M15,1 C15.5522847,1 16,1.44771525 16,2 L16.0014622,8.0395671 C15.6683032,7.80486495 15.3089298,7.60487696 14.9286021,7.44486312 L14.9285714,3.10801329 C14.9285714,2.59517745 14.5425312,2.17250613 14.0451926,2.11474103 L13.9285714,2.10801329 L3.14285714,2.108 L3.14285714,2 C3.14285714,1.44771525 3.59057239,1 4.14285714,1 L15,1 Z M11.2142857,5.26666667 L3.64285714,5.26666667 C3.39739725,5.26666667 3.19324877,5.44354183 3.15091281,5.67679103 L3.14285714,5.76666667 L3.14285714,5.83333333 C3.14285714,6.07879322 3.3197323,6.2829417 3.55298151,6.32527766 L3.64285714,6.33333333 L11.2142857,6.33333333 C11.4597456,6.33333333 11.6638941,6.15645817 11.70623,5.92320897 L11.7142857,5.83333333 L11.7142857,5.76666667 C11.7142857,5.49052429 11.4904281,5.26666667 11.2142857,5.26666667 Z" id="path-1"></path>
        <rect id="path-3" x="0" y="0" width="18" height="18"></rect>
    </defs>
    <g id="控件" stroke="none" stroke-width="1" fill="none" fill-rule="evenodd">
        <g id="复用模块/工具栏/切换Java分析/正常-管理员-滚动条" transform="translate(-85.000000, -40.000000)">
            <g id="编组" transform="translate(84.000000, 39.000000)">
                <mask id="mask-2" fill="white">
                    <use xlink:href="#path-1"></use>
                </mask>
                <use id="形状结合" fill="#AFB1B3" xlink:href="#path-1"></use>
                <g mask="url(#mask-2)">
                    <g>
                        <mask id="mask-4" fill="white">
                            <use xlink:href="#path-3"></use>
                        </mask>
                        <use id="4.图标色/默认#AFB1B3" fill="#AFB1B3" xlink:href="#path-3"></use>
                    </g>
                </g>
            </g>
        </g>
    </g>
</svg>