<?xml version="1.0" encoding="UTF-8"?>
<svg width="16px" height="16px" viewBox="0 0 16 16" version="1.1" xmlns="http://www.w3.org/2000/svg" xmlns:xlink="http://www.w3.org/1999/xlink">
    <title>icon/18/导出@1x</title>
    <defs>
        <path d="M16.5,5 C16.7761424,5 17,5.22385763 17,5.5 L17,16.5 C17,16.7761424 16.7761424,17 16.5,17 L1.5,17 C1.22385763,17 1,16.7761424 1,16.5 L1,5 L16.5,5 Z M8.97901235,7.69388889 L8.94,7.71166667 L3.90666667,11.4866667 C3.88148608,11.5055521 3.86666667,11.5351909 3.86666667,11.5666667 C3.86666667,11.608088 3.89185065,11.6436273 3.92774215,11.6588082 L3.96666667,11.6666667 L7,11.6666667 L7,14.2333333 C7,14.2885618 7.04477153,14.3333333 7.1,14.3333333 L10.9,14.3333333 C10.9552285,14.3333333 11,14.2885618 11,14.2333333 L11,11.6666667 L14.0333333,11.6666667 C14.0648091,11.6666667 14.0944479,11.6518473 14.1133333,11.6266667 C14.1381861,11.5935296 14.1393626,11.5499877 14.1197578,11.5163082 L14.0933333,11.4866667 L9.06,7.71166667 C9.0362963,7.69388889 9.00666667,7.68796296 8.97901235,7.69388889 Z M7.45955989,1 C7.59216813,1 7.71934509,1.05267842 7.81311328,1.14644661 L10.3333333,3.66666667 L1,3.66666667 L1,1.5 C1,1.22385763 1.22385763,1 1.5,1 L7.45955989,1 Z" id="path-1"></path>
    </defs>
    <g id="控件" stroke="none" stroke-width="1" fill="none" fill-rule="evenodd">
        <g id="复用模块/工具栏/切换Java分析/正常-管理员-滚动条" transform="translate(-157.000000, -40.000000)">
            <g id="icon/18/导入备份-3" transform="translate(156.000000, 39.000000)">
                <mask id="mask-2" fill="white">
                    <use xlink:href="#path-1"></use>
                </mask>
                <use id="形状结合" fill="#E8E8E8" xlink:href="#path-1"></use>
                <g id="编组" mask="url(#mask-2)" fill="#AFB1B3">
                    <g id="4.图标色/禁用#585858">
                        <rect x="0" y="0" width="18" height="18"></rect>
                    </g>
                </g>
            </g>
        </g>
    </g>
</svg>