<?xml version="1.0" encoding="UTF-8"?>
<svg width="16px" height="16px" viewBox="0 0 16 16" version="1.1" xmlns="http://www.w3.org/2000/svg" xmlns:xlink="http://www.w3.org/1999/xlink">
    <title>icon/18/导入@1x</title>
    <defs>
        <path d="M16.5,5 C16.7761424,5 17,5.22385763 17,5.5 L17,16.5 C17,16.7761424 16.7761424,17 16.5,17 L1.5,17 C1.22385763,17 1,16.7761424 1,16.5 L1,5 L16.5,5 Z M10.9,7.66666667 L7.1,7.66666667 C7.04477153,7.66666667 7,7.71143819 7,7.76666667 L7,7.76666667 L7,10.3333333 L3.96666667,10.3333333 L3.92774215,10.3411918 C3.89185065,10.3563727 3.86666667,10.391912 3.86666667,10.4333333 C3.86666667,10.4648091 3.88148608,10.4944479 3.90666667,10.5133333 L3.90666667,10.5133333 L8.94,14.2883333 L8.97901235,14.3061111 C9.00666667,14.312037 9.0362963,14.3061111 9.06,14.2883333 L9.06,14.2883333 L14.0933333,10.5133333 L14.1197578,10.4836918 C14.1393626,10.4500123 14.1381861,10.4064704 14.1133333,10.3733333 C14.0944479,10.3481527 14.0648091,10.3333333 14.0333333,10.3333333 L14.0333333,10.3333333 L11,10.3333333 L11,7.76666667 C11,7.71143819 10.9552285,7.66666667 10.9,7.66666667 L10.9,7.66666667 Z M7.45955989,1 C7.59216813,1 7.71934509,1.05267842 7.81311328,1.14644661 L10.3333333,3.66666667 L1,3.66666667 L1,1.5 C1,1.22385763 1.22385763,1 1.5,1 L7.45955989,1 Z" id="path-1"></path>
    </defs>
    <g id="控件" stroke="none" stroke-width="1" fill="none" fill-rule="evenodd">
        <g id="复用模块/工具栏/切换Java分析/正常-管理员-滚动条" transform="translate(-121.000000, -40.000000)">
            <g id="icon/18/导入备份-2" transform="translate(120.000000, 39.000000)">
                <mask id="mask-2" fill="white">
                    <use xlink:href="#path-1"></use>
                </mask>
                <use id="形状结合" fill="#E8E8E8" xlink:href="#path-1"></use>
                <g id="编组" mask="url(#mask-2)" fill="#AFB1B3">
                    <g id="4.图标色/禁用#585858">
                        <rect x="0" y="0" width="18" height="18"></rect>
                    </g>
                </g>
            </g>
        </g>
    </g>
</svg>