<?xml version="1.0" encoding="UTF-8"?>
<svg width="16px" height="16px" viewBox="0 0 16 16" version="1.1" xmlns="http://www.w3.org/2000/svg" xmlns:xlink="http://www.w3.org/1999/xlink">
    <title>icon/18/添加目标环境@1x</title>
    <defs>
        <path d="M9,11 L9,17 L2,17 C1.48716416,17 1.06449284,16.6139598 1.00672773,16.1166211 L1,16 L1,11 L9,11 Z M14.5,11 L14.5,13.499 L17,13.5 L17,14.5 L14.5,14.499 L14.5,17 L13.5,17 L13.5,14.499 L11,14.5 L11,13.5 L13.5,13.499 L13.5,11 L14.5,11 Z M8,13 L4,13 L4,15 L8,15 L8,13 Z M17,6 L17,10 L1,10 L1,6 L17,6 Z M8,7 L4,7 L4,9 L8,9 L8,7 Z M11,7 C10.4477153,7 10,7.44771525 10,8 C10,8.55228475 10.4477153,9 11,9 C11.5522847,9 12,8.55228475 12,8 C12,7.44771525 11.5522847,7 11,7 Z M14,7 C13.4477153,7 13,7.44771525 13,8 C13,8.55228475 13.4477153,9 14,9 C14.5522847,9 15,8.55228475 15,8 C15,7.44771525 14.5522847,7 14,7 Z M16,1 C16.5522847,1 17,1.44771525 17,2 L17,5 L1,5 L1,2 C1,1.44771525 1.44771525,1 2,1 L16,1 Z M8,2 L4,2 L4,4 L8,4 L8,2 Z M11,2 C10.4477153,2 10,2.44771525 10,3 C10,3.55228475 10.4477153,4 11,4 C11.5522847,4 12,3.55228475 12,3 C12,2.44771525 11.5522847,2 11,2 Z M14,2 C13.4477153,2 13,2.44771525 13,3 C13,3.55228475 13.4477153,4 14,4 C14.5522847,4 15,3.55228475 15,3 C15,2.44771525 14.5522847,2 14,2 Z" id="path-1"></path>
        <rect id="path-3" x="0" y="0" width="18" height="18"></rect>
    </defs>
    <g id="控件" stroke="none" stroke-width="1" fill="none" fill-rule="evenodd">
        <g id="复用模块/工具栏/切换Java分析/正常-管理员-滚动条" transform="translate(-13.000000, -40.000000)">
            <g id="编组" transform="translate(12.000000, 39.000000)">
                <mask id="mask-2" fill="white">
                    <use xlink:href="#path-1"></use>
                </mask>
                <use id="形状结合" fill="#DCDCDC" fill-rule="nonzero" xlink:href="#path-1"></use>
                <g mask="url(#mask-2)">
                    <g>
                        <mask id="mask-4" fill="white">
                            <use xlink:href="#path-3"></use>
                        </mask>
                        <use id="4.图标色/默认#AFB1B3" fill="#AFB1B3" xlink:href="#path-3"></use>
                    </g>
                </g>
            </g>
        </g>
    </g>
</svg>