<?xml version="1.0" encoding="UTF-8"?>
<svg width="16px" height="16px" viewBox="0 0 16 16" version="1.1" xmlns="http://www.w3.org/2000/svg" xmlns:xlink="http://www.w3.org/1999/xlink">
    <title>icon/18/目标环境管理@1x</title>
    <defs>
        <path d="M6.88451029,11.6663868 C6.85058614,11.9157238 6.83307454,12.1701442 6.83307454,12.4285714 C6.83307454,14.298563 7.74998872,15.958759 9.16740812,17.0012305 L1.5,17 C1.22385763,17 1,16.7761424 1,16.5 L1,12.1666667 C1,11.8905243 1.22385763,11.6666667 1.5,11.6666667 L6.88451029,11.6663868 Z M13.6509901,8 C14.1551316,8.12857539 14.6262985,8.3396188 15.0492719,8.61791345 C14.9061094,8.81057808 14.8217798,9.04912942 14.8217798,9.30737447 C14.8217798,9.94855206 15.3416233,10.4683292 15.9828828,10.4683292 C16.204987,10.4683292 16.4125258,10.4059754 16.5889446,10.2978203 C16.7665004,10.6254572 16.9054987,10.9779068 17,11.3481484 C16.4264472,11.4190451 15.9828828,11.9077292 15.9828828,12.5 L15.9865232,12.5926098 C16.0299339,13.142554 16.4566342,13.5846863 17,13.6518516 C16.9054987,14.0220932 16.7665004,14.3745428 16.5889446,14.7021797 C16.4125258,14.5940246 16.204987,14.5316708 15.9828828,14.5316708 C15.3416233,14.5316708 14.8217798,15.0514479 14.8217798,15.6926255 C14.8217798,15.9508706 14.9061094,16.1894219 15.0492719,16.3820865 C14.6791702,16.6255944 14.2721703,16.817613 13.8384678,16.9479483 L13.6509901,17 L13.6480874,16.9722616 C13.5651563,16.4124321 13.0825368,15.9828642 12.4995736,15.9828642 C11.9073635,15.9828642 11.4187056,16.4261679 11.3475749,16.9998515 C10.8437785,16.8712941 10.3729208,16.6603792 9.95041093,16.3822507 C10.0930379,16.1894219 10.1773675,15.9508706 10.1773675,15.6926255 C10.1773675,15.0514479 9.65752398,14.5316708 9.01626447,14.5316708 C8.79400975,14.5316708 8.58634016,14.5941092 8.41011085,14.7031701 C8.23264688,14.3745428 8.09364861,14.0220932 8,13.65201 C8.54275134,13.5844816 8.96923612,13.1424096 9.01262578,12.5925887 L9.01626447,12.5 C9.01626447,11.9078655 8.57290419,11.41927 8,11.34799 C8.09364861,10.9779068 8.23264688,10.6254572 8.41011085,10.2968299 C8.58634016,10.4058908 8.79400975,10.4683292 9.01626447,10.4683292 C9.65752398,10.4683292 10.1773675,9.94855206 10.1773675,9.30737447 C10.1773675,9.04912942 10.0930379,8.81057808 9.95041093,8.61774931 C10.3729208,8.33962075 10.8437785,8.12870585 11.3475749,8.00014854 C11.4187056,8.57383214 11.9073635,9.01713578 12.4995736,9.01713578 C13.0825368,9.01713578 13.5651563,8.58756789 13.6480874,8.02773842 L13.6509901,8 Z M12.4995736,10.7585679 C11.5376844,10.7585679 10.7579191,11.5382336 10.7579191,12.5 C10.7579191,13.4617664 11.5376844,14.2414321 12.4995736,14.2414321 C13.4614629,14.2414321 14.2412282,13.4617664 14.2412282,12.5 C14.2412282,11.5382336 13.4614629,10.7585679 12.4995736,10.7585679 Z M14.4993789,6.33333333 C14.7755213,6.33333333 14.9993789,6.55719096 14.9993789,6.83333333 L14.9993447,7.18974958 C14.284846,6.88393459 13.4957212,6.71428571 12.6661491,6.71428571 C10.1996743,6.71428571 8.09074781,8.21395691 7.23767604,10.3332867 L1.5,10.3333333 C1.22385763,10.3333333 1,10.1094757 1,9.83333333 L1,6.83333333 C1,6.55719096 1.22385763,6.33333333 1.5,6.33333333 L14.4993789,6.33333333 Z M3.72210145,7 C2.97041389,7 2.36105073,7.59695367 2.36105073,8.33333333 C2.36105073,9.069713 2.97041389,9.66666667 3.72210145,9.66666667 C4.47378901,9.66666667 5.08315218,9.069713 5.08315218,8.33333333 C5.08315218,7.59695367 4.47378901,7 3.72210145,7 Z M14.4993789,1 C14.7755213,1 14.9993789,1.22385763 14.9993789,1.5 L14.9993789,4.5 C14.9993789,4.77614237 14.7755213,5 14.4993789,5 L1.5,5 C1.22385763,5 1,4.77614237 1,4.5 L1,1.5 C1,1.22385763 1.22385763,1 1.5,1 L14.4993789,1 Z M3.72210145,1.66666667 C2.97041389,1.66666667 2.36105073,2.26362033 2.36105073,3 C2.36105073,3.73637967 2.97041389,4.33333333 3.72210145,4.33333333 C4.47378901,4.33333333 5.08315218,3.73637967 5.08315218,3 C5.08315218,2.26362033 4.47378901,1.66666667 3.72210145,1.66666667 Z" id="path-1"></path>
        <rect id="path-3" x="0" y="0" width="18" height="18"></rect>
    </defs>
    <g id="控件" stroke="none" stroke-width="1" fill="none" fill-rule="evenodd">
        <g id="复用模块/工具栏/切换Java分析/正常-管理员-滚动条" transform="translate(-49.000000, -40.000000)">
            <g id="编组" transform="translate(48.000000, 39.000000)">
                <mask id="mask-2" fill="white">
                    <use xlink:href="#path-1"></use>
                </mask>
                <use id="形状结合" fill="#DCDCDC" fill-rule="nonzero" xlink:href="#path-1"></use>
                <g mask="url(#mask-2)">
                    <g>
                        <mask id="mask-4" fill="white">
                            <use xlink:href="#path-3"></use>
                        </mask>
                        <use id="4.图标色/默认#AFB1B3" fill="#AFB1B3" xlink:href="#path-3"></use>
                    </g>
                </g>
            </g>
        </g>
    </g>
</svg>