<svg xmlns="http://www.w3.org/2000/svg" viewBox="0 0 60 60"><defs><style>.cls-1{fill:lime;opacity:0;}.cls-2{fill:#afb1b3;}</style></defs><g id="图层_2" data-name="图层 2"><g id="图层_1-2" data-name="图层 1"><rect class="cls-1" width="60" height="60"/><path class="cls-2" d="M32.62,34.27l-5.79-1-.92-.67L19.12,19.33,21,17.7,33.3,26.09l.55,1L34.11,33Z"/><path class="cls-2" d="M36,55.9A26.59,26.59,0,0,1,3.42,30a26.58,26.58,0,0,1,51.8-8.39l-2.86,1.48A23.4,23.4,0,1,0,30,53.4a22.05,22.05,0,0,0,2.31-.12Z"/><polygon class="cls-2" points="32.82 38.93 31.4 42.88 25 41.8 32.55 47.19 60 24.88 32.82 38.93"/><polygon class="cls-2" points="33.72 48.03 50.47 60 43.37 48.55 58.05 28.06 33.72 48.03"/></g></g></svg>