<?xml version="1.0" encoding="UTF-8"?>
<svg width="14px" height="14px" viewBox="0 0 14 14" version="1.1" xmlns="http://www.w3.org/2000/svg" xmlns:xlink="http://www.w3.org/1999/xlink">
    <title>分析记录管理@1x</title>
    <defs>
        <path d="M9.78,2.43925926 C10.3322847,2.43925926 10.78,2.88697451 10.78,3.43925926 L10.7805577,5.5356849 C10.493176,5.47731097 10.1957222,5.44666666 9.89111111,5.44666666 C7.43651222,5.44666666 5.44666666,7.43651222 5.44666666,9.89111111 C5.44666666,11.2187033 6.02875342,12.4103419 6.95163176,13.2247317 L1.78,13.2244444 C1.22771525,13.2244444 0.78,12.7767292 0.78,12.2244444 L0.78,3.43925926 C0.78,2.88697451 1.22771525,2.43925926 1.78,2.43925926 L9.78,2.43925926 Z M10.619659,6.22444444 C11.011769,6.32444753 11.3782321,6.4885924 11.7072115,6.70504379 C11.5958628,6.85489406 11.5302731,7.04043399 11.5302731,7.24129125 C11.5302731,7.73998494 11.9345959,8.14425605 12.4333533,8.14425605 C12.606101,8.14425605 12.76752,8.09575865 12.9047347,8.01163798 C13.0428336,8.26646669 13.1509434,8.5405942 13.2244444,8.82855987 C12.7783478,8.88370175 12.4333533,9.26378935 12.4333533,9.72444444 L12.4361847,9.79647429 C12.4699486,10.2242086 12.8018266,10.5680893 13.2244444,10.620329 C13.1509434,10.9082947 13.0428336,11.1824222 12.9047347,11.4372509 C12.76752,11.3531302 12.606101,11.3046328 12.4333533,11.3046328 C11.9345959,11.3046328 11.5302731,11.7089039 11.5302731,12.2075976 C11.5302731,12.4084549 11.5958628,12.5939948 11.7072115,12.7438451 C11.4193545,12.93324 11.1027991,13.0825878 10.7654749,13.1839597 L10.619659,13.2244444 L10.6174013,13.2028701 C10.5528993,12.7674472 10.1775286,12.4333388 9.72411284,12.4333388 C9.26350491,12.4333388 8.88343768,12.7781305 8.82811381,13.2243289 C8.43627216,13.1243399 8.07004951,12.9602949 7.74143072,12.7439727 C7.85236284,12.5939948 7.91795252,12.4084549 7.91795252,12.2075976 C7.91795252,11.7089039 7.51362976,11.3046328 7.01487236,11.3046328 C6.84200758,11.3046328 6.68048679,11.353196 6.54341955,11.4380212 C6.40539202,11.1824222 6.29728225,10.9082947 6.22444444,10.6204522 C6.64658437,10.5679301 6.97829475,10.2240964 7.01204227,9.79645791 L7.01487236,9.72444444 C7.01487236,9.26389535 6.67003659,8.88387668 6.22444444,8.82843664 C6.29728225,8.5405942 6.40539202,8.26646669 6.54341955,8.0108677 C6.68048679,8.09569287 6.84200758,8.14425605 7.01487236,8.14425605 C7.51362976,8.14425605 7.91795252,7.73998494 7.91795252,7.24129125 C7.91795252,7.04043399 7.85236284,6.85489406 7.74143072,6.70491613 C8.07004951,6.48859392 8.43627216,6.32454899 8.82811381,6.22455997 C8.88343768,6.67075833 9.26350491,7.01555005 9.72411284,7.01555005 C10.1775286,7.01555005 10.5528993,6.68144169 10.6174013,6.24601877 L10.619659,6.22444444 Z M9.72411284,8.36999725 C8.97597674,8.36999725 8.3694926,8.97640391 8.3694926,9.72444444 C8.3694926,10.472485 8.97597674,11.0788916 9.72411284,11.0788916 C10.4722489,11.0788916 11.0787331,10.472485 11.0787331,9.72444444 C11.0787331,8.97640391 10.4722489,8.36999725 9.72411284,8.36999725 Z M5.36518518,5.75777778 L2.86148148,5.75777778 C2.63238558,5.75777778 2.44666666,5.94349669 2.44666666,6.1725926 C2.44666666,6.3730515 2.58885771,6.54029991 2.77788183,6.57897984 L2.86148148,6.58740741 L5.36518518,6.58740741 C5.59428108,6.58740741 5.78,6.40168849 5.78,6.1725926 C5.78,5.94349669 5.59428108,5.75777778 5.36518518,5.75777778 Z M11.4466666,0.78 C11.9989514,0.78 12.4466666,1.22771525 12.4466666,1.78 L12.4474863,6.25499518 C12.1885998,6.07264985 11.9093659,5.91725325 11.6138637,5.79288446 L11.6133333,2.64178812 C11.6133333,2.12895228 11.2272931,1.70628095 10.7299544,1.64851585 L10.6133333,1.64178812 L2.4562343,1.64110999 C2.52383973,1.15456396 2.94151114,0.78 3.44666666,0.78 L11.4466666,0.78 Z M8.69851852,4.09851852 L2.86148148,4.09851852 C2.63238558,4.09851852 2.44666666,4.28423743 2.44666666,4.51333334 C2.44666666,4.71379224 2.58885771,4.88104065 2.77788183,4.91972058 L2.86148148,4.92814815 L8.69851852,4.92814815 C8.92761441,4.92814815 9.11333333,4.74242923 9.11333333,4.51333334 C9.11333333,4.28423743 8.92761441,4.09851852 8.69851852,4.09851852 Z" id="path-1"></path>
    </defs>
    <g id="Profiling分析模块" stroke="none" stroke-width="1" fill="none" fill-rule="evenodd">
        <g id="画板" transform="translate(-69.000000, -16.000000)">
            <g id="分析记录管理" transform="translate(69.000000, 16.000000)">
                <rect id="矩形" x="0" y="0" width="14" height="14"></rect>
                <mask id="mask-2" fill="white">
                    <use xlink:href="#path-1"></use>
                </mask>
                <use id="path-2" fill="#AFB1B3" xlink:href="#path-1"></use>
            </g>
        </g>
    </g>
</svg>