<?xml version="1.0" encoding="UTF-8"?>
<svg width="14px" height="14px" viewBox="0 0 14 14" version="1.1" xmlns="http://www.w3.org/2000/svg" xmlns:xlink="http://www.w3.org/1999/xlink">
    <title>删除@1x</title>
    <defs>
        <path d="M12.9259259,2.40096618 L10.0222222,2.40096618 L10.0222222,1.4 C10.0222222,1.10241546 9.69629629,0.777777778 9.37037037,0.777777778 L4.62962962,0.777777778 C4.30370369,0.777777778 4.09629629,1.10241546 4.09629629,1.4 L4.09629629,2.40096618 L1.07407407,2.40096618 C0.896296292,2.40096618 0.777777778,2.50917874 0.777777778,2.67149759 C0.777777778,2.83381644 0.896296292,2.94202899 1.07407407,2.94202899 L12.9259259,2.94202899 C13.1037037,2.94202899 13.2222222,2.83381643 13.2222222,2.67149759 C13.2222222,2.50917875 13.1037037,2.4009662 12.9259259,2.40096618 Z M2.02222222,12.4917874 C2.02222222,12.9516908 2.34814815,13.2222222 2.85185185,13.2222222 L11.1481482,13.2222222 C11.6518519,13.2222222 12.0962963,12.9516908 12.0962963,12.4917874 L12.0962963,3.48309179 L2.02222222,3.48309179 L2.02222222,12.4917874 L2.02222222,12.4917874 Z M9.13333333,5.99903382 C9.13333333,5.83671498 9.25185185,5.72850241 9.42962963,5.72850241 C9.6074074,5.72850241 9.72592593,5.83671497 9.72592593,5.99903382 L9.72592593,10.868599 C9.72592593,11.0309179 9.60740742,11.1391304 9.42962963,11.1391304 C9.25185183,11.1391304 9.13333333,11.0309179 9.13333333,10.868599 L9.13333333,5.99903382 Z M6.76296296,5.99903382 C6.76296296,5.83671498 6.88148147,5.72850241 7.05925926,5.72850241 C7.23703706,5.72850241 7.35555556,5.83671497 7.35555556,5.99903382 L7.35555556,10.868599 C7.35555556,11.0309179 7.23703704,11.1391304 7.05925926,11.1391304 C6.88148149,11.1391304 6.76296296,11.0309179 6.76296296,10.868599 L6.76296296,5.99903382 L6.76296296,5.99903382 Z M4.3925926,5.99903382 C4.3925926,5.83671498 4.51111111,5.72850241 4.68888889,5.72850241 C4.86666667,5.72850241 4.98518518,5.83671497 4.98518518,5.99903382 L4.98518518,10.868599 C4.98518518,11.0309179 4.86666667,11.1391304 4.68888889,11.1391304 C4.51111111,11.1391304 4.3925926,11.0309179 4.3925926,10.868599 L4.3925926,5.99903382 Z" id="path-1"></path>
    </defs>
    <g id="Profiling分析模块" stroke="none" stroke-width="1" fill="none" fill-rule="evenodd">
        <g id="画板" transform="translate(-33.000000, -3.000000)">
            <g id="删除" transform="translate(33.000000, 3.000000)">
                <rect id="矩形" x="0" y="0" width="14" height="14"></rect>
                <mask id="mask-2" fill="white">
                    <use xlink:href="#path-1"></use>
                </mask>
                <use id="path-2" fill="#AFB1B3" xlink:href="#path-1"></use>
            </g>
        </g>
    </g>
</svg>