<?xml version="1.0" encoding="UTF-8"?>
<svg width="14px" height="14px" viewBox="0 0 14 14" version="1.1" xmlns="http://www.w3.org/2000/svg" xmlns:xlink="http://www.w3.org/1999/xlink">
    <title>导出@1x</title>
    <defs>
        <path d="M12.7244444,3.89111111 C13.0005868,3.89111111 13.2244444,4.11496873 13.2244444,4.39111111 L13.2244444,12.7244444 C13.2244444,13.0005868 13.0005868,13.2244444 12.7244444,13.2244444 L1.28,13.2244444 C1.00385762,13.2244444 0.78,13.0005868 0.78,12.7244444 L0.78,3.89111111 L12.7244444,3.89111111 Z M6.98123457,5.99240741 L6.94222222,6.01018518 L3.09407407,8.89629629 C3.06889349,8.91518173 3.05407407,8.94482056 3.05407407,8.97629629 C3.05407407,9.01771765 3.07925805,9.05325697 3.11514956,9.0684378 L3.15407407,9.07629629 L5.44666666,9.07629629 L5.44666666,11.0503703 C5.44666666,11.1055988 5.49143819,11.1503703 5.54666666,11.1503703 L8.45777778,11.1503703 C8.51300625,11.1503703 8.55777778,11.1055988 8.55777778,11.0503703 L8.55777778,9.07629629 L10.8503703,9.07629629 C10.8818461,9.07629629 10.9114849,9.06147688 10.9303703,9.03629629 C10.9552232,9.00315921 10.9563996,8.95961736 10.9367949,8.9259378 L10.9103703,8.89629629 L7.06222222,6.01018518 C7.03851852,5.99240741 7.00888889,5.98648148 6.98123457,5.99240741 Z M5.7580784,0.78 C5.89068665,0.78 6.0178636,0.83267842 6.11163179,0.926446609 L8.03925926,2.85407407 L0.78,2.85407407 L0.78,1.28 C0.78,1.00385762 1.00385762,0.78 1.28,0.78 L5.7580784,0.78 Z" id="path-1"></path>
    </defs>
    <g id="Profiling分析模块" stroke="none" stroke-width="1" fill="none" fill-rule="evenodd">
        <g id="画板" transform="translate(-51.000000, -14.000000)">
            <g id="导出" transform="translate(51.000000, 14.000000)">
                <rect id="矩形" x="0" y="0" width="14" height="14"></rect>
                <mask id="mask-2" fill="white">
                    <use xlink:href="#path-1"></use>
                </mask>
                <use id="path-2" fill="#AFB1B3" xlink:href="#path-1"></use>
            </g>
        </g>
    </g>
</svg>