<?xml version="1.0" encoding="UTF-8"?>
<svg width="14px" height="14px" viewBox="0 0 14 14" version="1.1" xmlns="http://www.w3.org/2000/svg" xmlns:xlink="http://www.w3.org/1999/xlink">
    <title>导入@1x</title>
    <defs>
        <path d="M12.7244444,3.89111111 C13.0005868,3.89111111 13.2244444,4.11496873 13.2244444,4.39111111 L13.2244444,12.7244444 C13.2244444,13.0005868 13.0005868,13.2244444 12.7244444,13.2244444 L1.28,13.2244444 C1.00385762,13.2244444 0.78,13.0005868 0.78,12.7244444 L0.78,3.89111111 L12.7244444,3.89111111 Z M8.45777778,5.96518518 L5.54666666,5.96518518 C5.49143819,5.96518518 5.44666666,6.00995671 5.44666666,6.06518518 L5.44666666,6.06518518 L5.44666666,8.03925926 L3.15407407,8.03925926 L3.11514956,8.04711775 C3.07925805,8.06229858 3.05407407,8.0978379 3.05407407,8.13925926 C3.05407407,8.17073499 3.06889349,8.20037382 3.09407407,8.21925926 L3.09407407,8.21925926 L6.94222222,11.1053703 L6.98123457,11.1231481 C7.00888889,11.1290741 7.03851852,11.1231481 7.06222222,11.1053703 L7.06222222,11.1053703 L10.9103703,8.21925926 L10.9367949,8.18961775 C10.9563996,8.15593819 10.9552232,8.11239634 10.9303703,8.07925926 C10.9114849,8.05407867 10.8818461,8.03925926 10.8503703,8.03925926 L10.8503703,8.03925926 L8.55777778,8.03925926 L8.55777778,6.06518518 C8.55777778,6.00995671 8.51300625,5.96518518 8.45777778,5.96518518 L8.45777778,5.96518518 Z M5.7580784,0.78 C5.89068665,0.78 6.0178636,0.83267842 6.11163179,0.926446609 L8.03925926,2.85407407 L0.78,2.85407407 L0.78,1.28 C0.78,1.00385762 1.00385762,0.78 1.28,0.78 L5.7580784,0.78 Z" id="path-1"></path>
    </defs>
    <g id="Profiling分析模块" stroke="none" stroke-width="1" fill="none" fill-rule="evenodd">
        <g id="画板" transform="translate(-40.000000, -35.000000)">
            <g id="导入" transform="translate(40.000000, 35.000000)">
                <rect id="矩形" x="0" y="0" width="14" height="14"></rect>
                <mask id="mask-2" fill="white">
                    <use xlink:href="#path-1"></use>
                </mask>
                <use id="path-2" fill="#AFB1B3" xlink:href="#path-1"></use>
            </g>
        </g>
    </g>
</svg>