<?xml version="1.0" encoding="UTF-8"?>
<svg width="14px" height="14px" viewBox="0 0 14 14" version="1.1" xmlns="http://www.w3.org/2000/svg" xmlns:xlink="http://www.w3.org/1999/xlink">
    <title>重启@1x</title>
    <defs>
        <path d="M7,0.78 C3.56478886,0.78 0.78,3.56478886 0.78,7 C0.78,10.4352111 3.56478886,13.22 7,13.22 C10.4352111,13.22 13.22,10.4352111 13.22,7 C13.22,3.56478886 10.4352111,0.78 7,0.78 L7,0.78 Z M7,10.90927 C4.85299303,10.90927 3.11249999,9.16877697 3.11249999,7.02177 C3.11249999,4.87476303 4.85299303,3.13426999 7,3.13426999 L7,2.02399999 L9.22131751,3.6901825 L7,5.356365 L7,4.246095 C5.87657385,4.24609518 4.86379678,4.92291392 4.43402562,5.96088456 C4.00425445,6.9988552 4.24214761,8.19351325 5.03675228,8.98767301 C5.83135694,9.78183278 7.02614804,10.0190568 8.06387782,9.58870438 C9.1016076,9.15835195 9.77785901,8.14519598 9.77723,7.02177001 C9.77723,6.36245001 10.8875,6.33912501 10.8875,7.02177001 C10.8875,9.16877697 9.14700696,10.90927 7,10.90927 L7,10.90927 Z" id="path-1"></path>
    </defs>
    <g id="Profiling分析模块" stroke="none" stroke-width="1" fill="none" fill-rule="evenodd">
        <g id="画板" transform="translate(-10.000000, -3.000000)">
            <g id="重启" transform="translate(10.000000, 3.000000)">
                <rect id="矩形" x="0" y="0" width="14" height="14"></rect>
                <mask id="mask-2" fill="white">
                    <use xlink:href="#path-1"></use>
                </mask>
                <use id="path-2" fill="#AFB1B3" xlink:href="#path-1"></use>
            </g>
        </g>
    </g>
</svg>