<?xml version="1.0" encoding="UTF-8"?>
<svg width="12px" height="12px" viewBox="0 0 12 12" version="1.1" xmlns="http://www.w3.org/2000/svg" xmlns:xlink="http://www.w3.org/1999/xlink">
    <title>IntelliJ/icon/14/用户@1x</title>
    <g id="控件" stroke="none" stroke-width="1" fill="none" fill-rule="evenodd">
        <g id="复用模块/工具栏/切换Java分析/正常-管理员-滚动条" transform="translate(-57.000000, -262.000000)">
            <g id="编组备份-24" transform="translate(0.000000, 256.000000)">
                <g id="编组-10" transform="translate(32.000000, 2.000000)">
                    <g id="编组" transform="translate(24.000000, 3.000000)">
                        <g id="2.通用/1.Icon/3.通用/账号" transform="translate(1.000000, 1.000000)">
                            <rect id="矩形" fill="#D8D8D8" opacity="0" x="0" y="0" width="12" height="12"></rect>
                            <path d="M7.41936481,6.75596158 L4.7711092,6.75596158 C2.50415008,6.75596158 1.37883906,8.54981538 0.666666667,10.8204474 L0.666666667,11.0818835 C0.666666667,11.9986565 1.19577787,11.9986565 4.7711092,12 L7.41936481,12 C10.518173,12 11.5238081,11.9664137 11.5238081,11.0818835 L11.5238081,10.820313 C11.3350857,9.11624134 9.68632394,6.75596158 7.41936481,6.75596158 Z M9.1408711,3.14650366 C9.1408711,1.40955197 7.71804929,0 5.96331136,0 C4.20857342,0 2.78561816,1.40820851 2.78561816,3.14636931 C2.78561816,4.88453012 4.20843996,6.29273863 5.96331136,6.29273863 C7.71804929,6.29287298 9.1408711,4.88345536 9.1408711,3.14650366 Z" id="形状" fill="#AFB1B3" fill-rule="nonzero"></path>
                        </g>
                    </g>
                </g>
            </g>
        </g>
    </g>
</svg>