<?xml version="1.0" encoding="UTF-8"?>
<svg width="16px" height="16px" viewBox="0 0 16 16" version="1.1" xmlns="http://www.w3.org/2000/svg" xmlns:xlink="http://www.w3.org/1999/xlink">
    <title>IntelliJ_SFW/icon/16/容量监控1级</title>
    <g id="IntelliJ_SFW/icon/16/容量监控1级" stroke="none" stroke-width="1" fill="none" fill-rule="evenodd">
        <path d="M8,0 C12.418278,0 16,3.581722 16,8 C16,12.418278 12.418278,16 8,16 C3.581722,16 0,12.418278 0,8 C0,3.581722 3.581722,0 8,0 Z M8,1 C4.13400675,1 1,4.13400675 1,8 C1,11.8659932 4.13400675,15 8,15 C11.8659932,15 15,11.8659932 15,8 C15,4.13400675 11.8659932,1 8,1 Z M13.9992959,7.95271615 L14,8 C14,11.3137085 11.3137085,14 8,14 C5.73597298,14 3.76482676,12.7460283 2.74320805,10.8947316 C2.60317756,10.6409794 2.48098625,10.3760049 2.3783251,10.1014993 C2.98738598,9.46219584 3.84893901,9.26614449 4.96267096,9.51178819 C7.48259175,10.0675796 8.46386523,7.85338989 11.1992144,7.15559838 C12.3838068,6.85340715 13.3171673,7.11911307 13.9992959,7.95271615 Z" id="蒙版" fill="#42688E"></path>
    </g>
</svg>