<?xml version="1.0" encoding="UTF-8"?>
<svg width="16px" height="16px" viewBox="0 0 16 16" version="1.1" xmlns="http://www.w3.org/2000/svg" xmlns:xlink="http://www.w3.org/1999/xlink">
    <title>IntelliJ_SFW/icon/16/容量监控2级</title>
    <g id="IntelliJ_SFW/icon/16/容量监控2级" stroke="none" stroke-width="1" fill="none" fill-rule="evenodd">
        <path d="M8,0 C12.418278,0 16,3.581722 16,8 C16,12.418278 12.418278,16 8,16 C3.581722,16 0,12.418278 0,8 C0,3.581722 3.581722,0 8,0 Z M8,1 C4.13400675,1 1,4.13400675 1,8 C1,11.8659932 4.13400675,15 8,15 C11.8659932,15 15,11.8659932 15,8 C15,4.13400675 11.8659932,1 8,1 Z M13.4208569,5.42456426 L13.4423449,5.47055139 C13.8001932,6.23919002 14,7.09626132 14,8 C14,11.3137085 11.3137085,14 8,14 C5.73597298,14 3.76482676,12.7460283 2.74320805,10.8947316 C2.26955017,10.0364062 2,9.04968148 2,8 C2,7.97757389 2.00012304,7.95517652 2.00036847,7.93280852 C2.57518512,7.45844015 3.54632298,7.38229503 4.91388085,7.70474649 C8.5812821,8.56946961 8.8870801,5.72855552 11.6224292,5.03076401 C12.3340528,4.84922781 12.9335287,4.98049456 13.4208569,5.42456426 Z" id="蒙版" fill="#F0A732"></path>
    </g>
</svg>