<?xml version="1.0" encoding="UTF-8"?>
<svg width="16px" height="16px" viewBox="0 0 16 16" version="1.1" xmlns="http://www.w3.org/2000/svg" xmlns:xlink="http://www.w3.org/1999/xlink">
    <title>IntelliJ_SFW/icon/16/容量监控三级</title>
    <g id="IntelliJ_SFW/icon/16/容量监控三级" stroke="none" stroke-width="1" fill="none" fill-rule="evenodd">
        <path d="M8,0 C12.418278,0 16,3.581722 16,8 C16,12.418278 12.418278,16 8,16 C3.581722,16 0,12.418278 0,8 C0,3.581722 3.581722,0 8,0 Z M8,1 C4.13400675,1 1,4.13400675 1,8 C1,11.8659932 4.13400675,15 8,15 C11.8659932,15 15,11.8659932 15,8 C15,4.13400675 11.8659932,1 8,1 Z M12.7301748,4.30726709 L12.7922619,4.38913863 C13.5504347,5.39378556 14,6.64439198 14,8 C14,11.3137085 11.3137085,14 8,14 C5.73597298,14 3.76482676,12.7460283 2.74320805,10.8947316 C2.26955017,10.0364062 2,9.04968148 2,8 C2,6.9338267 2.27808665,5.93260402 2.76568423,5.06490767 L2.903,4.831 L3.02039854,4.80205375 C4.81662223,4.38572494 5.10481981,5.28704461 6.01338037,5.56901027 C8.4433968,6.32314953 6.84075081,5.05530132 10.7528966,4.02627257 C11.5336514,3.82090724 12.1903837,3.99532459 12.7301748,4.30726709 Z" id="蒙版" fill="#D24444"></path>
    </g>
</svg>