<?xml version="1.0" encoding="UTF-8"?>
<svg width="18px" height="18px" viewBox="0 0 18 18" version="1.1" xmlns="http://www.w3.org/2000/svg" xmlns:xlink="http://www.w3.org/1999/xlink">
    <title>IntelliJ_SFW/icon/18/创建任务/Normal</title>
    <g id="IntelliJ_SFW/icon/18/创建任务/Normal" stroke="none" stroke-width="1" fill="none" fill-rule="evenodd">
        <g id="编组-4" transform="translate(3.000000, 1.000000)" fill="#AFB1B3" fill-rule="nonzero">
            <path d="M11,0.0387624629 C11.5522847,0.0387624629 12,0.486477713 12,1.03876246 L12.0003901,5.59990903 C11.2502268,5.21635366 10.4003795,5 9.5,5 C6.46243388,5 4,7.46243388 4,10.5 C4,12.3604064 4.92369528,14.0050721 6.33748757,15.000399 L1,15.0007255 C0.44771525,15.0007255 2.04348672e-13,14.5530102 2.04281037e-13,14.0007255 L2.04281037e-13,1.03876246 C2.04213401e-13,0.486477713 0.44771525,0.0387624629 1,0.0387624629 L11,0.0387624629 Z M3.5,4 L2.5,4 C2.22385763,4 2,4.22385763 2,4.5 C2,4.77614237 2.22385763,5 2.5,5 L2.5,5 L3.5,5 C3.77614237,5 4,4.77614237 4,4.5 C4,4.22385763 3.77614237,4 3.5,4 L3.5,4 Z M9.5,2 L2.5,2 C2.22385763,2 2,2.22385763 2,2.5 C2,2.77614237 2.22385763,3 2.5,3 L2.5,3 L9.5,3 C9.77614237,3 10,2.77614237 10,2.5 C10,2.22385763 9.77614237,2 9.5,2 L9.5,2 Z" id="形状结合"></path>
            <path d="M10.5,7 L10.5,9.5 L13,9.5 L13,11.5 L10.499,11.5 L10.5,14 L8.5,14 L8.499,11.5 L6,11.5 L6,9.5 L8.5,9.5 L8.5,7 L10.5,7 Z" id="形状结合"></path>
        </g>
    </g>
</svg>