<?xml version="1.0" encoding="UTF-8"?>
<svg width="18px" height="18px" viewBox="0 0 18 18" version="1.1" xmlns="http://www.w3.org/2000/svg" xmlns:xlink="http://www.w3.org/1999/xlink">
    <title>IntelliJ_SFW/icon/18/创建工程/Click</title>
    <g id="IntelliJ_SFW/icon/18/创建工程/Click" stroke="none" stroke-width="1" fill="none" fill-rule="evenodd">
        <path d="M7.43053313,1.98166665 L8.96104588,4 L16,4 L16.0005473,8.25761415 C15.0495273,7.47199869 13.8298843,7 12.5,7 C9.46243388,7 7,9.46243388 7,12.5 C7,13.0200759 7.07218494,13.5232921 7.20708232,14.0001762 L3,14 C2.44771525,14 2,13.5522847 2,13 L2,2.98166665 C2,2.4293819 2.44771525,1.98166665 3,1.98166665 L7.43053313,1.98166665 Z" id="形状结合" fill="#AFB1B3" fill-rule="nonzero"></path>
        <path d="M14.0567905,9 L14.0567905,11.5 L16.5567905,11.5 L16.5567905,13.5 L14.0557905,13.5 L14.0567905,16 L12.0567905,16 L12.0557905,13.5 L9.55679054,13.5 L9.55679054,11.5 L12.0567905,11.5 L12.0567905,9 L14.0567905,9 Z" id="形状结合" fill="#AFB1B3" fill-rule="nonzero"></path>
    </g>
</svg>