<?xml version="1.0" encoding="UTF-8"?>
<svg width="14px" height="14px" viewBox="0 0 14 14" version="1.1" xmlns="http://www.w3.org/2000/svg" xmlns:xlink="http://www.w3.org/1999/xlink">
    <title>4.控件/2.通用/1.icon/2.Sysperf/14/导入工程任务</title>
    <g id="4.控件/2.通用/1.icon/2.Sysperf/14/导入工程任务" stroke="none" stroke-width="1" fill="none" fill-rule="evenodd">
        <path d="M12.988166,3.53799145 C12.9959572,3.58828966 13,3.63982655 13,3.69230769 L13,12 C13,12.5522847 12.5522847,13 12,13 L2.00087495,13 C1.4485902,13 1.00087495,12.5522847 1.00087495,12 L1.00087495,3.69230769 C1.00087495,3.64016734 1.00486541,3.58895901 1.0125576,3.53897145 L12.988166,3.53799145 Z M7.6,5 L6.4,5 C6.1790861,5 6,5.1790861 6,5.4 L6,5.4 L5.99997646,7.999 L4.8,8 C4.71345191,8 4.62923847,8.02807115 4.56,8.08 C4.38326888,8.21254834 4.34745166,8.46326888 4.48,8.64 L4.48,8.64 L6.68,11.5733333 C6.7027417,11.6036556 6.72967773,11.6305916 6.76,11.6533333 C6.93673112,11.7858817 7.18745166,11.7500645 7.32,11.5733333 L7.32,11.5733333 L9.52,8.64 C9.57192885,8.57076153 9.6,8.48654809 9.6,8.4 C9.6,8.1790861 9.4209139,8 9.2,8 L9.2,8 L7.99997646,8 L8,5.4 C8,5.1790861 7.8209139,5 7.6,5 L7.6,5 Z M8.24855119,1 C8.56430845,1 8.86151666,1.14913222 9.05025258,1.40227526 L10.0118749,2.692 L1,2.692 L1.00087495,2 C1.00087495,1.44771525 1.4485902,1 2.00087495,1 L8.24855119,1 Z" id="形状结合" fill="#AFB1B3"></path>
    </g>
</svg>