<?xml version="1.0" encoding="UTF-8"?>
<svg width="18px" height="18px" viewBox="0 0 18 18" version="1.1" xmlns="http://www.w3.org/2000/svg" xmlns:xlink="http://www.w3.org/1999/xlink">
    <title>IntelliJ_SFW/icon/18/导入导出管理/Click</title>
    <g id="IntelliJ_SFW/icon/18/导入导出管理/Click" stroke="none" stroke-width="1" fill="none" fill-rule="evenodd">
        <path d="M16,1 C16.5522847,1 17,1.44771525 17,2 L17,12 C17,12.5522847 16.5522847,13 16,13 L13,13 L13,15 C13,15.5522847 12.5522847,16 12,16 L2,16 C1.44771525,16 1,15.5522847 1,15 L1,5 C1,4.44771525 1.44771525,4 2,4 L5,4 L5,2 C5,1.44771525 5.44771525,1 6,1 L16,1 Z M15.1483403,3.14214793 L5.5,13 L6.17122978,13.7726033 L13,8.45737559 L15.1483403,10.9697055 L15.1483403,3.14214793 Z M11.5699381,2.93477234 L4.74116785,8.25 L2.59282751,5.7376701 L2.59282751,13.5652277 L12.2411679,3.70737559 L11.5699381,2.93477234 Z" id="形状结合" fill="#AFB1B3" fill-rule="nonzero"></path>
    </g>
</svg>