<?xml version="1.0" encoding="UTF-8"?>
<svg width="18px" height="18px" viewBox="0 0 18 18" version="1.1" xmlns="http://www.w3.org/2000/svg" xmlns:xlink="http://www.w3.org/1999/xlink">
    <title>IntelliJ_SFW/icon/18/节点/Normal</title>
    <g id="IntelliJ_SFW/icon/18/节点/Normal" stroke="none" stroke-width="1" fill="none" fill-rule="evenodd">
        <path d="M10.6886406,15.1077812 L14.8802344,15.1077812 C15.191625,15.1077812 15.4071875,15.3233594 15.4071875,15.5868281 C15.4071875,15.8502969 15.191625,16.065875 14.8802344,16.065875 L10.6886406,16.065875 C10.7605,15.9221562 10.8084062,15.7544844 10.8084062,15.5868125 C10.8084062,15.4191406 10.7605,15.2754531 10.6886406,15.1077812 Z M9.22754687,14.3892187 C9.87426562,14.3892187 10.4251719,14.940125 10.4251719,15.5868281 C10.4251719,16.2335312 9.87426562,16.7844375 9.2275625,16.7844375 C8.58085937,16.7844375 8.02995312,16.2335312 8.02995312,15.5868281 C8.02995312,14.940125 8.58085937,14.3892187 9.2275625,14.3892187 L9.22754687,14.3892187 Z M8.74851562,14.1496875 L9.70660937,14.1496875 L9.70660937,13.1916094 L8.74851562,13.1916094 L8.74851562,14.1497031 L8.74851562,14.1496875 Z M3.52695312,15.1077812 L7.7904375,15.1077812 C7.71857812,15.2515 7.67067187,15.4191562 7.67067187,15.5868281 C7.67067187,15.7545 7.71857812,15.9221406 7.7904375,16.065875 L3.52695312,16.065875 C3.2155625,16.065875 3,15.8502969 3,15.5868125 C3,15.3233281 3.23953125,15.1077812 3.52695312,15.1077812 Z M13.0598906,3.13173437 L14.0179844,3.13173437 L14.0179844,2.17365625 L13.0598906,2.17365625 L13.0598906,3.13173437 L13.0598906,3.13173437 Z M11.8622969,2.17365625 C11.5988125,2.17365625 11.38325,2.38921875 11.38325,2.6526875 C11.38325,2.91615625 11.5988125,3.13175 11.8622969,3.13175 C12.1257812,3.13175 12.3413281,2.91617187 12.3413281,2.6526875 C12.3413281,2.38920312 12.1257656,2.17365625 11.8622969,2.17365625 L11.8622969,2.17365625 Z M10.1856406,2.17365625 C9.92217187,2.17365625 9.70660937,2.38921875 9.70660937,2.6526875 C9.70660937,2.91615625 9.92217187,3.13175 10.1856406,3.13175 C10.4491094,3.13175 10.6646875,2.91617187 10.6646875,2.6526875 C10.6646875,2.38920312 10.449125,2.17365625 10.1856406,2.17365625 L10.1856406,2.17365625 Z M14.7365469,4.32932812 L3.71857812,4.32932812 C3.33534375,4.32932812 3.00001562,4.01795312 3.00001562,3.5868125 L3.00001562,1.74251562 C3.00001562,1.35928125 3.31139062,1 3.71857812,1 L14.7365469,1 C15.1197812,1 15.4551094,1.311375 15.4551094,1.7425 L15.4551094,3.58682812 C15.4551094,4.01796875 15.1197812,4.32932812 14.7365469,4.32932812 Z M13.0598906,7.44310937 L14.0179844,7.44310937 L14.0179844,6.48503125 L13.0598906,6.48503125 L13.0598906,7.44310937 Z M11.8622969,6.48503125 C11.5988125,6.48503125 11.38325,6.70059375 11.38325,6.96407812 C11.38325,7.2275625 11.5988125,7.44310937 11.8622969,7.44310937 C12.1257812,7.44310937 12.3413281,7.22754687 12.3413281,6.96407812 C12.3413281,6.72454687 12.1257656,6.48501562 11.8622969,6.48501562 L11.8622969,6.48503125 Z M10.1856406,6.48503125 C9.92217187,6.48503125 9.70660937,6.70059375 9.70660937,6.96407812 C9.70660937,7.2275625 9.92217187,7.44310937 10.1856406,7.44310937 C10.4491094,7.44310937 10.6646875,7.22754687 10.6646875,6.96407812 C10.6886406,6.72454687 10.449125,6.48501562 10.1856406,6.48501562 L10.1856406,6.48503125 Z M14.7365469,8.64071875 L3.71857812,8.64071875 C3.33534375,8.64071875 3.00001562,8.32934375 3.00001562,7.89820312 L3.00001562,6.05389062 C3.00001562,5.67065625 3.31139062,5.31139062 3.71857812,5.31139062 L14.7365469,5.31139062 C15.1197812,5.31139062 15.4551094,5.62275 15.4551094,6.05389062 L15.4551094,7.89820312 C15.4551094,8.32934375 15.1197812,8.64071875 14.7365469,8.64071875 L14.7365469,8.64071875 Z M13.0598906,11.7544844 L14.0179844,11.7544844 L14.0179844,10.7964062 L13.0598906,10.7964062 L13.0598906,11.7544844 Z M11.8622969,10.7964062 C11.5988125,10.7964062 11.38325,11.0119687 11.38325,11.2754531 C11.38325,11.5389375 11.5988125,11.7544844 11.8622969,11.7544844 C12.1257812,11.7544844 12.3413281,11.5389219 12.3413281,11.2754531 C12.3413281,11.0119844 12.1257656,10.7964062 11.8622969,10.7964062 Z M10.1856406,10.7964062 C9.92217187,10.7964062 9.70660937,11.0119687 9.70660937,11.2754531 C9.70660937,11.5389375 9.92217187,11.7544844 10.1856406,11.7544844 C10.4491094,11.7544844 10.6646875,11.5389219 10.6646875,11.2754531 C10.6886406,11.0119687 10.449125,10.7964062 10.1856406,10.7964062 Z M14.7365469,12.9520937 L3.71857812,12.9520937 C3.33534375,12.9520937 3.00001562,12.6407187 3.00001562,12.2095937 L3.00001562,10.3652656 C3.00001562,9.98203125 3.31139062,9.62276562 3.71857812,9.62276562 L14.7365469,9.62276562 C15.1197812,9.62276562 15.4551094,9.934125 15.4551094,10.3652656 L15.4551094,12.2095781 C15.4551094,12.5928125 15.1197812,12.9520937 14.7365469,12.9520937 L14.7365469,12.9520937 Z" id="形状" fill="#AFB1B3" fill-rule="nonzero"></path>
    </g>
</svg>