<?xml version="1.0" encoding="UTF-8"?>
<svg width="16px" height="16px" viewBox="0 0 16 16" version="1.1" xmlns="http://www.w3.org/2000/svg">
    <title>4.控件/2.通用/1.icon/6.tuning/加载运行</title>
    <g id="4.控件/2.通用/1.icon/6.tuning/加载运行" stroke="none" stroke-width="1" fill="none" fill-rule="evenodd">
        <g id="编组" fill="#AFB1B3" fill-rule="nonzero">
            <path d="M8,0 C8.41421356,0 8.75,0.335786438 8.75,0.75 L8.75,4.25 C8.75,4.66421356 8.41421356,5 8,5 C7.58578644,5 7.25,4.66421356 7.25,4.25 L7.25,0.75 C7.25,0.335786438 7.58578644,0 8,0 Z" id="路径"></path>
            <path d="M8,11 C8.41421356,11 8.75,11.3357864 8.75,11.75 L8.75,15.25 C8.75,15.6642136 8.41421356,16 8,16 C7.58578644,16 7.25,15.6642136 7.25,15.25 L7.25,11.75 C7.25,11.3357864 7.58578644,11 8,11 Z" id="路径" opacity="0.6"></path>
            <path d="M0,8 C0,7.58578644 0.335786438,7.25 0.75,7.25 L4.25,7.25 C4.66421356,7.25 5,7.58578644 5,8 C5,8.41421356 4.66421356,8.75 4.25,8.75 L0.75,8.75 C0.335786438,8.75 0,8.41421356 0,8 Z" id="路径"></path>
            <path d="M11,8 C11,7.58578644 11.3357864,7.25 11.75,7.25 L15.25,7.25 C15.6642136,7.25 16,7.58578644 16,8 C16,8.41421356 15.6642136,8.75 15.25,8.75 L11.75,8.75 C11.3357864,8.75 11,8.41421356 11,8 Z" id="路径" opacity="0.3"></path>
            <path d="M13.6568542,2.34314575 C13.9497475,2.63603897 13.9497475,3.1109127 13.6568542,3.40380592 L11.1819805,5.87867966 C10.8890873,6.17157288 10.4142136,6.17157288 10.1213203,5.87867966 C9.82842712,5.58578644 9.82842712,5.1109127 10.1213203,4.81801948 L12.5961941,2.34314575 C12.8890873,2.05025253 13.363961,2.05025253 13.6568542,2.34314575 Z" id="路径" opacity="0.2"></path>
            <path d="M5.87867966,10.1213203 C6.17157288,10.4142136 6.17157288,10.8890873 5.87867966,11.1819805 L3.40380592,13.6568542 C3.1109127,13.9497475 2.63603897,13.9497475 2.34314575,13.6568542 C2.05025253,13.363961 2.05025253,12.8890873 2.34314575,12.5961941 L4.81801948,10.1213203 C5.1109127,9.82842712 5.58578644,9.82842712 5.87867966,10.1213203 Z" id="路径" opacity="0.8"></path>
            <path d="M2.34314575,2.34314575 C2.63603897,2.05025253 3.1109127,2.05025253 3.40380592,2.34314575 L5.87867966,4.81801948 C6.17157288,5.1109127 6.17157288,5.58578644 5.87867966,5.87867966 C5.58578644,6.17157288 5.1109127,6.17157288 4.81801948,5.87867966 L2.34314575,3.40380592 C2.05025253,3.1109127 2.05025253,2.63603897 2.34314575,2.34314575 Z" id="路径"></path>
            <path d="M10.1213203,10.1213203 C10.4142136,9.82842712 10.8890873,9.82842712 11.1819805,10.1213203 L13.6568542,12.5961941 C13.9497475,12.8890873 13.9497475,13.363961 13.6568542,13.6568542 C13.363961,13.9497475 12.8890873,13.9497475 12.5961941,13.6568542 L10.1213203,11.1819805 C9.82842712,10.8890873 9.82842712,10.4142136 10.1213203,10.1213203 Z" id="路径" opacity="0.4"></path>
        </g>
    </g>
</svg>