<?xml version="1.0" encoding="UTF-8"?>
<svg width="18px" height="18px" viewBox="0 0 18 18" version="1.1" xmlns="http://www.w3.org/2000/svg" xmlns:xlink="http://www.w3.org/1999/xlink">
    <title>IntelliJ_SFW/icon/18/预约任务/Normal</title>
    <g id="IntelliJ_SFW/icon/18/预约任务/Normal" stroke="none" stroke-width="1" fill="none" fill-rule="evenodd">
        <path d="M12,9.13713038 C12.2454599,9.13713038 12.4496084,9.31400554 12.4919443,9.54725475 L12.5,9.63713038 L12.5,11.302 L14,11.3026232 C14.2454599,11.3026232 14.4496084,11.4794983 14.4919443,11.7127475 L14.5,11.8026232 C14.5,12.0480831 14.3231248,12.2522315 14.0898756,12.2945675 L14,12.3026232 L12,12.3026232 C11.7545401,12.3026232 11.5503916,12.125748 11.5080557,11.8924988 L11.5,11.8026232 L11.5,9.63713038 C11.5,9.36098801 11.7238576,9.13713038 12,9.13713038 Z" id="路径-12" fill="#3C3F41" fill-rule="nonzero"></path>
        <path d="M12,8 C14.4852814,8 16.5,10.0147186 16.5,12.5 C16.5,14.9852814 14.4852814,17 12,17 C9.51471863,17 7.5,14.9852814 7.5,12.5 C7.5,10.0147186 9.51471863,8 12,8 Z M13,3 C13.5522847,3 14,3.44771525 14,4 L14.0008756,7.37528236 C13.3807704,7.13299002 12.7059159,7 12,7 C8.96243388,7 6.5,9.46243388 6.5,12.5 C6.5,13.8298843 6.97199869,15.0495273 7.75761415,16.0005473 L3,16 C2.44771525,16 2,15.5522847 2,15 L2,4 C2,3.44771525 2.44771525,3 3,3 L13,3 Z M12,10.1371304 C11.7545401,10.1371304 11.5503916,10.3140055 11.5080557,10.5472547 L11.5,10.6371304 L11.5,12.8026232 L11.5080557,12.8924988 C11.5450996,13.0965919 11.7060313,13.2575235 11.9101244,13.2945675 L12,13.3026232 L13.7436204,13.3026232 L13.833496,13.2945675 C14.0375891,13.2575235 14.1985207,13.0965919 14.2355647,12.8924988 L14.2436204,12.8026232 L14.2355647,12.7127475 C14.1985207,12.5086545 14.0375891,12.3477228 13.833496,12.3106788 L13.7436204,12.3026232 L12.5,12.302 L12.5,10.6371304 L12.4919443,10.5472547 C12.4496084,10.3140055 12.2454599,10.1371304 12,10.1371304 Z M15,1 C15.5522847,1 16,1.44771525 16,2 L16.0007734,8.72588129 C15.7021993,8.40949093 15.3665071,8.12850811 15.0006599,7.88989569 L15,3.03876246 C15,2.52592662 14.6139598,2.1032553 14.1166211,2.04549019 L14,2.03876246 L4,2.038 L4,2 C4,1.44771525 4.44771525,1 5,1 L15,1 Z M7.5,7 L4.5,7 C4.22385763,7 4,7.22385763 4,7.5 C4,7.74545989 4.17687516,7.94960837 4.41012437,7.99194433 L4.5,8 L7.5,8 C7.77614237,8 8,7.77614237 8,7.5 C8,7.22385763 7.77614237,7 7.5,7 Z M11.5,5 L4.5,5 C4.22385763,5 4,5.22385763 4,5.5 C4,5.74545989 4.17687516,5.94960837 4.41012437,5.99194433 L4.5,6 L11.5,6 C11.7761424,6 12,5.77614237 12,5.5 C12,5.22385763 11.7761424,5 11.5,5 Z" id="形状结合" fill="#AFB1B3" fill-rule="nonzero"></path>
    </g>
</svg>