<?xml version="1.0" encoding="UTF-8"?>
<svg width="18px" height="18px" viewBox="0 0 18 18" version="1.1" xmlns="http://www.w3.org/2000/svg" xmlns:xlink="http://www.w3.org/1999/xlink">
    <title>IntelliJ_SFW/icon/18/任务模版/Normal</title>
    <g id="IntelliJ_SFW/icon/18/任务模版/Normal" stroke="none" stroke-width="1" fill="none" fill-rule="evenodd">
        <path d="M15,1.03876246 C15.5522847,1.03876246 16,1.48647771 16,2.03876246 L16,11 L12.25,11 L12.1296167,11.0057221 C11.5379985,11.0622547 11.0667126,11.5311625 11.0065039,12.1217004 L11,12.25 L11,16 L4,16 C3.44771525,16 3,15.5522847 3,15 L3,2.03876246 C3,1.48647771 3.44771525,1.03876246 4,1.03876246 L15,1.03876246 Z M15.742,11.8327625 L11.833,15.5477625 L11.8333333,12.25 L11.8400464,12.1751036 C11.8709164,12.0050261 12.0050261,11.8709164 12.1751036,11.8400464 L12.25,11.8333333 L15.742,11.8327625 Z M7.5,3 L5.5,3 C5.22385763,3 5,3.22385763 5,3.5 L5,3.5 L5,10.5 C5,10.7761424 5.22385763,11 5.5,11 L5.5,11 L7.5,11 C7.77614237,11 8,10.7761424 8,10.5 L8,10.5 L8,3.5 C8,3.22385763 7.77614237,3 7.5,3 L7.5,3 Z M13.5,7 L9.5,7 C9.22385763,7 9,7.22385763 9,7.5 L9,7.5 L9,8.5 C9,8.77614237 9.22385763,9 9.5,9 L9.5,9 L13.5,9 C13.7761424,9 14,8.77614237 14,8.5 L14,8.5 L14,7.5 C14,7.22385763 13.7761424,7 13.5,7 L13.5,7 Z M13.5,3 L9.5,3 C9.22385763,3 9,3.22385763 9,3.5 L9,3.5 L9,4.5 C9,4.77614237 9.22385763,5 9.5,5 L9.5,5 L13.5,5 C13.7761424,5 14,4.77614237 14,4.5 L14,4.5 L14,3.5 C14,3.22385763 13.7761424,3 13.5,3 L13.5,3 Z" id="形状结合" fill="#AFB1B3" fill-rule="nonzero"></path>
    </g>
</svg>