<?xml version="1.0" encoding="UTF-8"?>
<svg width="14px" height="14px" viewBox="0 0 14 14" version="1.1" xmlns="http://www.w3.org/2000/svg" xmlns:xlink="http://www.w3.org/1999/xlink">
    <title>目标环境管理@1x</title>
    <defs>
        <path d="M5.35675057,9.07674614 C5.33042465,9.27046148 5.31683575,9.46812057 5.31683575,9.66888889 C5.31683575,11.1234495 6.03011167,12.4148084 7.13270783,13.2256069 L1.28,13.2244444 C1.00385762,13.2244444 0.78,13.0005868 0.78,12.7244444 L0.78,9.57629629 C0.78,9.30015392 1.00385762,9.07629629 1.28,9.07629629 L5.35675057,9.07674614 Z M10.619659,6.22444444 C11.011769,6.32444753 11.3782321,6.4885924 11.7072115,6.70504379 C11.5958628,6.85489406 11.5302731,7.04043399 11.5302731,7.24129125 C11.5302731,7.73998494 11.9345959,8.14425605 12.4333533,8.14425605 C12.606101,8.14425605 12.76752,8.09575865 12.9047347,8.01163798 C13.0428336,8.26646669 13.1509434,8.5405942 13.2244444,8.82855987 C12.7783478,8.88370175 12.4333533,9.26378935 12.4333533,9.72444444 L12.4361847,9.79647429 C12.4699486,10.2242086 12.8018266,10.5680893 13.2244444,10.620329 C13.1509434,10.9082947 13.0428336,11.1824222 12.9047347,11.4372509 C12.76752,11.3531302 12.606101,11.3046328 12.4333533,11.3046328 C11.9345959,11.3046328 11.5302731,11.7089039 11.5302731,12.2075976 C11.5302731,12.4084549 11.5958628,12.5939948 11.7072115,12.7438451 C11.4193545,12.93324 11.1027991,13.0825878 10.7654749,13.1839597 L10.619659,13.2244444 L10.6174013,13.2028701 C10.5528993,12.7674472 10.1775286,12.4333388 9.72411284,12.4333388 C9.26350491,12.4333388 8.88343768,12.7781305 8.82811381,13.2243289 C8.43627216,13.1243399 8.07004951,12.9602949 7.74143072,12.7439727 C7.85236284,12.5939948 7.91795252,12.4084549 7.91795252,12.2075976 C7.91795252,11.7089039 7.51362976,11.3046328 7.01487236,11.3046328 C6.84200758,11.3046328 6.68048679,11.353196 6.54341955,11.4380212 C6.40539202,11.1824222 6.29728225,10.9082947 6.22444444,10.6204522 C6.64658437,10.5679301 6.97829475,10.2240964 7.01204227,9.79645791 L7.01487236,9.72444444 C7.01487236,9.26389535 6.67003659,8.88387668 6.22444444,8.82843664 C6.29728225,8.5405942 6.40539202,8.26646669 6.54341955,8.0108677 C6.68048679,8.09569287 6.84200758,8.14425605 7.01487236,8.14425605 C7.51362976,8.14425605 7.91795252,7.73998494 7.91795252,7.24129125 C7.91795252,7.04043399 7.85236284,6.85489406 7.74143072,6.70491613 C8.07004951,6.48859392 8.43627216,6.32454899 8.82811381,6.22455997 C8.88343768,6.67075833 9.26350491,7.01555005 9.72411284,7.01555005 C10.1775286,7.01555005 10.5528993,6.68144169 10.6174013,6.24601877 L10.619659,6.22444444 Z M9.72411284,8.36999725 C8.97597674,8.36999725 8.3694926,8.97640391 8.3694926,9.72444444 C8.3694926,10.472485 8.97597674,11.0788916 9.72411284,11.0788916 C10.4722489,11.0788916 11.0787331,10.472485 11.0787331,9.72444444 C11.0787331,8.97640391 10.4722489,8.36999725 9.72411284,8.36999725 Z M11.1684058,4.92814815 C11.4445482,4.92814815 11.6684058,5.15200577 11.6684058,5.42814815 L11.668037,5.59410321 C11.112406,5.3563394 10.4987618,5.22444444 9.8536715,5.22444444 C7.93523497,5.22444444 6.29491109,6.39093714 5.63145604,8.03939631 L1.28,8.03925926 C1.00385762,8.03925926 0.78,7.81540163 0.78,7.53925926 L0.78,5.42814815 C0.78,5.15200577 1.00385762,4.92814815 1.28,4.92814815 L11.1684058,4.92814815 Z M2.89719002,5.44666666 C2.31254414,5.44666666 1.83859501,5.91096396 1.83859501,6.4837037 C1.83859501,7.05644344 2.31254414,7.52074074 2.89719002,7.52074074 C3.4818359,7.52074074 3.95578502,7.05644344 3.95578502,6.4837037 C3.95578502,5.91096396 3.4818359,5.44666666 2.89719002,5.44666666 Z M11.1684058,0.78 C11.4445482,0.78 11.6684058,1.00385762 11.6684058,1.28 L11.6684058,3.39111111 C11.6684058,3.66725348 11.4445482,3.89111111 11.1684058,3.89111111 L1.28,3.89111111 C1.00385762,3.89111111 0.78,3.66725348 0.78,3.39111111 L0.78,1.28 C0.78,1.00385762 1.00385762,0.78 1.28,0.78 L11.1684058,0.78 Z M2.89719002,1.29851852 C2.31254414,1.29851852 1.83859501,1.76281581 1.83859501,2.33555555 C1.83859501,2.90829529 2.31254414,3.37259259 2.89719002,3.37259259 C3.4818359,3.37259259 3.95578502,2.90829529 3.95578502,2.33555555 C3.95578502,1.76281581 3.4818359,1.29851852 2.89719002,1.29851852 Z" id="path-1"></path>
    </defs>
    <g id="Profiling分析模块" stroke="none" stroke-width="1" fill="none" fill-rule="evenodd">
        <g id="画板" transform="translate(-25.000000, -22.000000)">
            <g id="目标环境管理" transform="translate(25.000000, 22.000000)">
                <rect id="矩形" x="0" y="0" width="14" height="14"></rect>
                <mask id="mask-2" fill="white">
                    <use xlink:href="#path-1"></use>
                </mask>
                <use id="path-2" fill="#AFB1B3" xlink:href="#path-1"></use>
            </g>
        </g>
    </g>
</svg>