<?xml version="1.0" encoding="UTF-8"?>
<svg width="12px" height="12px" viewBox="0 0 12 12" version="1.1" xmlns="http://www.w3.org/2000/svg" xmlns:xlink="http://www.w3.org/1999/xlink">
    <title>IntelliJ/icon/14/目标环境列表@1x</title>
    <defs>
        <path d="M1.6,8.4 C1.87614237,8.4 2.1,8.62385763 2.1,8.9 L2.1,10 C2.1,10.2761424 1.87614237,10.5 1.6,10.5 L0.5,10.5 C0.223857625,10.5 6.366357e-13,10.2761424 6.36601882e-13,10 L6.36601882e-13,8.9 C6.36568065e-13,8.62385763 0.223857625,8.4 0.5,8.4 L1.6,8.4 Z M10,8.4 C10.2761424,8.4 10.5,8.62385763 10.5,8.9 L10.5,10 C10.5,10.2761424 10.2761424,10.5 10,10.5 L4,10.5 C3.72385763,10.5 3.5,10.2761424 3.5,10 L3.5,8.9 C3.5,8.62385763 3.72385763,8.4 4,8.4 L10,8.4 Z M1.6,4.2 C1.87614237,4.2 2.1,4.42385763 2.1,4.7 L2.1,5.8 C2.1,6.07614237 1.87614237,6.3 1.6,6.3 L0.5,6.3 C0.223857625,6.3 6.366357e-13,6.07614237 6.36601882e-13,5.8 L6.36601882e-13,4.7 C6.36568065e-13,4.42385763 0.223857625,4.2 0.5,4.2 L1.6,4.2 Z M10,4.2 C10.2761424,4.2 10.5,4.42385763 10.5,4.7 L10.5,5.8 C10.5,6.07614237 10.2761424,6.3 10,6.3 L4,6.3 C3.72385763,6.3 3.5,6.07614237 3.5,5.8 L3.5,4.7 C3.5,4.42385763 3.72385763,4.2 4,4.2 L10,4.2 Z M1.6,6.10622664e-16 C1.87614237,5.59896132e-16 2.1,0.223857625 2.1,0.5 L2.1,1.6 C2.1,1.87614237 1.87614237,2.1 1.6,2.1 L0.5,2.1 C0.223857625,2.1 6.366357e-13,1.87614237 6.36601882e-13,1.6 L6.36601882e-13,0.5 C6.36568065e-13,0.223857625 0.223857625,6.61349195e-16 0.5,6.10622664e-16 L1.6,6.10622664e-16 Z M10,6.10622664e-16 C10.2761424,1.05042353e-15 10.5,0.223857625 10.5,0.5 L10.5,1.6 C10.5,1.87614237 10.2761424,2.1 10,2.1 L4,2.1 C3.72385763,2.1 3.5,1.87614237 3.5,1.6 L3.5,0.5 C3.5,0.223857625 3.72385763,6.61349195e-16 4,6.10622664e-16 L10,6.10622664e-16 Z" id="path-1"></path>
        <rect id="path-3" x="0" y="0" width="15.75" height="15.75"></rect>
    </defs>
    <g id="控件" stroke="none" stroke-width="1" fill="none" fill-rule="evenodd">
        <g id="复用模块/工具栏/切换Java分析/正常-管理员-滚动条" transform="translate(-35.000000, -70.000000)">
            <g id="编组备份-6" transform="translate(0.000000, 64.000000)">
                <g id="编组-10" transform="translate(8.000000, 2.000000)">
                    <g id="编组" transform="translate(26.000000, 3.000000)">
                        <g id="编组" transform="translate(1.750000, 1.750000)">
                            <mask id="mask-2" fill="white">
                                <use xlink:href="#path-1"></use>
                            </mask>
                            <use id="形状结合" fill="#888888" xlink:href="#path-1"></use>
                            <g mask="url(#mask-2)" id="4.图标色/通过#499C54">
                                <g transform="translate(-2.625000, -2.625000)">
                                    <mask id="mask-4" fill="white">
                                        <use xlink:href="#path-3"></use>
                                    </mask>
                                    <use id="4.图标色/默认#AFB1B3" fill="#AFB1B3" xlink:href="#path-3"></use>
                                </g>
                            </g>
                        </g>
                    </g>
                </g>
            </g>
        </g>
    </g>
</svg>