<?xml version="1.0" encoding="UTF-8"?>
<svg width="12px" height="12px" viewBox="0 0 12 12" version="1.1" xmlns="http://www.w3.org/2000/svg" xmlns:xlink="http://www.w3.org/1999/xlink">
    <title>IntelliJ/icon/14/物理服务器-离线@1x</title>
    <defs>
        <path d="M12.5,9 C12.7761424,9 13,9.22385763 13,9.5 L13,12.5 C13,12.7761424 12.7761424,13 12.5,13 L1.5,13 C1.22385763,13 1,12.7761424 1,12.5 L1,9.5 C1,9.22385763 1.22385763,9 1.5,9 L12.5,9 Z M12.5,5 C12.7761424,5 13,5.22385763 13,5.5 L13,7.5 C13,7.77614237 12.7761424,8 12.5,8 L1.5,8 C1.22385763,8 1,7.77614237 1,7.5 L1,5.5 C1,5.22385763 1.22385763,5 1.5,5 L12.5,5 Z M3,5.5 C2.44771525,5.5 2,5.94771525 2,6.5 C2,7.05228475 2.44771525,7.5 3,7.5 C3.55228475,7.5 4,7.05228475 4,6.5 C4,5.94771525 3.55228475,5.5 3,5.5 Z M12.5,1 C12.7761424,1 13,1.22385763 13,1.5 L13,3.5 C13,3.77614237 12.7761424,4 12.5,4 L1.5,4 C1.22385763,4 1,3.77614237 1,3.5 L1,1.5 C1,1.22385763 1.22385763,1 1.5,1 L12.5,1 Z M3,1.5 C2.44771525,1.5 2,1.94771525 2,2.5 C2,3.05228475 2.44771525,3.5 3,3.5 C3.55228475,3.5 4,3.05228475 4,2.5 C4,1.94771525 3.55228475,1.5 3,1.5 Z" id="path-1"></path>
    </defs>
    <g id="控件" stroke="none" stroke-width="1" fill="none" fill-rule="evenodd">
        <g id="复用模块/工具栏/切换Java分析/正常-管理员-滚动条" transform="translate(-58.000000, -166.000000)">
            <g id="编组备份-14" transform="translate(0.000000, 160.000000)">
                <g id="编组-10" transform="translate(34.000000, 2.000000)">
                    <g id="IntelliJ/icon/14/状态点" transform="translate(23.000000, 3.000000)">
                        <mask id="mask-2" fill="white">
                            <use xlink:href="#path-1"></use>
                        </mask>
                        <use id="形状结合" fill="#979797" xlink:href="#path-1"></use>
                        <g id="编组" mask="url(#mask-2)" fill="#D24444">
                            <g id="4.图标色/通过#499C54">
                                <rect id="4.图标色/报错#D24444" x="0" y="0" width="14" height="14"></rect>
                            </g>
                        </g>
                    </g>
                </g>
            </g>
        </g>
    </g>
</svg>