<?xml version="1.0" encoding="UTF-8"?>
<svg width="12px" height="12px" viewBox="0 0 12 12" version="1.1" xmlns="http://www.w3.org/2000/svg" xmlns:xlink="http://www.w3.org/1999/xlink">
    <title>IntelliJ/icon/14/容器服务器-离线@1x</title>
    <defs>
        <path d="M7.24147995,1.06614703 L12.2414799,3.82389296 C12.4009631,3.91185575 12.5,4.07958148 12.5,4.26171419 L12.5,9.73828581 C12.5,9.92041852 12.4009631,10.0881442 12.2414799,10.176107 L7.24147995,12.933853 C7.09116694,13.016758 6.90883306,13.016758 6.75852005,12.933853 L1.75852005,10.176107 C1.59903692,10.0881442 1.5,9.92041852 1.5,9.73828581 L1.5,4.26171419 C1.5,4.07958148 1.59903692,3.91185575 1.75852005,3.82389296 L6.75852005,1.06614703 C6.90883306,0.983242013 7.09116694,0.983242013 7.24147995,1.06614703 Z M7.18893665,1.87967176 C7.04224051,1.80266751 6.86692582,1.80333013 6.72081596,1.88144108 L6.72081596,1.88144108 L2.8454451,3.95323066 C2.75666685,4.00069189 2.68428244,4.07384606 2.63776296,4.16312139 C2.510156,4.40801132 2.60523263,4.70997971 2.85012256,4.83758666 L2.85012256,4.83758666 L6.76894716,6.87960325 C6.91374308,6.95505334 7.08625692,6.95505334 7.23105284,6.87960325 L7.23105284,6.87960325 L11.1421304,4.84162348 C11.2325488,4.79450836 11.3064026,4.72087721 11.3537905,4.63060144 C11.4821361,4.38609786 11.3879715,4.08384383 11.143468,3.95549816 L11.143468,3.95549816 Z" id="path-1"></path>
    </defs>
    <g id="控件" stroke="none" stroke-width="1" fill="none" fill-rule="evenodd">
        <g id="复用模块/工具栏/切换Java分析/正常-管理员-滚动条" transform="translate(-58.000000, -142.000000)">
            <g id="编组备份-13" transform="translate(0.000000, 136.000000)">
                <g id="编组-10" transform="translate(34.000000, 2.000000)">
                    <g id="IntelliJ/icon/14/状态点备份" transform="translate(23.000000, 3.000000)">
                        <mask id="mask-2" fill="white">
                            <use xlink:href="#path-1"></use>
                        </mask>
                        <use id="形状结合" fill="#979797" xlink:href="#path-1"></use>
                        <g id="编组" mask="url(#mask-2)" fill="#D24444">
                            <g id="4.图标色/通过#499C54">
                                <rect id="4.图标色/报错#D24444" x="0" y="0" width="14" height="14"></rect>
                            </g>
                        </g>
                    </g>
                </g>
            </g>
        </g>
    </g>
</svg>