<?xml version="1.0" encoding="UTF-8"?>
<svg width="128px" height="128px" viewBox="0 0 128 128" version="1.1" xmlns="http://www.w3.org/2000/svg" xmlns:xlink="http://www.w3.org/1999/xlink">
    <title>性能分析</title>
    <g id="页面-1" stroke="none" stroke-width="1" fill="none" fill-rule="evenodd">
        <g id="画板" transform="translate(-583.000000, -97.000000)">
            <rect fill="#8C8C8C" x="0" y="0" width="1270" height="1154"></rect>
            <g id="编组" transform="translate(583.000000, 97.000000)">
                <polygon id="Fill-1" fill="#FFFFFF" points="0 128 128 128 128 0 0 0"></polygon>
                <polygon id="Fill-4" fill="#000000" points="68.2646 70.9409 58.8436 69.3329 57.3486 68.2349 46.3156 46.6529 49.3226 44.0009 69.3586 57.6419 70.2616 59.2619 70.6806 68.8099"></polygon>
                <g transform="translate(20.799400, 20.800100)">
                    <path d="M52.914,85.299 C49.791,86.019 46.539,86.4 43.201,86.4 C19.38,86.4 0,67.021 0,43.2 C0,19.379 19.38,0 43.201,0 C62.26,0 78.476,12.406 84.197,29.567 L79.537,31.976 C74.737,16.469 60.263,5.174 43.201,5.174 C22.233,5.174 5.174,22.232 5.174,43.2 C5.174,64.168 22.233,81.226 43.201,81.226 C44.469,81.226 45.723,81.164 46.959,81.042 L52.914,85.299 Z" id="Fill-5" fill="#000000"></path>
                    <polygon id="Fill-7" fill="#CF0D18" points="47.7773 57.7087 45.4803 64.1367 35.0733 62.3717 47.3473 71.1447 91.9623 34.8717"></polygon>
                    <polygon id="Fill-9" fill="#DADADA" points="49.246 72.5012 76.468 91.9612 64.93 73.3442 88.785 40.0512"></polygon>
                </g>
            </g>
        </g>
    </g>
</svg>