<?xml version="1.0" encoding="UTF-8"?>
<svg width="12px" height="12px" viewBox="0 0 12 12" version="1.1" xmlns="http://www.w3.org/2000/svg" xmlns:xlink="http://www.w3.org/1999/xlink">
    <title>编组 22</title>
    <g id="页面-1" stroke="none" stroke-width="1" fill="none" fill-rule="evenodd">
        <g id="编组-22">
            <rect id="矩形" x="0" y="0" width="12" height="12"></rect>
            <path d="M7.84314575,3 C8.11928813,3 8.34314575,3.22385763 8.34314575,3.5 C8.34314575,3.74545989 8.16627059,3.94960837 7.93302138,3.99194433 L7.84314575,4 L2.99927202,3.99982541 L3,8.84314575 C3,9.08860564 2.82312484,9.29275412 2.58987563,9.33509008 L2.5,9.34314575 C2.25454011,9.34314575 2.05039163,9.16627059 2.00805567,8.93302138 L2,8.84314575 L2,3.97826087 C2,3.47657364 2.37764801,3.06309082 2.86417499,3.00658148 L2.97826087,3 L7.84314575,3 Z" id="路径" fill="#0067FF" fill-rule="nonzero" transform="translate(5.171573, 6.171573) scale(1, -1) rotate(135.000000) translate(-5.171573, -6.171573) "></path>
        </g>
    </g>
</svg>