<?xml version="1.0" encoding="UTF-8"?>
<svg width="16px" height="16px" viewBox="0 0 16 16" version="1.1" xmlns="http://www.w3.org/2000/svg" xmlns:xlink="http://www.w3.org/1999/xlink">
    <title>软件包重构</title>
    <g id="软件包重构" stroke="none" stroke-width="1" fill="none" fill-rule="evenodd">
        <path d="M12.375,7.625 L12.375,10.25 L15,10.25 L15,12 L12.375,12 L12.375,14.625 L10.625,14.625 L10.625,12 L8,12 L8,10.25 L10.625,10.25 L10.625,7.625 L12.375,7.625 Z M4.75696601,1.5 C5.13573807,1.5 5.48200119,1.71400238 5.6513932,2.0527864 L7.125,5 L13.25,5 C13.6960761,5 14.0641892,5.33379954 14.1181825,5.76524186 L14.125,5.875 L8.875,5.875 L8.875,8.5 L6.25,8.5 L6.25,13.75 L2,13.75 C1.44771525,13.75 1,13.3022847 1,12.75 L1,2.5 C1,1.94771525 1.44771525,1.5 2,1.5 L4.75696601,1.5 Z M13.125,2.375 C13.6772847,2.375 14.125,2.82271525 14.125,3.375 L14.125,4.125 L8,4.125 L7.125,2.375 L13.125,2.375 Z" id="形状结合" fill="#7E7E7E"></path>
    </g>
</svg>