<?xml version="1.0" encoding="UTF-8"?>
<svg width="16px" height="16px" viewBox="0 0 16 16" version="1.1" xmlns="http://www.w3.org/2000/svg" xmlns:xlink="http://www.w3.org/1999/xlink">
    <title>增强功能</title>
    <g id="增强功能" stroke="none" stroke-width="1" fill="none" fill-rule="evenodd">
        <path d="M8,1 C10.625,1.875 13.25,3.1875 15,4 C15,6.50763889 14.5245177,8.72998843 13.6150259,10.5218944 L12.921,9.827 L12.9648482,9.70976003 L13.0508845,9.4355222 C13.1818059,8.97413059 13.25,8.49185071 13.25,8 C13.25,5.10050506 10.8994949,2.75 8,2.75 C5.10050506,2.75 2.75,5.10050506 2.75,8 C2.75,10.8994949 5.10050506,13.25 8,13.25 L8,13.25 L8.25205098,13.2440153 L8.55180287,13.2211941 C8.94926081,13.179508 9.33734838,13.093044 9.70976003,12.9648482 L9.70976003,12.9648482 L9.827,12.921 L10.7453109,13.8398471 C9.93679103,14.3798835 9.0197479,14.7733894 8,15 C3.5,14 1,9.75 1,4 C3.1875,2.75 5.375,1.875 8,1 Z" id="形状结合" fill="#7E7E7E"></path>
        <path d="M8,4.5 C9.93299662,4.5 11.5,6.06700338 11.5,8 C11.5,8.80884256 11.2256306,9.5536027 10.7648841,10.146288 L12.2468592,11.6281408 C12.4177136,11.7989952 12.4177136,12.0760048 12.2468592,12.2468592 C12.0949887,12.3987298 11.8592423,12.4156043 11.6887327,12.2974827 L11.6281408,12.2468592 L10.146288,10.7648841 C9.5536027,11.2256306 8.80884256,11.5 8,11.5 C6.06700338,11.5 4.5,9.93299662 4.5,8 C4.5,6.06700338 6.06700338,4.5 8,4.5 Z M8,5.375 C6.55025253,5.375 5.375,6.55025253 5.375,8 C5.375,9.44974747 6.55025253,10.625 8,10.625 C9.44974747,10.625 10.625,9.44974747 10.625,8 C10.625,6.55025253 9.44974747,5.375 8,5.375 Z" id="形状结合" fill="#7E7E7E"></path>
    </g>
</svg>