<?xml version="1.0" encoding="UTF-8"?>
<svg width="16px" height="16px" viewBox="0 0 16 16" version="1.1" xmlns="http://www.w3.org/2000/svg" xmlns:xlink="http://www.w3.org/1999/xlink">
    <title>软件迁移评估</title>
    <g id="软件迁移评估" stroke="none" stroke-width="1" fill="none" fill-rule="evenodd">
        <g id="编组" transform="translate(1.000000, 1.000000)" fill="#AFB1B3" fill-rule="nonzero">
            <path d="M11.2438735,-1.47449227e-15 C11.5200159,-9.32742064e-16 11.7438735,0.223857625 11.7438735,0.5 C11.7438735,0.632608245 11.6911951,0.759785201 11.5974269,0.853553391 L0.853553391,11.5974269 C0.658291245,11.792689 0.341708755,11.792689 0.146446609,11.5974269 C0.0526784202,11.5036587 -1.37571137e-15,11.3764818 -1.47449227e-15,11.2438735 L-1.47449227e-15,0.5 C-1.61933226e-15,0.223857625 0.223857625,-1.42376574e-15 0.5,-1.47449227e-15 L11.2438735,-1.47449227e-15 Z M8.59412595,1.36665829 C8.43204561,1.20457794 8.16926145,1.20457794 8.00718111,1.36665829 L8.00718111,1.36665829 L4.94137905,4.43254898 L3.56928102,3.40326795 L3.50700514,3.36457595 C3.33496427,3.27768813 3.12065295,3.32042822 2.99617534,3.47602523 L2.99617534,3.47602523 L1.33604463,5.55118861 L1.29466219,5.61362066 C1.20115467,5.78675909 1.24176159,6.00726333 1.40086185,6.13454354 L1.40086185,6.13454354 L1.4632939,6.17592599 C1.63643233,6.26943351 1.85693657,6.22882659 1.98421678,6.06972633 L1.98421678,6.06972633 L3.39330716,4.30886925 L4.73137251,5.31241826 L4.79613245,5.35233179 C4.95307784,5.43020979 5.14607371,5.40165537 5.27386454,5.27386454 L5.27386454,5.27386454 L8.59412595,1.95360313 L8.64214975,1.89612285 C8.7542053,1.73436956 8.73819736,1.5107297 8.59412595,1.36665829 Z" id="形状结合"></path>
            <path d="M9.91430348,12.7450478 L8.76376225,14.4719706 C8.73336739,14.5175629 8.69424519,14.5566851 8.6486529,14.58708 C8.47912452,14.7000989 8.25668818,14.6719366 8.12005193,14.5303346 L8.07310613,14.4719706 L6.92230348,12.7450478 L9.91430348,12.7450478 Z M10.0785649,6.10544965 L10.0785649,11.6697013 L6.75830348,11.6697013 L6.75830348,6.10544965 L10.0785649,6.10544965 Z M9.66353222,3.36904776 C9.89274844,3.36904776 10.0785649,3.55486422 10.0785649,3.78408044 L10.0785649,5.02917846 L6.75830348,5.02917846 L6.75830348,3.78408044 C6.75830348,3.55486422 6.94411994,3.36904776 7.17333616,3.36904776 L9.66353222,3.36904776 Z" id="形状结合" transform="translate(8.418434, 9.012938) rotate(45.000000) translate(-8.418434, -9.012938) "></path>
            <path d="M13.2810456,9.54575156 C13.4847934,9.54575156 13.65425,9.6925695 13.6893916,9.88618159 L13.6960783,9.96078424 L13.6960783,12.4509803 C13.6960783,12.654728 13.5492604,12.8241846 13.3556483,12.8593262 L13.2810456,12.866013 L10.7908496,12.866013 C10.5616334,12.866013 10.3758169,12.6801965 10.3758169,12.4509803 C10.3758169,12.2472325 10.5226349,12.077776 10.7162469,12.0426343 L10.7908496,12.0359476 L12.866013,12.0359476 L12.866013,9.96078424 C12.866013,9.75703649 13.0128309,9.5875799 13.206443,9.55243829 L13.2810456,9.54575156 Z" id="直线-2"></path>
        </g>
    </g>
</svg>