<?xml version="1.0" encoding="UTF-8"?>
<svg width="16px" height="16px" viewBox="0 0 16 16" version="1.1" xmlns="http://www.w3.org/2000/svg" xmlns:xlink="http://www.w3.org/1999/xlink">
    <title>软件迁移评估</title>
    <g id="软件迁移评估" stroke="none" stroke-width="1" fill="none" fill-rule="evenodd">
        <path d="M12.2438735,1 C12.5200159,1 12.7438735,1.22385763 12.7438735,1.5 C12.7438735,1.63260824 12.6911951,1.7597852 12.5974269,1.85355339 L1.85355339,12.5974269 C1.65829124,12.792689 1.34170876,12.792689 1.14644661,12.5974269 C1.05267842,12.5036587 1,12.3764818 1,12.2438735 L1,1.5 C1,1.22385763 1.22385763,1 1.5,1 L12.2438735,1 Z M9.59412595,2.36665829 C9.43204561,2.20457794 9.16926145,2.20457794 9.00718111,2.36665829 L9.00718111,2.36665829 L5.94137905,5.43254898 L4.56928102,4.40326795 L4.50700514,4.36457595 C4.33496427,4.27768813 4.12065295,4.32042822 3.99617534,4.47602523 L3.99617534,4.47602523 L2.33604463,6.55118861 L2.29466219,6.61362066 C2.20115467,6.78675909 2.24176159,7.00726333 2.40086185,7.13454354 L2.40086185,7.13454354 L2.4632939,7.17592599 C2.63643233,7.26943351 2.85693657,7.22882659 2.98421678,7.06972633 L2.98421678,7.06972633 L4.39330716,5.30886925 L5.73137251,6.31241826 L5.79613245,6.35233179 C5.95307784,6.43020979 6.14607371,6.40165537 6.27386454,6.27386454 L6.27386454,6.27386454 L9.59412595,2.95360313 L9.64214975,2.89612285 C9.7542053,2.73436956 9.73819736,2.5107297 9.59412595,2.36665829 Z" id="形状结合" fill="#7E7E7E" fill-rule="nonzero"></path>
        <path d="M10.9143035,13.7450478 L9.76376225,15.4719706 C9.73336739,15.5175629 9.69424519,15.5566851 9.6486529,15.58708 C9.47912452,15.7000989 9.25668818,15.6719366 9.12005193,15.5303346 L9.07310613,15.4719706 L7.92230348,13.7450478 L10.9143035,13.7450478 Z M11.0785649,7.10544965 L11.0785649,12.6697013 L7.75830348,12.6697013 L7.75830348,7.10544965 L11.0785649,7.10544965 Z M10.6635322,4.36904776 C10.8927484,4.36904776 11.0785649,4.55486422 11.0785649,4.78408044 L11.0785649,6.02917846 L7.75830348,6.02917846 L7.75830348,4.78408044 C7.75830348,4.55486422 7.94411994,4.36904776 8.17333616,4.36904776 L10.6635322,4.36904776 Z" id="形状结合" fill="#7E7E7E" fill-rule="nonzero" transform="translate(9.418434, 10.012938) rotate(45.000000) translate(-9.418434, -10.012938) "></path>
        <path d="M14.2810456,10.5457516 C14.4847934,10.5457516 14.65425,10.6925695 14.6893916,10.8861816 L14.6960783,10.9607842 L14.6960783,13.4509803 C14.6960783,13.654728 14.5492604,13.8241846 14.3556483,13.8593262 L14.2810456,13.866013 L11.7908496,13.866013 C11.5616334,13.866013 11.3758169,13.6801965 11.3758169,13.4509803 C11.3758169,13.2472325 11.5226349,13.077776 11.7162469,13.0426343 L11.7908496,13.0359476 L13.866013,13.0359476 L13.866013,10.9607842 C13.866013,10.7570365 14.0128309,10.5875799 14.206443,10.5524383 L14.2810456,10.5457516 Z" id="直线-2" fill="#7E7E7E" fill-rule="nonzero"></path>
    </g>
</svg>