<?xml version="1.0" encoding="UTF-8"?>
<svg width="16px" height="16px" viewBox="0 0 16 16" version="1.1" xmlns="http://www.w3.org/2000/svg" xmlns:xlink="http://www.w3.org/1999/xlink">
    <title>专项软件迁移</title>
    <g id="专项软件迁移" stroke="none" stroke-width="1" fill="none" fill-rule="evenodd">
        <path d="M3.625,1 L3.625,4.85245765 C3.625,5.11035506 3.80187516,5.3248478 4.03512437,5.36932893 L4.125,5.37779279 L10.125,5.37779279 C10.3704599,5.37779279 10.5746084,5.19195531 10.6169443,4.94688731 L10.625,4.85245765 L10.625,1 L11.2927998,1 C11.4254633,1 11.5526886,1.05272223 11.6464659,1.14655944 L13.9786662,3.48024844 C14.0723654,3.57400744 14.125,3.70113604 14.125,3.833689 L14.125,8.636 L12.9426214,7.60128986 C12.5917102,7.29424263 12.1412796,7.125 11.675,7.125 L11.5375244,7.12983334 C10.7255136,7.18713069 10.0525467,7.74805329 9.82907953,8.5021453 L9.7885,8.664125 L6.425,8.66434056 C5.36185186,8.66434056 4.5,9.52619242 4.5,10.5893406 L4.5,12.8643406 L4.50483334,13.0018162 C4.53536838,13.4345549 4.70893616,13.8278043 4.97854816,14.1345759 L2,14.1333784 C1.44771525,14.1333784 1,13.6856631 1,13.1333784 L1,2 C1,1.44771525 1.44771525,1 2,1 L3.625,1 Z M9.75,1 L9.75,4.50223423 L4.5,4.50223423 L4.5,1 L9.75,1 Z M8.5,1.87555856 C8.25454011,1.87555856 8.05039163,2.03042312 8.00805567,2.23464646 L8,2.31333784 L8,3.18889639 L8.00805567,3.26758777 C8.05039163,3.47181111 8.25454011,3.62667567 8.5,3.62667567 C8.74545989,3.62667567 8.94960837,3.47181111 8.99194433,3.26758777 L9,3.18889639 L9,2.31333784 L8.99194433,2.23464646 C8.94960837,2.03042312 8.74545989,1.87555856 8.5,1.87555856 Z" id="形状结合" fill="#AFB1B3"></path>
        <path d="M11.7,8.90509421 C11.7484446,8.90509421 11.7952426,8.92267786 11.8317009,8.95457887 L14.8279825,11.5763252 C14.9111098,11.6490616 14.9195333,11.7754142 14.8467969,11.8585415 C14.84095,11.8652236 14.8346646,11.871509 14.8279825,11.8773559 L11.8317009,14.4991023 C11.7485736,14.5718387 11.6222211,14.5634152 11.5494847,14.4802878 C11.5175836,14.4438295 11.5,14.3970315 11.5,14.3485869 L11.5,13.0393406 L6.45,13.0393406 C6.33954305,13.0393406 6.25,12.9497975 6.25,12.8393406 L6.25,10.6143406 C6.25,10.5038836 6.33954305,10.4143406 6.45,10.4143406 L11.5,10.4143406 L11.5,9.10509421 C11.5,8.99463726 11.5895431,8.90509421 11.7,8.90509421 Z" id="形状结合" fill="#AFB1B3"></path>
    </g>
</svg>