<?xml version="1.0" encoding="UTF-8"?>
<svg width="16px" height="16px" viewBox="0 0 16 16" version="1.1" xmlns="http://www.w3.org/2000/svg" xmlns:xlink="http://www.w3.org/1999/xlink">
    <title>源码迁移</title>
    <g id="源码迁移" stroke="none" stroke-width="1" fill="none" fill-rule="evenodd">
        <g id="编组-3" transform="translate(1.000000, 1.000000)" fill="#AFB1B3">
            <path d="M1.00043054,-2.44249065e-15 L12.1255582,0.00154800173 C12.6777931,0.00174618409 13.1254305,0.44944078 13.1255582,1.00167567 L13.125,7.635 L11.9431796,6.60128986 C11.5922684,6.29424263 11.1418378,6.125 10.6755582,6.125 L10.5380826,6.12983334 C9.72607179,6.18713069 9.0531049,6.74805329 8.82963773,7.5021453 L8.7890582,7.664125 L5.4255582,7.66434056 C4.36241006,7.66434056 3.5005582,8.52619242 3.5005582,9.58934056 L3.5005582,11.8643406 L3.50539154,12.0018162 C3.53582776,12.4331545 3.70837245,12.8252586 3.97649179,13.1315948 L1.000558,13.13274 C0.448273767,13.1337307 0.00027280861,12.6863013 -7.97429673e-05,12.1340167 L0.000558200771,1 C0.000430538675,0.44771525 0.448145789,-2.34103759e-15 1.00043054,-2.44249065e-15 Z M3.25983074,0.947195568 L3.19119898,1.00325716 L1.00369898,3.19075716 L0.953075465,3.25134906 C0.851828426,3.39750017 0.84976216,3.5915803 0.946876666,3.73968769 L1.00369898,3.80947559 L3.19119898,5.99697559 L3.25179089,6.04759911 C3.39794199,6.14884615 3.59202212,6.15091242 3.74012951,6.05379791 L3.80991742,5.99697559 L3.86054094,5.93638369 C3.96178798,5.79023259 3.96385424,5.59615246 3.86673974,5.44804507 L3.80991742,5.37825716 L1.9316832,3.50011638 L3.80991742,1.62197559 L3.86054094,1.56138369 C3.97866248,1.39087407 3.96178798,1.15512772 3.80991742,1.00325716 C3.66041984,0.85375958 3.4296471,0.835072383 3.25983074,0.947195568 Z M7.56619898,1.00325716 C7.41432843,1.15512772 7.39745392,1.39087407 7.51557546,1.56138369 L7.56619898,1.62197559 L9.4444332,3.50011638 L7.56619898,5.37825716 C7.41432843,5.53012772 7.39745392,5.76587407 7.51557546,5.93638369 L7.56619898,5.99697559 C7.71806954,6.14884615 7.95381589,6.16572066 8.12432552,6.04759911 L8.18491742,5.99697559 L10.3724174,3.80947559 C10.524288,3.65760504 10.5411625,3.42185869 10.4230409,3.25134906 L10.3724174,3.19075716 L8.18491742,1.00325716 C8.01406304,0.832402783 7.73705336,0.832402783 7.56619898,1.00325716 Z M6.19260081,1.07973428 L6.15684965,1.15013296 L4.40684965,5.52513296 L4.38418761,5.60076728 C4.34278381,5.80402071 4.45115897,6.01405861 4.65057478,6.09382493 C4.84999059,6.17359125 5.07332287,6.09623634 5.18351559,5.92049847 L5.21926675,5.8500998 L6.96926675,1.4750998 L6.99192879,1.39946547 C7.03333259,1.19621204 6.92495743,0.98617415 6.72554162,0.906407825 C6.52612581,0.826641501 6.30279353,0.903996419 6.19260081,1.07973428 Z" id="形状结合" fill-rule="nonzero"></path>
            <path d="M10.7005582,7.90509421 C10.7490028,7.90509421 10.7958008,7.92267786 10.8322591,7.95457887 L13.8285407,10.5763252 C13.911668,10.6490616 13.9200915,10.7754142 13.8473551,10.8585415 C13.8415082,10.8652236 13.8352228,10.871509 13.8285407,10.8773559 L10.8322591,13.4991023 C10.7491318,13.5718387 10.6227793,13.5634152 10.5500429,13.4802878 C10.5181419,13.4438295 10.5005582,13.3970315 10.5005582,13.3485869 L10.5005582,12.0393406 L5.4505582,12.0393406 C5.34010125,12.0393406 5.2505582,11.9497975 5.2505582,11.8393406 L5.2505582,9.61434056 C5.2505582,9.50388361 5.34010125,9.41434056 5.4505582,9.41434056 L10.5005582,9.41434056 L10.5005582,8.10509421 C10.5005582,7.99463726 10.5901013,7.90509421 10.7005582,7.90509421 Z" id="形状结合"></path>
        </g>
    </g>
</svg>