<?xml version="1.0" encoding="UTF-8"?>
<svg width="16px" height="16px" viewBox="0 0 16 16" version="1.1" xmlns="http://www.w3.org/2000/svg" xmlns:xlink="http://www.w3.org/1999/xlink">
    <title>源码迁移</title>
    <g id="源码迁移" stroke="none" stroke-width="1" fill="none" fill-rule="evenodd">
        <path d="M2.00043054,1 L13.1255582,1.001548 C13.6777931,1.00174618 14.1254305,1.44944078 14.1255582,2.00167567 L14.125,8.635 L12.9431796,7.60128986 C12.5922684,7.29424263 12.1418378,7.125 11.6755582,7.125 L11.5380826,7.12983334 C10.7260718,7.18713069 10.0531049,7.74805329 9.82963773,8.5021453 L9.7890582,8.664125 L6.4255582,8.66434056 C5.36241006,8.66434056 4.5005582,9.52619242 4.5005582,10.5893406 L4.5005582,12.8643406 L4.50539154,13.0018162 C4.53582776,13.4331545 4.70837245,13.8252586 4.97649179,14.1315948 L2.000558,14.13274 C1.44827377,14.1337307 1.00027281,13.6863013 0.999920257,13.1340167 L1.0005582,2 C1.00043054,1.44771525 1.44814579,1 2.00043054,1 Z M4.25983074,1.94719557 L4.19119898,2.00325716 L2.00369898,4.19075716 L1.95307546,4.25134906 C1.85182843,4.39750017 1.84976216,4.5915803 1.94687667,4.73968769 L2.00369898,4.80947559 L4.19119898,6.99697559 L4.25179089,7.04759911 C4.39794199,7.14884615 4.59202212,7.15091242 4.74012951,7.05379791 L4.80991742,6.99697559 L4.86054094,6.93638369 C4.96178798,6.79023259 4.96385424,6.59615246 4.86673974,6.44804507 L4.80991742,6.37825716 L2.9316832,4.50011638 L4.80991742,2.62197559 L4.86054094,2.56138369 C4.97866248,2.39087407 4.96178798,2.15512772 4.80991742,2.00325716 C4.66041984,1.85375958 4.4296471,1.83507238 4.25983074,1.94719557 Z M8.56619898,2.00325716 C8.41432843,2.15512772 8.39745392,2.39087407 8.51557546,2.56138369 L8.56619898,2.62197559 L10.4444332,4.50011638 L8.56619898,6.37825716 C8.41432843,6.53012772 8.39745392,6.76587407 8.51557546,6.93638369 L8.56619898,6.99697559 C8.71806954,7.14884615 8.95381589,7.16572066 9.12432552,7.04759911 L9.18491742,6.99697559 L11.3724174,4.80947559 C11.524288,4.65760504 11.5411625,4.42185869 11.4230409,4.25134906 L11.3724174,4.19075716 L9.18491742,2.00325716 C9.01406304,1.83240278 8.73705336,1.83240278 8.56619898,2.00325716 Z M7.19260081,2.07973428 L7.15684965,2.15013296 L5.40684965,6.52513296 L5.38418761,6.60076728 C5.34278381,6.80402071 5.45115897,7.01405861 5.65057478,7.09382493 C5.84999059,7.17359125 6.07332287,7.09623634 6.18351559,6.92049847 L6.21926675,6.8500998 L7.96926675,2.4750998 L7.99192879,2.39946547 C8.03333259,2.19621204 7.92495743,1.98617415 7.72554162,1.90640783 C7.52612581,1.8266415 7.30279353,1.90399642 7.19260081,2.07973428 Z" id="形状结合" fill="#7E7E7E" fill-rule="nonzero"></path>
        <path d="M11.7005582,8.90509421 C11.7490028,8.90509421 11.7958008,8.92267786 11.8322591,8.95457887 L14.8285407,11.5763252 C14.911668,11.6490616 14.9200915,11.7754142 14.8473551,11.8585415 C14.8415082,11.8652236 14.8352228,11.871509 14.8285407,11.8773559 L11.8322591,14.4991023 C11.7491318,14.5718387 11.6227793,14.5634152 11.5500429,14.4802878 C11.5181419,14.4438295 11.5005582,14.3970315 11.5005582,14.3485869 L11.5005582,13.0393406 L6.4505582,13.0393406 C6.34010125,13.0393406 6.2505582,12.9497975 6.2505582,12.8393406 L6.2505582,10.6143406 C6.2505582,10.5038836 6.34010125,10.4143406 6.4505582,10.4143406 L11.5005582,10.4143406 L11.5005582,9.10509421 C11.5005582,8.99463726 11.5901013,8.90509421 11.7005582,8.90509421 Z" id="形状结合" fill="#7E7E7E"></path>
    </g>
</svg>