<?xml version="1.0" encoding="UTF-8"?>
<svg width="18px" height="18px" viewBox="0 0 18 18" version="1.1" xmlns="http://www.w3.org/2000/svg" xmlns:xlink="http://www.w3.org/1999/xlink">
    <title>icon-help</title>
    <defs>
        <path d="M9,0 C13.9705627,0 18,4.02943725 18,9 C18,13.9705627 13.9705627,18 9,18 C4.02943725,18 0,13.9705627 0,9 C0,4.02943725 4.02943725,0 9,0 Z M9,1.6875 C4.96141777,1.6875 1.6875,4.96141777 1.6875,9 C1.6875,13.0385822 4.96141777,16.3125 9,16.3125 C13.0385822,16.3125 16.3125,13.0385822 16.3125,9 C16.3125,4.96141777 13.0385822,1.6875 9,1.6875 Z M9.925,12.54375 C10.0354569,12.54375 10.125,12.6332931 10.125,12.74375 L10.125,14.59375 C10.125,14.7042069 10.0354569,14.79375 9.925,14.79375 L8.075,14.79375 C7.96454305,14.79375 7.875,14.7042069 7.875,14.59375 L7.875,12.74375 C7.875,12.6332931 7.96454305,12.54375 8.075,12.54375 L9.925,12.54375 Z M9.01266633,3.15 C10.1258585,3.15 11.031322,3.45281027 11.7227026,4.06173965 C12.414527,4.67832929 12.76875,5.44527486 12.76875,6.32978604 C12.76875,6.84018741 12.6429241,7.32085671 12.3954483,7.75650049 C12.1589501,8.17532309 11.7197607,8.65873806 11.0578446,9.23415061 C10.6529496,9.58552709 10.3988512,9.83233916 10.2978837,9.96967995 C10.1970752,10.1077039 10.122062,10.2638594 10.0725951,10.4403009 C10.0220398,10.6151135 9.98092274,11.3167171 9.98092274,11.4268911 C9.98092274,11.537065 9.94205443,11.5328146 9.86844274,11.537065 C9.81936828,11.5398987 9.08817015,11.5389254 8.57283375,11.5379617 L8.07397362,11.5370004 C7.99899529,11.5370004 7.96150612,11.5003439 7.96150612,11.4270307 C7.95742718,11.2457214 7.95560584,11.1587528 7.95489805,11.1009802 L7.95450998,11.0414978 C7.95450998,10.5014334 8.03463934,10.0251472 8.19436202,9.62387018 C8.31405179,9.3164427 8.50343155,9.00935372 8.76564816,8.695238 C8.94751504,8.48132313 9.25804312,8.1856962 9.73070707,7.77508307 C10.129904,7.43322518 10.4040884,7.14627836 10.5117733,6.96481645 C10.6093301,6.79359239 10.6581947,6.61021839 10.6581947,6.4142455 C10.6581947,6.03618622 10.5079232,5.70835887 10.1968126,5.41576676 C9.87891899,5.11591142 9.49797779,4.96903155 9.03339304,4.96903155 C8.58295849,4.96903155 8.22082176,5.100668 7.93055786,5.3675197 C7.63364083,5.63793453 7.43352202,6.07927731 7.33216054,6.70676578 L7.33216054,6.70676578 L7.28929941,6.97210195 L7.16535236,7.06592128 L5.29795683,6.85059665 L5.19920529,6.72493921 L5.23426615,6.44330537 C5.36419073,5.39965851 5.76187305,4.58252935 6.42691957,4.00384051 C7.09070057,3.43471114 7.95773374,3.15 9.01266633,3.15 Z" id="path-1"></path>
    </defs>
    <g id="port" stroke="none" stroke-width="1" fill="none" fill-rule="evenodd">
        <g id="8软件迁移" transform="translate(-476.000000, -369.000000)">
            <g id="icon-help" transform="translate(476.000000, 369.000000)">
                <g>
                    <mask id="mask-2" fill="white">
                        <use xlink:href="#path-1"></use>
                    </mask>
                    <use id="形状结合" fill="#6C7280" fill-rule="nonzero" xlink:href="#path-1"></use>
                    <rect id="换色" fill="#F7FAFF" mask="url(#mask-2)" x="0" y="0" width="18" height="18"></rect>
                </g>
            </g>
        </g>
    </g>
</svg>