<?xml version="1.0" encoding="UTF-8"?>
<svg width="16px" height="16px" viewBox="0 0 16 16" version="1.1" xmlns="http://www.w3.org/2000/svg" xmlns:xlink="http://www.w3.org/1999/xlink">
    <title>icon/16/查看密码</title>
    <g id="icon/16/查看密码" stroke="none" stroke-width="1" fill="none" fill-rule="evenodd">
        <path d="M8,3 C10.5751269,3 12.9229137,4.7033783 14.6955155,7.50140669 C14.7475423,7.58353032 14.8533978,7.75154096 14.8533978,8.05862257 C14.8533978,8.36570419 14.6592011,8.55596045 14.5902293,8.66182776 C12.8304463,11.3629859 10.5244646,13 8,13 C5.44138761,13 3.10720885,11.3183995 1.33865895,8.55229014 C1.30127742,8.49382337 1.14423521,8.28219987 1.1320144,8 C1.11979358,7.71780013 1.26337274,7.56714946 1.29390346,7.51880799 C3.06773825,4.71016799 5.41974594,3 8,3 Z M8,4.2 C6.05643754,4.2 4.14097761,5.4506658 2.56849668,7.76247201 C2.47251401,7.90631458 2.47240921,8.09375526 2.56823097,8.23770508 L2.56846141,8.23805126 C4.08054708,10.4605432 5.90969059,11.702234 7.77589544,11.794461 L8,11.8 C9.94356246,11.8 11.8590224,10.5493342 13.4315033,8.23752799 L13.4321925,8.23648429 C13.5114092,8.11651084 13.5244332,7.96675014 13.471333,7.83699952 L13.4315386,7.76194874 C11.9194529,5.5394568 10.0903094,4.29776598 8.22410456,4.20553902 L8,4.2 Z M8,6.5 C8.82842712,6.5 9.5,7.17157288 9.5,8 C9.5,8.82842712 8.82842712,9.5 8,9.5 C7.17157288,9.5 6.5,8.82842712 6.5,8 C6.5,7.17157288 7.17157288,6.5 8,6.5 Z" id="形状结合" fill="#979797"></path>
    </g>
</svg>