<?xml version="1.0" encoding="UTF-8"?>
<svg width="16px" height="16px" viewBox="0 0 16 16" version="1.1" xmlns="http://www.w3.org/2000/svg" xmlns:xlink="http://www.w3.org/1999/xlink">
    <title>icon/16/隐藏密码</title>
    <g id="icon/16/隐藏密码" stroke="none" stroke-width="1" fill="none" fill-rule="evenodd">
        <path d="M12.4930166,1.10660946 L12.5009396,1.11128134 L12.6603769,1.21122422 C12.8882223,1.35419132 12.9621299,1.65179553 12.8276406,1.88474562 L11.534461,4.12447636 C12.7097569,4.90175236 13.7794453,6.05540205 14.6955155,7.50140669 C14.7475423,7.58353032 14.8533978,7.75154096 14.8533978,8.05862257 C14.8533978,8.36570419 14.6592011,8.55596045 14.5902293,8.66182776 C12.8304463,11.3629859 10.5244646,13 8,13 C7.49742241,13 7.00350417,12.9351186 6.5208311,12.8098811 L5.02235562,15.4043393 C4.88428783,15.6434876 4.57849379,15.7254295 4.33934552,15.5873618 L4.33142253,15.5826899 L4.17198524,15.482747 C3.9441398,15.3397799 3.87023215,15.0421757 4.00472153,14.8092256 L11.8100065,1.28963187 C11.9480743,1.05048359 12.2538683,0.968541672 12.4930166,1.10660946 Z M8,3 C8.52828484,3 9.04700182,3.07168861 9.55314766,3.2098101 L8.92665943,4.29469849 C8.69343447,4.24698259 8.45906325,4.21715056 8.22410456,4.20553902 L8,4.2 C6.05643754,4.2 4.14097761,5.4506658 2.56849668,7.76247201 C2.47251401,7.90631458 2.47240921,8.09375526 2.56823097,8.23770508 L2.56846141,8.23805126 C3.34970568,9.38633876 4.21558677,10.2728069 5.12748721,10.8741934 L4.52661139,11.9155129 C3.34191801,11.1475471 2.26302795,9.99805412 1.33865895,8.55229014 C1.30127742,8.49382337 1.14423521,8.28219987 1.1320144,8 C1.11979358,7.71780013 1.26337274,7.56714946 1.29390346,7.51880799 C3.06773825,4.71016799 5.41974594,3 8,3 Z M10.9328791,5.16607924 L9.80099037,7.12921653 C9.92850189,7.39245528 10,7.687878 10,8 C10,9.05537269 9.18255698,9.91982133 8.14628516,9.9947317 L7.15080124,11.7204835 C7.35843927,11.7593962 7.56693503,11.7841343 7.77589544,11.794461 L8,11.8 C9.94356246,11.8 11.8590224,10.5493342 13.4315033,8.23752799 L13.4321925,8.23648429 C13.5114092,8.11651084 13.5244332,7.96675014 13.471333,7.83699952 L13.4315386,7.76194874 C12.6675527,6.63902793 11.8226281,5.76648665 10.9328791,5.16607924 Z M7.94056455,6.00086624 L6.23904322,8.94898746 C6.08655631,8.66662509 6,8.3434207 6,8 C6,6.9153114 6.86348727,6.03230106 7.94056455,6.00086624 Z" id="形状结合" fill="#979797"></path>
    </g>
</svg>