<?xml version="1.0" encoding="UTF-8"?>
<svg width="16px" height="16px" viewBox="0 0 16 16" version="1.1" xmlns="http://www.w3.org/2000/svg" xmlns:xlink="http://www.w3.org/1999/xlink">
    <title>Icon/12px-下载</title>
    <defs>
        <path d="M12.9628487,8.69409887 C13.3564209,8.69409887 13.6754742,9.01315217 13.6754742,9.40672436 L13.6754742,14.4209793 L2.22171343,14.4209793 L2.22171343,9.40703495 C2.22171343,9.01329123 2.54090579,8.69409887 2.93464952,8.69409887 C3.32839324,8.69409887 3.6475856,9.01329123 3.6475856,9.40703495 L3.6475856,12.9971651 L12.2502233,12.9971651 L12.2502233,9.40672436 C12.2502233,9.01315217 12.5692766,8.69409887 12.9628487,8.69409887 Z M8.20096454,1.62097927 C8.47710692,1.62097927 8.70096454,1.8448369 8.70096454,2.12097927 L8.70110152,8.15118615 L10.6686881,6.18284458 C10.8639502,5.98758243 11.1805327,5.98758243 11.3757949,6.18284458 L11.6810671,6.48811679 C11.8763292,6.68337894 11.8763292,6.99996143 11.6810671,7.19522357 L7.98510449,10.8911862 L6.9727255,9.87880716 L4.28914191,7.19522357 C4.09387977,6.99996143 4.09387977,6.68337894 4.28914191,6.48811679 L4.59441412,6.18284458 C4.78967627,5.98758243 5.10625876,5.98758243 5.30152091,6.18284458 L7.27010152,8.15118615 L7.26924444,2.12097927 C7.26924444,1.8448369 7.49310207,1.62097927 7.76924444,1.62097927 L8.20096454,1.62097927 Z" id="path-1"></path>
    </defs>
    <g id="切图" stroke="none" stroke-width="1" fill="none" fill-rule="evenodd">
        <g id="画板" transform="translate(-12.000000, -18.000000)">
            <g id="Icon/12px-下载" transform="translate(12.000000, 18.000000)">
                <rect id="矩形" fill="#D8D8D8" opacity="0" x="0" y="0" width="16" height="16"></rect>
                <mask id="mask-2" fill="white">
                    <use xlink:href="#path-1"></use>
                </mask>
                <use id="蒙版" fill="#AFB1B3" xlink:href="#path-1"></use>
            </g>
        </g>
    </g>
</svg>