<?xml version="1.0" encoding="UTF-8"?>
<svg width="24px" height="24px" viewBox="0 0 24 24" version="1.1" xmlns="http://www.w3.org/2000/svg">
    <title>IntelliJ_SFW/icon/24/重试下载或上传</title>
    <g id="IntelliJ_SFW/icon/24/重试下载或上传" stroke="none" stroke-width="1" fill="none" fill-rule="evenodd">
        <g id="重试">
            <rect id="Hover" fill-opacity="0" fill="#4C5052" x="0" y="0" width="24" height="24" rx="2"></rect>
            <rect id="BOX" x="5" y="5" width="14" height="14"></rect>
            <path
                    d="M14.6,14 C14.5350889,14 14.4719289,13.9789466 14.42,13.94 C14.2874517,13.8405887 14.2605887,13.6525483 14.36,13.52 L14.36,13.52 L16.76,10.32 C16.7770563,10.2972583 16.7972583,10.2770563 16.82,10.26 C16.9525483,10.1605887 17.1405887,10.1874517 17.24,10.32 L17.24,10.32 L18.0761614,11.4348819 L19.64,13.52 C19.6789466,13.5719289 19.7,13.6350889 19.7,13.7 C19.7,13.8656854 19.5656854,14 19.4,14 L19.4,14 L18,14 L18,19 L6,19 L6,16 L8,16 L8,17 L16,17 L16,14 Z M18,5 L18,9 L16,9 L16,7 L8,7 L8,11 L9.4,11 C9.46491106,11 9.52807115,11.0210534 9.58,11.06 C9.71254834,11.1594113 9.73941125,11.3474517 9.64,11.48 L9.64,11.48 L7.24,14.68 C7.22294373,14.7027417 7.2027417,14.7229437 7.18,14.74 C7.04745166,14.8394113 6.85941125,14.8125483 6.76,14.68 L6.76,14.68 L4.36,11.48 C4.32105336,11.4280711 4.3,11.3649111 4.3,11.3 C4.3,11.1343146 4.43431458,11 4.6,11 L4.6,11 L6,10.999 L6,5 L18,5 Z" id="形状结合" fill="#6E6E6E"></path>
        </g>
    </g>
</svg>