<?xml version="1.0" encoding="UTF-8"?>
<svg width="12px" height="12px" viewBox="0 0 12 12" version="1.1" xmlns="http://www.w3.org/2000/svg" xmlns:xlink="http://www.w3.org/1999/xlink">
    <title>IntelliJ/icon/14/状态点</title>
    <g id="控件" stroke="none" stroke-width="1" fill="none" fill-rule="evenodd">
        <g id="复用模块/工具栏/正常" transform="translate(-61.000000, -166.000000)" fill="#BBBBBB">
            <g id="编组备份-10" transform="translate(0.000000, 160.000000)">
                <g id="编组-10" transform="translate(34.000000, 2.000000)">
                    <g id="形状结合" transform="translate(26.000000, 3.000000)">
                        <path d="M7,1 C10.3137085,1 13,3.6862915 13,7 C13,10.3137085 10.3137085,13 7,13 C3.6862915,13 1,10.3137085 1,7 C1,3.6862915 3.6862915,1 7,1 Z M6.7,3.24691634 C6.31340068,3.24691634 6,3.56031701 6,3.94691634 L6,3.94691634 L6,7.51312542 L6.00639017,7.60811127 C6.05274177,7.9497818 6.34561729,8.21312542 6.7,8.21312542 L6.7,8.21312542 L9.92944897,8.21312542 L10.0244348,8.20673525 C10.3661054,8.16038365 10.629449,7.86750814 10.629449,7.51312542 L10.629449,7.51312542 L10.6230588,7.41813957 C10.5767072,7.07646904 10.2838317,6.81312542 9.92944897,6.81312542 L9.92944897,6.81312542 L7.4,6.814 L7.4,3.94691634 L7.39360983,3.85193048 C7.34725823,3.51025996 7.05438271,3.24691634 6.7,3.24691634 Z"></path>
                    </g>
                </g>
            </g>
        </g>
    </g>
</svg>