<?xml version="1.0" encoding="UTF-8"?>
<svg width="14px" height="14px" viewBox="0 0 14 14" version="1.1" xmlns="http://www.w3.org/2000/svg" xmlns:xlink="http://www.w3.org/1999/xlink">
    <title>icon/通用/tuning/稍后启动任务备份</title>
    <g id="icon/通用/tuning/稍后启动任务备份" stroke="none" stroke-width="1" fill="none" fill-rule="evenodd">
        <path d="M11,1 C11.5522847,1 12,1.44771525 12,2 L12.0010919,5.25644465 C11.531615,5.09037139 11.0263612,5 10.5,5 C8.01471863,5 6,7.01471863 6,9.5 C6,10.9140475 6.65221574,12.1757619 7.67222963,13.0007255 L2,13 C1.44771525,13 1,12.5522847 1,12 L1,2 C1,1.44771525 1.44771525,1 2,1 L11,1 Z M4.5,9 L3.5,9 L3.41012437,9.00805567 C3.17687516,9.05039163 3,9.25454011 3,9.5 C3,9.74545989 3.17687516,9.94960837 3.41012437,9.99194433 L3.5,10 L4.5,10 L4.58987563,9.99194433 C4.82312484,9.94960837 5,9.74545989 5,9.5 C5,9.22385763 4.77614237,9 4.5,9 Z M5.5,6 L3.5,6 L3.41012437,6.00805567 C3.17687516,6.05039163 3,6.25454011 3,6.5 C3,6.74545989 3.17687516,6.94960837 3.41012437,6.99194433 L3.5,7 L5.5,7 L5.58987563,6.99194433 C5.82312484,6.94960837 6,6.74545989 6,6.5 C6,6.22385763 5.77614237,6 5.5,6 Z M9.5,3 L3.5,3 L3.41012437,3.00805567 C3.17687516,3.05039163 3,3.25454011 3,3.5 C3,3.74545989 3.17687516,3.94960837 3.41012437,3.99194433 L3.5,4 L9.5,4 L9.58987563,3.99194433 C9.82312484,3.94960837 10,3.74545989 10,3.5 C10,3.22385763 9.77614237,3 9.5,3 Z" id="形状结合" fill="#AFB1B3"></path>
        <path d="M10.5,6 C12.4329966,6 14,7.56700338 14,9.5 C14,11.4329966 12.4329966,13 10.5,13 C8.56700338,13 7,11.4329966 7,9.5 C7,7.56700338 8.56700338,6 10.5,6 Z M10.5,7 C10.2238576,7 10,7.22385763 10,7.5 L10,7.5 L10,9.5 C10,9.77614237 10.2238576,10 10.5,10 L10.5,10 L12.5,10 C12.7761424,10 13,9.77614237 13,9.5 C13,9.22385763 12.7761424,9 12.5,9 L12.5,9 L11,9 L11,7.5 C11,7.22385763 10.7761424,7 10.5,7 Z" id="形状结合" fill="#AFB1B3"></path>
    </g>
</svg>