<?xml version="1.0" encoding="UTF-8"?>
<svg width="12px" height="12px" viewBox="0 0 12 12" version="1.1" xmlns="http://www.w3.org/2000/svg" xmlns:xlink="http://www.w3.org/1999/xlink">
    <title>IntelliJ/icon/14/分析中@1x</title>
    <g id="控件" stroke="none" stroke-width="1" fill="none" fill-rule="evenodd">
        <g id="复用模块/工具栏/切换Java分析/正常-管理员-滚动条" transform="translate(-58.000000, -214.000000)" fill="#BBBBBB" fill-rule="nonzero">
            <g id="编组备份-8" transform="translate(0.000000, 208.000000)">
                <g id="编组-10" transform="translate(57.000000, 2.000000)">
                    <g id="编组" transform="translate(0.000000, 3.000000)">
                        <g id="编组" transform="translate(1.000000, 1.000000)">
                            <path d="M6,0 C6.31066017,0 6.5625,0.251839828 6.5625,0.5625 L6.5625,3.1875 C6.5625,3.49816017 6.31066017,3.75 6,3.75 C5.68933983,3.75 5.4375,3.49816017 5.4375,3.1875 L5.4375,0.5625 C5.4375,0.251839828 5.68933983,0 6,0 Z" id="路径"></path>
                            <path d="M6,8.25 C6.31066017,8.25 6.5625,8.50183983 6.5625,8.8125 L6.5625,11.4375 C6.5625,11.7481602 6.31066017,12 6,12 C5.68933983,12 5.4375,11.7481602 5.4375,11.4375 L5.4375,8.8125 C5.4375,8.50183983 5.68933983,8.25 6,8.25 Z" id="路径" opacity="0.6"></path>
                            <path d="M0,6 C0,5.68933983 0.251839828,5.4375 0.5625,5.4375 L3.1875,5.4375 C3.49816017,5.4375 3.75,5.68933983 3.75,6 C3.75,6.31066017 3.49816017,6.5625 3.1875,6.5625 L0.5625,6.5625 C0.251839828,6.5625 0,6.31066017 0,6 Z" id="路径"></path>
                            <path d="M8.25,6 C8.25,5.68933983 8.50183983,5.4375 8.8125,5.4375 L11.4375,5.4375 C11.7481602,5.4375 12,5.68933983 12,6 C12,6.31066017 11.7481602,6.5625 11.4375,6.5625 L8.8125,6.5625 C8.50183983,6.5625 8.25,6.31066017 8.25,6 Z" id="路径" opacity="0.3"></path>
                            <path d="M10.2426407,1.75735931 C10.4623106,1.97702923 10.4623106,2.33318453 10.2426407,2.55285444 L8.38648539,4.40900974 C8.16681547,4.62867966 7.81066017,4.62867966 7.59099026,4.40900974 C7.37132034,4.18933983 7.37132034,3.83318453 7.59099026,3.61351461 L9.44714556,1.75735931 C9.66681547,1.5376894 10.0229708,1.5376894 10.2426407,1.75735931 Z" id="路径" opacity="0.2"></path>
                            <path d="M4.40900974,7.59099026 C4.62867966,7.81066017 4.62867966,8.16681547 4.40900974,8.38648539 L2.55285444,10.2426407 C2.33318453,10.4623106 1.97702923,10.4623106 1.75735931,10.2426407 C1.5376894,10.0229708 1.5376894,9.66681547 1.75735931,9.44714556 L3.61351461,7.59099026 C3.83318453,7.37132034 4.18933983,7.37132034 4.40900974,7.59099026 Z" id="路径" opacity="0.8"></path>
                            <path d="M1.75735931,1.75735931 C1.97702923,1.5376894 2.33318453,1.5376894 2.55285444,1.75735931 L4.40900974,3.61351461 C4.62867966,3.83318453 4.62867966,4.18933983 4.40900974,4.40900974 C4.18933983,4.62867966 3.83318453,4.62867966 3.61351461,4.40900974 L1.75735931,2.55285444 C1.5376894,2.33318453 1.5376894,1.97702923 1.75735931,1.75735931 Z" id="路径"></path>
                            <path d="M7.59099026,7.59099026 C7.81066017,7.37132034 8.16681547,7.37132034 8.38648539,7.59099026 L10.2426407,9.44714556 C10.4623106,9.66681547 10.4623106,10.0229708 10.2426407,10.2426407 C10.0229708,10.4623106 9.66681547,10.4623106 9.44714556,10.2426407 L7.59099026,8.38648539 C7.37132034,8.16681547 7.37132034,7.81066017 7.59099026,7.59099026 Z" id="路径" opacity="0.4"></path>
                        </g>
                    </g>
                </g>
            </g>
        </g>
    </g>
</svg>