<?xml version="1.0" encoding="UTF-8"?>
<svg width="12px" height="12px" viewBox="0 0 12 12" version="1.1" xmlns="http://www.w3.org/2000/svg" xmlns:xlink="http://www.w3.org/1999/xlink">
    <title>IntelliJ/icon/14/在线分析@1x</title>
    <defs>
        <path d="M7,1 C10.3147321,1 13,3.68660714 13,7 C13,10.3133929 10.3133929,13 7,13 C3.68660714,13 1,10.3133929 1,7 C1,3.68660714 3.68660714,1 7,1 Z M7,1.85714286 C6.30625,1.85714286 5.63258929,1.99375 4.99776786,2.26160714 C4.38571429,2.52008929 3.83526786,2.89107143 3.3625,3.36383929 C2.88973214,3.83660714 2.51875,4.38705357 2.26026786,4.99910714 C1.99107143,5.63258929 1.85580357,6.30625 1.85580357,7.00133929 C1.85580357,7.69642857 1.99241071,8.37008929 2.26026786,9.00357143 C2.51875,9.615625 2.88973214,10.1660714 3.3625,10.6388393 C3.83526786,11.1116071 4.38571429,11.4825893 4.99776786,11.7410714 C5.63125,12.0102679 6.30491071,12.1455357 7,12.1455357 C7.69508929,12.1455357 8.36875,12.0089286 9.00223214,11.7410714 C9.61428571,11.4825893 10.1647321,11.1116071 10.6375,10.6388393 C11.1102679,10.1660714 11.48125,9.615625 11.7397321,9.00357143 C12.0089286,8.37008929 12.1441964,7.69642857 12.1441964,7.00133929 C12.1441964,6.30625 12.0075893,5.63258929 11.7397321,4.99910714 C11.48125,4.38705357 11.1102679,3.83660714 10.6375,3.36383929 C10.1647321,2.89107143 9.61428571,2.52008929 9.00223214,2.26160714 C8.36875,1.99241071 7.69508929,1.85714286 7,1.85714286 Z M6.99598214,2.57901786 C9.4375,2.57901786 11.415625,4.55714286 11.415625,6.99866071 C11.415625,9.44017857 9.4375,11.4183036 6.99598214,11.4183036 C4.55446429,11.4183036 2.57633929,9.44017857 2.57633929,6.99866071 C2.57633929,4.55714286 4.55446429,2.57901786 6.99598214,2.57901786 Z M6.64148817,4 C6.31941168,4 6.0527733,4.23735871 6.00695538,4.54669375 L6,4.64148817 L6,7.41976415 L6.01033523,7.53507246 C6.05861615,7.80107532 6.27092799,8.00993125 6.53869018,8.0530597 L6.64148817,8.06125232 L8.87851183,8.06125232 L8.99382014,8.05091708 C9.259823,8.00263616 9.46867894,7.79032432 9.51180738,7.52256214 L9.52,7.41976415 L9.50966477,7.30445584 C9.46138385,7.03845299 9.24907201,6.82959705 8.98130982,6.78646861 L8.87851183,6.77827599 L7.28297633,6.77747648 L7.28297633,4.64148817 L7.2726411,4.52617986 C7.21832506,4.22692664 6.95640739,4 6.64148817,4 Z" id="path-1"></path>
        <rect id="path-3" x="0" y="0" width="18" height="18"></rect>
    </defs>
    <g id="控件" stroke="none" stroke-width="1" fill="none" fill-rule="evenodd">
        <g id="复用模块/工具栏/切换Java分析/正常-管理员-滚动条" transform="translate(-35.000000, -190.000000)">
            <g id="编组备份-15" transform="translate(0.000000, 184.000000)">
                <g id="编组-10" transform="translate(8.000000, 2.000000)">
                    <g id="编组" transform="translate(26.000000, 3.000000)">
                        <mask id="mask-2" fill="white">
                            <use xlink:href="#path-1"></use>
                        </mask>
                        <use id="形状结合" fill="#000000" fill-rule="nonzero" xlink:href="#path-1"></use>
                        <g mask="url(#mask-2)">
                            <g transform="translate(-2.000000, -2.000000)">
                                <mask id="mask-4" fill="white">
                                    <use xlink:href="#path-3"></use>
                                </mask>
                                <use id="4.图标色/默认#AFB1B3" fill="#AFB1B3" xlink:href="#path-3"></use>
                            </g>
                        </g>
                    </g>
                </g>
            </g>
        </g>
    </g>
</svg>