<?xml version="1.0" encoding="UTF-8"?>
<svg width="12px" height="12px" viewBox="0 0 12 12" version="1.1" xmlns="http://www.w3.org/2000/svg" xmlns:xlink="http://www.w3.org/1999/xlink">
    <title>IntelliJ/icon/14/数据类型（线程转储）@1x</title>
    <g id="控件" stroke="none" stroke-width="1" fill="none" fill-rule="evenodd">
        <g id="复用模块/工具栏/切换Java分析/正常-管理员-滚动条" transform="translate(-57.000000, -382.000000)" fill="#AFB1B3">
            <g id="编组备份-20" transform="translate(0.000000, 376.000000)">
                <g id="编组-10" transform="translate(32.000000, 2.000000)">
                    <g id="形状结合" transform="translate(24.000000, 3.000000)">
                        <path d="M10,2.6 C10.5522847,2.6 11,3.04771525 11,3.6 L11,10.4518377 C11,11.8028565 9.94859162,12.9083056 8.61938011,12.9945799 L8.45183774,13 L2.4,13 C1.84771525,13 1.4,12.5522847 1.4,12 L1.4,3.6 C1.4,3.04771525 1.84771525,2.6 2.4,2.6 L10,2.6 Z M11.6,1 C12.1522847,1 12.6,1.44771525 12.6,2 L12.6,10.4 C12.6,10.8836014 12.2567181,11.287025 11.8005383,11.379887 L11.8,2.8 C11.8,2.28716416 11.4139598,1.86449284 10.9166211,1.80672773 L10.8,1.8 L3.02016515,1.7992059 C3.11312583,1.34315353 3.51648901,1 4,1 L11.6,1 Z M5.8,5.8 L3.4,5.8 C3.1790861,5.8 3,5.9790861 3,6.2 C3,6.39329966 3.1371128,6.55457492 3.31938605,6.59187342 L3.4,6.6 L5.8,6.6 C6.0209139,6.6 6.2,6.4209139 6.2,6.2 C6.2,5.9790861 6.0209139,5.8 5.8,5.8 Z M9,4.2 L3.4,4.2 C3.1790861,4.2 3,4.3790861 3,4.6 C3,4.79329966 3.1371128,4.95457492 3.31938605,4.99187342 L3.4,5 L9,5 C9.2209139,5 9.4,4.8209139 9.4,4.6 C9.4,4.3790861 9.2209139,4.2 9,4.2 Z"></path>
                    </g>
                </g>
            </g>
        </g>
    </g>
</svg>