<?xml version="1.0" encoding="UTF-8"?>
<svg width="12px" height="12px" viewBox="0 0 12 12" version="1.1" xmlns="http://www.w3.org/2000/svg" xmlns:xlink="http://www.w3.org/1999/xlink">
    <title>IntelliJ/icon/14/数据列表@1x</title>
    <g id="控件" stroke="none" stroke-width="1" fill="none" fill-rule="evenodd">
        <g id="复用模块/工具栏/切换Java分析/正常-管理员-滚动条" transform="translate(-35.000000, -358.000000)" fill="#AFB1B3">
            <g id="编组备份-19" transform="translate(0.000000, 352.000000)">
                <g id="编组-10" transform="translate(8.000000, 2.000000)">
                    <g id="形状结合" transform="translate(26.000000, 3.000000)">
                        <path d="M12.5,8.05294118 C12.7761424,8.05294118 13,8.2767988 13,8.55294118 L13,11.7882353 C13,12.0643777 12.7761424,12.2882353 12.5,12.2882353 L9.26470588,12.2882353 C8.98856351,12.2882353 8.76470588,12.0643777 8.76470588,11.7882353 L8.76470588,8.55294118 C8.76470588,8.2767988 8.98856351,8.05294118 9.26470588,8.05294118 L12.5,8.05294118 Z M6.85294118,10.8764706 C7.12908355,10.8764706 7.35294118,11.1003282 7.35294118,11.3764706 L7.35294118,11.7882353 C7.35294118,12.0643777 7.12908355,12.2882353 6.85294118,12.2882353 L1.5,12.2882353 C1.22385763,12.2882353 1,12.0643777 1,11.7882353 L1,11.3764706 C1,11.1003282 1.22385763,10.8764706 1.5,10.8764706 L6.85294118,10.8764706 Z M6.85294118,8.05294118 C7.12908355,8.05294118 7.35294118,8.2767988 7.35294118,8.55294118 L7.35294118,8.96470588 C7.35294118,9.24084826 7.12908355,9.46470588 6.85294118,9.46470588 L1.5,9.46470588 C1.22385763,9.46470588 1,9.24084826 1,8.96470588 L1,8.55294118 C1,8.2767988 1.22385763,8.05294118 1.5,8.05294118 L6.85294118,8.05294118 Z M12.5,1.7 C12.7761424,1.7 13,1.92385763 13,2.2 L13,5.43529412 C13,5.71143649 12.7761424,5.93529412 12.5,5.93529412 L9.26470588,5.93529412 C8.98856351,5.93529412 8.76470588,5.71143649 8.76470588,5.43529412 L8.76470588,2.2 C8.76470588,1.92385763 8.98856351,1.7 9.26470588,1.7 L12.5,1.7 Z M6.85294118,4.52352941 C7.12908355,4.52352941 7.35294118,4.74738704 7.35294118,5.02352941 L7.35294118,5.43529412 C7.35294118,5.71143649 7.12908355,5.93529412 6.85294118,5.93529412 L1.5,5.93529412 C1.22385763,5.93529412 1,5.71143649 1,5.43529412 L1,5.02352941 C1,4.74738704 1.22385763,4.52352941 1.5,4.52352941 L6.85294118,4.52352941 Z M6.85294118,1.7 C7.12908355,1.7 7.35294118,1.92385763 7.35294118,2.2 L7.35294118,2.61176471 C7.35294118,2.88790708 7.12908355,3.11176471 6.85294118,3.11176471 L1.5,3.11176471 C1.22385763,3.11176471 1,2.88790708 1,2.61176471 L1,2.2 C1,1.92385763 1.22385763,1.7 1.5,1.7 L6.85294118,1.7 Z"></path>
                    </g>
                </g>
            </g>
        </g>
    </g>
</svg>