<?xml version="1.0" encoding="UTF-8"?>
<svg width="11px" height="12px" viewBox="0 0 11 12" version="1.1" xmlns="http://www.w3.org/2000/svg" xmlns:xlink="http://www.w3.org/1999/xlink">
    <title>IntelliJ/icon/14/采样分析@1x</title>
    <defs>
        <path d="M11.4,1 C11.9522847,1 12.4,1.44771525 12.4,2 L12.4,9 L9.4,9 L9.30369333,9.00457772 C8.83559985,9.04930679 8.46166806,9.41672528 8.40690988,9.88182127 L8.4,10 L8.4,13 L3,13 C2.44771525,13 2,12.5522847 2,12 L2,2 C2,1.44771525 2.44771525,1 3,1 L11.4,1 Z M12.194,9.666 L9.066,12.638 L9.06666667,10 L9.07203711,9.94008291 C9.09622909,9.80679765 9.19967618,9.70112417 9.33178899,9.67365185 L9.4,9.66666667 L12.194,9.666 Z M10.3,5.8 L4.1,5.8 C3.82385763,5.8 3.6,6.02385763 3.6,6.3 L3.6,6.3 L3.6,6.9 C3.6,7.17614237 3.82385763,7.4 4.1,7.4 L4.1,7.4 L10.3,7.4 C10.5761424,7.4 10.8,7.17614237 10.8,6.9 L10.8,6.9 L10.8,6.3 C10.8,6.02385763 10.5761424,5.8 10.3,5.8 L10.3,5.8 Z M10.3,2.6 L4.1,2.6 C3.82385763,2.6 3.6,2.82385763 3.6,3.1 L3.6,3.1 L3.6,3.7 C3.6,3.97614237 3.82385763,4.2 4.1,4.2 L4.1,4.2 L10.3,4.2 C10.5761424,4.2 10.8,3.97614237 10.8,3.7 L10.8,3.7 L10.8,3.1 C10.8,2.82385763 10.5761424,2.6 10.3,2.6 L10.3,2.6 Z" id="path-1"></path>
        <rect id="path-3" x="0" y="0" width="18" height="18"></rect>
    </defs>
    <g id="控件" stroke="none" stroke-width="1" fill="none" fill-rule="evenodd">
        <g id="复用模块/工具栏/切换Java分析/正常-管理员-滚动条" transform="translate(-36.000000, -238.000000)">
            <g id="编组备份-16" transform="translate(0.000000, 232.000000)">
                <g id="编组-10" transform="translate(8.000000, 2.000000)">
                    <g id="编组" transform="translate(26.000000, 3.000000)">
                        <mask id="mask-2" fill="white">
                            <use xlink:href="#path-1"></use>
                        </mask>
                        <use id="形状结合备份" fill="#AFB1B3" fill-rule="nonzero" xlink:href="#path-1"></use>
                        <g mask="url(#mask-2)">
                            <g transform="translate(-2.000000, -2.000000)">
                                <mask id="mask-4" fill="white">
                                    <use xlink:href="#path-3"></use>
                                </mask>
                                <use id="4.图标色/默认#AFB1B3" fill="#AFB1B3" xlink:href="#path-3"></use>
                            </g>
                        </g>
                    </g>
                </g>
            </g>
        </g>
    </g>
</svg>