<?xml version="1.0" encoding="UTF-8"?>
<svg width="16px" height="16px" viewBox="0 0 16 16" version="1.1" xmlns="http://www.w3.org/2000/svg" xmlns:xlink="http://www.w3.org/1999/xlink">
    <!-- Generator: Sketch 63.1 (92452) - https://sketch.com -->
    <title>12备份迁移模板备份 2</title>
    <desc>Created with Sketch.</desc>
    <defs>
        <polygon id="path-1" points="2.46153846e-05 0.0245034667 14.3655631 0.0245034667 14.3655631 15.9573333 2.46153846e-05 15.9573333"></polygon>
    </defs>
    <g id="-dep" stroke="none" stroke-width="1" fill="none" fill-rule="evenodd">
        <g id="12备份迁移模板备份-2" transform="translate(-360.000000, -195.000000)">
            <g id="编组-6" transform="translate(360.000000, 195.000000)">
                <g id="编组" transform="translate(1.000000, 0.000000)">
                    <g transform="translate(0.000000, 0.018176)">
                        <mask id="mask-2" fill="white">
                            <use xlink:href="#path-1"></use>
                        </mask>
                        <g id="Clip-2"></g>
                        <path d="M12.4497067,4.0094848 L12.4497067,14.4671275 C12.4497067,14.7421995 12.235799,14.9646635 11.9713067,14.9670528 L2.39424,14.9670528 C2.12978872,14.9670528 1.91588103,14.7446315 1.91358359,14.4695595 L1.91358359,3.01445547 L12.4497067,3.01445547 L12.4497067,4.0094848 Z M4.78853744,2.01699413 L9.57705026,2.01699413 L9.57705026,1.02192213 L4.78853744,1.02192213 L4.78853744,2.01699413 Z M13.8848656,2.01699413 L10.5338092,2.01699413 L10.5338092,0.524386133 C10.5338092,0.2469248 10.3199426,0.0245034667 10.0531118,0.0245034667 L4.31013744,0.0245034667 C4.04564513,0.0245034667 3.83173744,0.2469248 3.83173744,0.5219968 L3.83173744,2.0146048 L0.47838359,2.0146048 C0.213891282,2.0146048 2.46153846e-05,2.23702613 2.46153846e-05,2.5121408 C2.46153846e-05,2.7872128 0.213891282,3.00963413 0.47838359,3.00963413 L0.95678359,3.00963413 L0.95678359,14.9623168 C0.95678359,15.5124181 1.38459897,15.9573461 1.91358359,15.9573461 L12.3875938,15.9573461 C12.9165785,15.9573461 13.3443938,15.5124181 13.3466913,14.9623168 L13.3466913,3.01445547 L13.8848656,3.01445547 L13.8848656,3.01680213 C14.1493579,3.01680213 14.3655631,2.7943808 14.3655631,2.51691947 C14.3655631,2.24184747 14.1516554,2.01699413 13.8848656,2.01699413 L13.8848656,2.01699413 Z" id="Fill-1" fill="#FFFFFF" mask="url(#mask-2)"></path>
                    </g>
                    <path d="M4.31012103,6.268928 C4.57461333,6.268928 4.78852103,6.491392 4.78852103,6.766464 L4.78852103,12.11968 C4.78852103,12.394752 4.57461333,12.6171733 4.31012103,12.6171733 C4.04562872,12.6171733 3.83172103,12.394752 3.83172103,12.11968 L3.83172103,6.76885333 C3.83172103,6.49378133 4.04562872,6.268928 4.31012103,6.268928 M7.18277744,5.273856 C7.44726974,5.273856 7.66117744,5.49632 7.66117744,5.771392 L7.66117744,12.11968 C7.66117744,12.394752 7.44726974,12.6171733 7.18277744,12.6171733 C6.91828513,12.6171733 6.70437744,12.394752 6.70437744,12.11968 L6.70437744,5.771392 C6.70208,5.49632 6.91828513,5.273856 7.18277744,5.273856 M10.0554338,6.268928 C10.3199262,6.268928 10.5338338,6.491392 10.5338338,6.766464 L10.5338338,12.11968 C10.5338338,12.394752 10.3199262,12.6171733 10.0554338,12.6171733 C9.79094154,12.6171733 9.57703385,12.394752 9.57703385,12.11968 L9.57703385,6.76885333 C9.57703385,6.49378133 9.79094154,6.268928 10.0554338,6.268928" id="Fill-3" fill="#FFFFFF"></path>
                </g>
            </g>
        </g>
    </g>
</svg>