<?xml version="1.0" encoding="UTF-8"?>
<svg width="10px" height="10px" viewBox="0 0 10 10" version="1.1" xmlns="http://www.w3.org/2000/svg" xmlns:xlink="http://www.w3.org/1999/xlink">
    <!-- Generator: Sketch 63.1 (92452) - https://sketch.com -->
    <title>编组</title>
    <desc>Created with Sketch.</desc>
    <g id="-dep" stroke="none" stroke-width="1" fill="none" fill-rule="evenodd">
        <g id="12备份迁移模板备份-2" transform="translate(-278.000000, -145.000000)" fill="#FFFFFF">
            <g id="编组" transform="translate(278.000000, 145.000000)">
                <path d="M2.76744767,5.27150993 C2.60465698,4.76819868 2.3023314,4.52978808 1.8139593,4.50329801 C1.1395407,4.55627815 0.790703488,4.98018543 0.74419186,5.82780132 C0.767447674,6.67548344 1.1395407,7.12581457 1.8139593,7.15230464 C2.34884302,7.15230464 2.69768023,6.86091391 2.8139593,6.27813245 L2.39535465,6.11919205 C2.34884302,6.54303311 2.1395407,6.72846358 1.83721512,6.72846358 C1.44186628,6.70203974 1.23256395,6.38409272 1.20930814,5.80131126 C1.23256395,5.2185298 1.44186628,4.92713907 1.83721512,4.90064901 C2.11628488,4.92713907 2.3023314,5.08607947 2.37209884,5.37753642 L2.76744767,5.27150993 Z" id="Fill-1"></path>
                <path d="M3.06975581,6.30466225 C3.18603488,6.88744371 3.51161628,7.15234437 4.09301163,7.15234437 C4.67440698,7.15234437 4.95347674,6.88744371 4.97673256,6.38406623 C4.97673256,6.06618543 4.81394186,5.8542649 4.51161628,5.69539073 L4.09301163,5.53638411 C3.76743023,5.45691391 3.60463953,5.32446358 3.62789535,5.1655894 C3.65115116,4.95366887 3.79068605,4.87413245 4.02324419,4.84770861 C4.30231395,4.84770861 4.46510465,4.98015894 4.51161628,5.27148344 L4.93022093,5.1655894 C4.86045349,4.68876821 4.53487209,4.42386755 3.99998837,4.45035762 C3.48836047,4.47678146 3.2092907,4.71525828 3.18603488,5.13903311 C3.16277907,5.50996026 3.3720814,5.74837086 3.83719767,5.88082119 C3.95347674,5.90731126 4.06975581,5.9337351 4.18603488,5.98671523 C4.44184884,6.06618543 4.55812791,6.19863576 4.53487209,6.38406623 C4.51161628,6.62254305 4.3720814,6.72843709 4.09301163,6.75499338 C3.76743023,6.75499338 3.55812791,6.56956291 3.51161628,6.17221192 L3.06975581,6.30466225 Z" id="Fill-3"></path>
                <path d="M7.39536047,4.52977483 L6.93024419,4.52977483 L6.37210465,6.41056954 C6.32559302,6.56957616 6.30233721,6.64898013 6.30233721,6.6754702 C6.30233721,6.62255629 6.2790814,6.54301987 6.23256977,6.41056954 L5.65117442,4.50335099 L5.18605814,4.50335099 L6.06977907,7.07282119 L6.55815116,7.07282119 L7.39536047,4.52977483 Z" id="Fill-5"></path>
                <path d="M8.37209302,2.17218543 C8.23255814,2.17218543 8.13953488,2.0397351 8.13953488,1.90728477 L8.13953488,0.741721854 L9.34883721,2.17218543 L8.37209302,2.17218543 Z M7.3255814,3.7615894 C7.58244186,3.7615894 7.79069767,3.99880795 7.79069767,4.29139073 L7.79069767,7.20529801 C7.79069767,7.49788079 7.58244186,7.73509934 7.3255814,7.73509934 L0.813953488,7.73509934 C0.557093023,7.73509934 0.348837209,7.49788079 0.348837209,7.20529801 L0.348837209,4.29139073 C0.348837209,3.99880795 0.557093023,3.7615894 0.813953488,3.7615894 L7.3255814,3.7615894 Z M9.76744186,6.80794702 C9.90697674,6.80794702 10,6.70198675 10,6.54304636 L10,2.17218543 L8.13953488,0 L2.95348837,0 C2.44186047,0 2.02325581,0.476821192 2.02325581,1.05960265 L2.02325581,3.36423841 L0.465116279,3.36423841 C0.209302326,3.36423841 0,3.60264901 0,3.89403974 L0,7.60264901 C0,7.89403974 0.209302326,8.13245033 0.465116279,8.13245033 L2.02325581,8.13245033 L2.02325581,8.92715232 C2.02325581,9.50993377 2.44186047,9.98675497 2.95348837,9.98675497 L9.06976744,9.98675497 C9.58139535,9.98675497 10,9.50993377 10,8.92715232 L10,8.13245033 C10,7.97350993 9.90697674,7.86754967 9.76744186,7.86754967 C9.62790698,7.86754967 9.53488372,7.97350993 9.53488372,8.13245033 L9.53488372,8.92715232 C9.53488372,9.21854305 9.3255814,9.45695364 9.06976744,9.45695364 L2.95348837,9.45695364 C2.69767442,9.45695364 2.48837209,9.21854305 2.48837209,8.92715232 L2.48837209,8.13245033 L7.6744186,8.13245033 C7.93023256,8.13245033 8.13953488,7.89403974 8.13953488,7.60264901 L8.13953488,3.89403974 C8.13953488,3.60264901 7.93023256,3.36423841 7.6744186,3.36423841 L2.48837209,3.36423841 L2.48837209,1.05960265 C2.48837209,0.768211921 2.69767442,0.529801325 2.95348837,0.529801325 L7.6744186,0.529801325 L7.6744186,1.90728477 C7.6744186,2.35761589 7.97674419,2.70198675 8.37209302,2.70198675 L9.53488372,2.70198675 L9.53488372,6.54304636 C9.53488372,6.70198675 9.62790698,6.80794702 9.76744186,6.80794702 L9.76744186,6.80794702 Z" id="Fill-7"></path>
            </g>
        </g>
    </g>
</svg>