<?xml version="1.0" encoding="UTF-8"?>
<svg width="16px" height="16px" viewBox="0 0 16 16" version="1.1" xmlns="http://www.w3.org/2000/svg" xmlns:xlink="http://www.w3.org/1999/xlink">
    <!-- Generator: Sketch 63.1 (92452) - https://sketch.com -->
    <title>12备份迁移模板备份 2</title>
    <desc>Created with Sketch.</desc>
    <defs>
        <polygon id="path-1" points="0 0 2.86868687 0 2.86868687 2.86867879 0 2.86867879"></polygon>
        <polygon id="path-3" points="0.0202020202 0 2.88888889 0 2.88888889 2.86867879 0.0202020202 2.86867879"></polygon>
        <polygon id="path-5" points="0 0 2.86868687 0 2.86868687 2.86867879 0 2.86867879"></polygon>
    </defs>
    <g id="-dep" stroke="none" stroke-width="1" fill="none" fill-rule="evenodd">
        <g id="12备份迁移模板备份-2" transform="translate(-360.000000, -195.000000)">
            <g id="编组-6" transform="translate(360.000000, 195.000000)">
                <g id="编组" transform="translate(0.000000, 7.000000)">
                    <g>
                        <mask id="mask-2" fill="white">
                            <use xlink:href="#path-1"></use>
                        </mask>
                        <g id="Clip-2"></g>
                        <path d="M1.43434343,2.86867879 C2.22525253,2.86867879 2.86868687,2.22524444 2.86868687,1.43433535 C2.86868687,0.643466667 2.22525253,-8.08080808e-06 1.43434343,-8.08080808e-06 C0.643434343,-8.08080808e-06 0,0.643466667 0,1.43433535 C0,2.22524444 0.643434343,2.86867879 1.43434343,2.86867879" id="Fill-1" fill="#FFFFFF" mask="url(#mask-2)"></path>
                    </g>
                    <g transform="translate(6.545455, 0.000000)">
                        <mask id="mask-4" fill="white">
                            <use xlink:href="#path-3"></use>
                        </mask>
                        <g id="Clip-4"></g>
                        <path d="M1.45454545,2.86867879 C2.24545455,2.86867879 2.88888889,2.22524444 2.88888889,1.43433535 C2.88888889,0.643466667 2.24545455,-8.08080808e-06 1.45454545,-8.08080808e-06 C0.663636364,-8.08080808e-06 0.0202020202,0.643466667 0.0202020202,1.43433535 C0.0202020202,2.22524444 0.663636364,2.86867879 1.45454545,2.86867879" id="Fill-3" fill="#FFFFFF" mask="url(#mask-4)"></path>
                    </g>
                    <g transform="translate(13.131313, 0.000000)">
                        <mask id="mask-6" fill="white">
                            <use xlink:href="#path-5"></use>
                        </mask>
                        <g id="Clip-6"></g>
                        <path d="M1.43434343,2.86867879 C2.22525253,2.86867879 2.86868687,2.22524444 2.86868687,1.43433535 C2.86868687,0.643466667 2.22525253,-8.08080808e-06 1.43434343,-8.08080808e-06 C0.643434343,-8.08080808e-06 0,0.643466667 0,1.43433535 C0,2.22524444 0.643434343,2.86867879 1.43434343,2.86867879" id="Fill-5" fill="#FFFFFF" mask="url(#mask-6)"></path>
                    </g>
                </g>
            </g>
        </g>
    </g>
</svg>