<?xml version="1.0" encoding="UTF-8"?>
<svg width="128px" height="128px" viewBox="0 0 128 128" version="1.1" xmlns="http://www.w3.org/2000/svg" xmlns:xlink="http://www.w3.org/1999/xlink">
    <title>大/编译调试</title>
    <g id="大/编译调试" stroke="none" stroke-width="1" fill="none" fill-rule="evenodd">
        <rect id="矩形备份-9" fill="#313335" x="0" y="0" width="128" height="128" rx="3"></rect>
        <polygon id="Fill-1" fill="#D20D17" points="64.0021333 74.07296 61.6746667 80.5902933 51.1253333 78.7982933 63.5690667 87.6942933 108.8 50.91776"></polygon>
        <polygon id="Fill-2" fill="#DADADA" points="65.4920533 89.07008 93.09312 108.799147 81.3917867 89.9234133 105.57952 56.1698133"></polygon>
        <path d="M57.35488,27.73184 C73.34208,27.73184 86.3362133,40.4081067 86.9186133,56.25664 L86.9186133,56.25664 L82.55168,58.5137067 C82.5687467,58.1275733 82.60928,57.7457067 82.60928,57.3531733 C82.60928,43.4267733 71.2791467,32.0987733 57.35488,32.0987733 C43.42848,32.0987733 32.0983467,43.4267733 32.0983467,57.3531733 C32.0983467,67.4907733 38.11648,76.2289067 46.7543467,80.2459733 C47.0530133,81.7691733 47.89568,83.17504 49.2290133,84.12864 L49.2290133,84.12864 L52.6338133,86.5627733 C38.5239467,84.2993067 27.7335467,72.10304 27.7335467,57.3531733 C27.7335467,40.9947733 40.9943467,27.73184 57.35488,27.73184 Z M43.0737067,60.2734933 L41.8257067,62.94016 L61.5547733,70.4494933 L67.3083733,61.2462933 L61.8577067,72.4718933 L40.01024,63.5076267 L43.0737067,60.2734933 Z M48.4622933,49.7809067 L42.2222933,57.2667733 L60.00576,63.37024 L71.1886933,53.71264 L60.4494933,66.5211733 L39.1972267,58.0987733 L48.4622933,49.7809067 Z M67.8613333,39.9485867 C63.3045333,39.3640533 57.2736,49.8557867 57.2736,49.8557867 L64.0042667,48.76992 L52.6592,56.5864533 L50.3914667,45.0152533 L53.3397333,48.3432533 L53.3519601,48.3236124 C53.6768114,47.8047358 60.4269268,37.2012696 67.8613333,39.9485867 Z" id="形状结合" fill="#FFFFFF"></path>
    </g>
</svg>