<?xml version="1.0" encoding="UTF-8"?>
<svg width="128px" height="128px" viewBox="0 0 128 128" version="1.1" xmlns="http://www.w3.org/2000/svg" xmlns:xlink="http://www.w3.org/1999/xlink">
    <title>大/编译调试</title>
    <g id="大/编译调试" stroke="none" stroke-width="1" fill="none" fill-rule="evenodd">
        <rect id="矩形备份-9" fill="#FFFFFF" x="0" y="0" width="128" height="128" rx="3"></rect>
        <polygon id="Fill-1" fill="#D20D17" points="59.2685867 69.34112 56.94112 75.8584533 46.3917867 74.0664533 58.83552 82.9624533 104.066453 46.18592"></polygon>
        <polygon id="Fill-2" fill="#DADADA" points="60.7585067 84.33824 88.3595733 104.067307 76.65824 85.1915733 100.845973 51.4379733"></polygon>
        <path d="M52.6213333,23 C68.6085333,23 81.6026667,35.6762667 82.1850667,51.5248 L82.1850667,51.5248 L77.8181333,53.7818667 C77.8352,53.3957333 77.8757333,53.0138667 77.8757333,52.6213333 C77.8757333,38.6949333 66.5456,27.3669333 52.6213333,27.3669333 C38.6949333,27.3669333 27.3648,38.6949333 27.3648,52.6213333 C27.3648,62.7589333 33.3829333,71.4970667 42.0208,75.5141333 C42.3194667,77.0373333 43.1621333,78.4432 44.4954667,79.3968 L44.4954667,79.3968 L47.9002667,81.8309333 C33.7904,79.5674667 23,67.3712 23,52.6213333 C23,36.2629333 36.2608,23 52.6213333,23 Z M38.34016,55.5416533 L37.09216,58.20832 L56.8212267,65.7176533 L62.5748267,56.5144533 L57.12416,67.7400533 L35.2766933,58.7757867 L38.34016,55.5416533 Z M43.7287467,45.0490667 L37.4887467,52.5349333 L55.2722133,58.6384 L66.4551467,48.9808 L55.7159467,61.7893333 L34.46368,53.3669333 L43.7287467,45.0490667 Z M63.1277867,35.2167467 C58.5709867,34.6322133 52.5400533,45.1239467 52.5400533,45.1239467 L59.27072,44.03808 L47.9256533,51.8546133 L45.65792,40.2834133 L48.6061867,43.6114133 L48.6184134,43.5917724 C48.9432648,43.0728958 55.6933802,32.4694296 63.1277867,35.2167467 Z" id="形状结合" fill="#7E7E7E"></path>
    </g>
</svg>