<?xml version="1.0" encoding="UTF-8"?>
<svg width="128px" height="128px" viewBox="0 0 128 128" version="1.1" xmlns="http://www.w3.org/2000/svg" xmlns:xlink="http://www.w3.org/1999/xlink">
    <title>大/foundation</title>
    <g id="大/foundation" stroke="none" stroke-width="1" fill="none" fill-rule="evenodd">
        <rect id="矩形备份-9" fill="#313335" x="0" y="0" width="128" height="128" rx="3"></rect>
        <polygon id="Fill-1" fill="#D20D17" fill-rule="nonzero" points="64.2376996 74.2066912 61.8741314 80.6940062 51.1590002 78.9102599 63.7957491 87.7652854 109.730429 51.1581426"></polygon>
        <polygon id="Fill-2" fill="#DADADA" fill-rule="nonzero" points="65.8018574 89.9686587 94.032725 109.729571 82.0665726 90.8233693 106.801857 57.0152854"></polygon>
        <path d="M57.5012819,27.73 C73.569412,27.73 86.6293237,40.4704362 87.214672,56.3970536 L87.214672,56.3970536 L82.8256328,58.6655459 C82.8427857,58.2774579 82.8835243,57.8936582 82.8835243,57.4991378 C82.8835243,43.5043839 71.4960357,32.1168954 57.5012819,32.1168954 C43.5043839,32.1168954 32.1168954,43.5043839 32.1168954,57.4991378 C32.1168954,67.6902003 38.1654936,76.4704234 46.8492309,80.5078252 C47.1472653,82.0387359 47.9941977,83.4517195 49.3342806,84.4101467 L49.3342806,84.4101467 L52.7563163,86.8566019 C38.575023,84.5816774 27.73,72.3236709 27.73,57.4991378 C27.73,41.0579286 41.0600727,27.73 57.5012819,27.73 Z M70.5592508,66.9339953 C70.5595514,66.9957763 70.541426,67.0583424 70.5031299,67.1140984 C70.4762334,67.1532578 70.4408106,67.1865969 70.3992039,67.2119112 L58.6689073,74.3488623 C58.5532568,74.4192264 58.4045152,74.4192264 58.2888647,74.3488623 L46.5585681,67.2119112 C46.4548967,67.1488354 46.3985288,67.0428741 46.3985288,66.9347322 L49.3275511,66.9340903 L58.478886,72.5025627 L67.6302209,66.9340903 L70.5592508,66.9339953 Z M47.5690478,59.1851861 L58.4498063,65.8059911 L69.3305647,59.1851861 L72.813195,59.1850733 C72.813195,59.2585297 72.7919307,59.3329195 72.7463974,59.3992124 C72.714418,59.445772 72.6723009,59.4854116 72.6228314,59.5155099 L58.6757379,68.0012052 C58.5382317,68.0848668 58.3613809,68.0848668 58.2238748,68.0012052 L44.2767812,59.5155099 C44.1535179,59.440514 44.0864976,59.314528 44.0864976,59.1859494 L47.5690478,59.1851861 Z M58.7380059,40.9801081 L74.7338649,50.7123141 C74.9552412,50.8470039 75.0186903,51.125096 74.8755823,51.3334502 C74.8389052,51.3868492 74.7906014,51.4323116 74.7338649,51.4668312 L58.7380059,61.1990372 C58.5803007,61.2949882 58.3774713,61.2949882 58.2197661,61.1990372 L42.2239071,51.4668312 C42.0025308,51.3321414 41.9390817,51.0540493 42.0821897,50.8456951 C42.1188668,50.7922961 42.1671706,50.7468337 42.2239071,50.7123141 L58.2197661,40.9801081 C58.3774713,40.884157 58.5803007,40.884157 58.7380059,40.9801081 Z M58.478886,43.4946129 L45.9997929,51.0879844 L58.478886,58.681356 L70.9579791,51.0879844 L58.478886,43.4946129 Z" id="形状结合" fill="#FFFFFF" fill-rule="nonzero"></path>
    </g>
</svg>