<?xml version="1.0" encoding="UTF-8"?>
<svg width="128px" height="128px" viewBox="0 0 128 128" version="1.1" xmlns="http://www.w3.org/2000/svg" xmlns:xlink="http://www.w3.org/1999/xlink">
    <title>大/foundation</title>
    <g id="大/foundation" stroke="none" stroke-width="1" fill="none" fill-rule="evenodd">
        <rect id="矩形备份-9" fill="#FFFFFF" x="0" y="0" width="128" height="128" rx="3"></rect>
        <polygon id="Fill-1" fill="#D20D17" fill-rule="nonzero" points="59.5076996 69.4766912 57.1441314 75.9640062 46.4290002 74.1802599 59.0657491 83.0352854 105.000429 46.4281426"></polygon>
        <polygon id="Fill-2" fill="#DADADA" fill-rule="nonzero" points="61.0718574 85.2386587 89.302725 104.999571 77.3365726 86.0933693 102.071857 52.2852854"></polygon>
        <path d="M52.7712819,23 C68.839412,23 81.8993237,35.7404362 82.484672,51.6670536 L82.484672,51.6670536 L78.0956328,53.9355459 C78.1127857,53.5474579 78.1535243,53.1636582 78.1535243,52.7691378 C78.1535243,38.7743839 66.7660357,27.3868954 52.7712819,27.3868954 C38.7743839,27.3868954 27.3868954,38.7743839 27.3868954,52.7691378 C27.3868954,62.9602003 33.4354936,71.7404234 42.1192309,75.7778252 C42.4172653,77.3087359 43.2641977,78.7217195 44.6042806,79.6801467 L44.6042806,79.6801467 L48.0263163,82.1266019 C33.845023,79.8516774 23,67.5936709 23,52.7691378 C23,36.3279286 36.3300727,23 52.7712819,23 Z M65.8292508,62.2039953 C65.8295514,62.2657763 65.811426,62.3283424 65.7731299,62.3840984 C65.7462334,62.4232578 65.7108106,62.4565969 65.6692039,62.4819112 L53.9389073,69.6188623 C53.8232568,69.6892264 53.6745152,69.6892264 53.5588647,69.6188623 L41.8285681,62.4819112 C41.7248967,62.4188354 41.6685288,62.3128741 41.6685288,62.2047322 L44.5975511,62.2040903 L53.748886,67.7725627 L62.9002209,62.2040903 L65.8292508,62.2039953 Z M42.8390478,54.4551861 L53.7198063,61.0759911 L64.6005647,54.4551861 L68.083195,54.4550733 C68.083195,54.5285297 68.0619307,54.6029195 68.0163974,54.6692124 C67.984418,54.715772 67.9423009,54.7554116 67.8928314,54.7855099 L53.9457379,63.2712052 C53.8082317,63.3548668 53.6313809,63.3548668 53.4938748,63.2712052 L39.5467812,54.7855099 C39.4235179,54.710514 39.3564976,54.584528 39.3564976,54.4559494 L42.8390478,54.4551861 Z M54.0080059,36.2501081 L70.0038649,45.9823141 C70.2252412,46.1170039 70.2886903,46.395096 70.1455823,46.6034502 C70.1089052,46.6568492 70.0606014,46.7023116 70.0038649,46.7368312 L54.0080059,56.4690372 C53.8503007,56.5649882 53.6474713,56.5649882 53.4897661,56.4690372 L37.4939071,46.7368312 C37.2725308,46.6021414 37.2090817,46.3240493 37.3521897,46.1156951 C37.3888668,46.0622961 37.4371706,46.0168337 37.4939071,45.9823141 L53.4897661,36.2501081 C53.6474713,36.154157 53.8503007,36.154157 54.0080059,36.2501081 Z M53.748886,38.7646129 L41.2697929,46.3579844 L53.748886,53.951356 L66.2279791,46.3579844 L53.748886,38.7646129 Z" id="形状结合" fill="#7E7E7E" fill-rule="nonzero"></path>
    </g>
</svg>