<?xml version="1.0" encoding="UTF-8"?>
<svg width="128px" height="128px" viewBox="0 0 128 128" version="1.1" xmlns="http://www.w3.org/2000/svg" xmlns:xlink="http://www.w3.org/1999/xlink">
    <title>大/性能分析</title>
    <g id="大/性能分析" stroke="none" stroke-width="1" fill="none" fill-rule="evenodd">
        <rect id="矩形备份-9" fill="#FFFFFF" x="0" y="0" width="128" height="128" rx="3"></rect>
        <polygon id="Fill-1" fill="#D20D17" points="58.6557867 69.3392 56.32832 75.8565333 45.7789867 74.0645333 58.22272 82.9605333 103.453653 46.184"></polygon>
        <polygon id="Fill-2" fill="#DADADA" points="60.1457067 84.33632 87.7467733 104.065387 76.04544 85.1896533 100.233173 51.4360533"></polygon>
        <path d="M53.6213333,23 C69.6085333,23 82.6026667,35.6762667 83.1850667,51.5226667 L83.1850667,51.5226667 L78.8181333,53.7797333 C78.8352,53.3936 78.8757333,53.0117333 78.8757333,52.6192 C78.8757333,38.6928 67.5456,27.3648 53.6213333,27.3648 C39.6949333,27.3648 28.3648,38.6928 28.3648,52.6192 C28.3648,62.7589333 34.3829333,71.4949333 43.0208,75.512 C43.3194667,77.0352 44.1621333,78.4410667 45.4954667,79.3946667 L45.4954667,79.3946667 L48.9002667,81.8288 C34.7904,79.5653333 24,67.3690667 24,52.6192 C24,36.2608 37.2608,23 53.6213333,23 Z M65.8474667,42.25312 C67.1317333,41.5405867 67.904,42.57312 66.8565333,43.6013867 L66.8565333,43.6013867 L56.3669333,53.8797867 C54.2912,55.9149867 51.2917333,56.4504533 50.1952,54.9784533 C49.1008,53.51072 50.4661333,50.7928533 53.0048,49.38272 L53.0048,49.38272 Z M63.3725867,37.55936 C61.7597867,38.0478933 57.51232,39.3300267 57.51232,39.3300267 C57.51232,39.3300267 39.6541867,29.7620267 36.24512,49.8708267 C39.8504533,24.4692267 63.9549867,35.94016 63.3725867,37.55936 Z" id="形状结合" fill="#7E7E7E"></path>
    </g>
</svg>