<?xml version="1.0" encoding="UTF-8"?>
<svg width="128px" height="128px" viewBox="0 0 128 128" version="1.1" xmlns="http://www.w3.org/2000/svg" xmlns:xlink="http://www.w3.org/1999/xlink">
    <title>大/性能分析</title>
    <g id="大/性能分析" stroke="none" stroke-width="1" fill="none" fill-rule="evenodd">
        <rect id="矩形备份-9" fill="#313335" x="0" y="0" width="128" height="128" rx="3"></rect>
        <polygon id="Fill-1" fill="#D20D17" points="62.3893333 74.07296 60.0618667 80.5902933 49.5125333 78.7982933 61.9562667 87.6942933 107.1872 50.91776"></polygon>
        <polygon id="Fill-2" fill="#DADADA" points="63.8792533 89.07008 91.48032 108.799147 79.7789867 89.9234133 103.96672 56.1698133"></polygon>
        <path d="M57.35488,27.73376 C73.34208,27.73376 86.3362133,40.4100267 86.9186133,56.2564267 L86.9186133,56.2564267 L82.55168,58.5134933 C82.5687467,58.12736 82.60928,57.7454933 82.60928,57.35296 C82.60928,43.42656 71.2791467,32.09856 57.35488,32.09856 C43.42848,32.09856 32.0983467,43.42656 32.0983467,57.35296 C32.0983467,67.4926933 38.11648,76.2286933 46.7543467,80.24576 C47.0530133,81.76896 47.89568,83.1748267 49.2290133,84.1284267 L49.2290133,84.1284267 L52.6338133,86.56256 C38.5239467,84.2990933 27.7335467,72.1028267 27.7335467,57.35296 C27.7335467,40.99456 40.9943467,27.73376 57.35488,27.73376 Z M69.5810133,46.98688 C70.86528,46.2743467 71.6375467,47.30688 70.59008,48.3351467 L70.59008,48.3351467 L60.10048,58.6135467 C58.0247467,60.6487467 55.02528,61.1842133 53.9287467,59.7122133 C52.8343467,58.24448 54.19968,55.5266133 56.7383467,54.11648 L56.7383467,54.11648 Z M67.1061333,42.29312 C65.4933333,42.7816533 61.2458667,44.0637867 61.2458667,44.0637867 C61.2458667,44.0637867 43.3877333,34.4957867 39.9786667,54.6045867 C43.584,29.2029867 67.6885333,40.67392 67.1061333,42.29312 Z" id="形状结合" fill="#FFFFFF"></path>
    </g>
</svg>