<?xml version="1.0" encoding="UTF-8"?>
<svg width="128px" height="128px" viewBox="0 0 128 128" version="1.1" xmlns="http://www.w3.org/2000/svg" xmlns:xlink="http://www.w3.org/1999/xlink">
    <title>大/加速库</title>
    <g id="大/加速库" stroke="none" stroke-width="1" fill="none" fill-rule="evenodd">
        <rect id="矩形备份-9" fill="#FFFFFF" x="0" y="0" width="128" height="128" rx="3"></rect>
        <polygon id="Fill-1" fill="#D20D17" points="59.2685867 69.3389867 56.94112 75.85632 46.3917867 74.06432 58.83552 82.96032 104.066453 46.1837867"></polygon>
        <polygon id="Fill-2" fill="#DADADA" points="60.7585067 84.3361067 88.3595733 104.065173 76.65824 85.1915733 100.845973 51.43584"></polygon>
        <path d="M52.6213333,23 C68.6085333,23 81.6026667,35.6762667 82.1850667,51.5226667 L82.1850667,51.5226667 L77.8181333,53.7797333 C77.8352,53.3936 77.8757333,53.0117333 77.8757333,52.6192 C77.8757333,38.6928 66.5456,27.3648 52.6213333,27.3648 C38.6949333,27.3648 27.3648,38.6928 27.3648,52.6192 C27.3648,62.7589333 33.3829333,71.4949333 42.0208,75.512 C42.3194667,77.0352 43.1621333,78.4410667 44.4954667,79.3946667 L44.4954667,79.3946667 L47.9002667,81.8288 C33.7904,79.5653333 23,67.3690667 23,52.6192 C23,36.2608 36.2608,23 52.6213333,23 Z M59.0610133,37.20928 L53.7362133,47.6647467 L63.9506133,49.6935467 L43.7927467,63.53248 L51.53888,51.2743467 L41.2370133,50.3698133 L59.0610133,37.20928 Z" id="形状结合" fill="#7E7E7E"></path>
    </g>
</svg>