<?xml version="1.0" encoding="UTF-8"?>
<svg width="128px" height="128px" viewBox="0 0 128 128" version="1.1" xmlns="http://www.w3.org/2000/svg" xmlns:xlink="http://www.w3.org/1999/xlink">
    <title>大/加速库</title>
    <g id="大/加速库" stroke="none" stroke-width="1" fill="none" fill-rule="evenodd">
        <rect id="矩形备份-9" fill="#313335" x="0" y="0" width="128" height="128" rx="3"></rect>
        <polygon id="Fill-1" fill="#D20D17" points="64.0021333 74.07296 61.6746667 80.5902933 51.1253333 78.7982933 63.5690667 87.6942933 108.8 50.91776"></polygon>
        <polygon id="Fill-2" fill="#DADADA" points="65.4920533 89.07008 93.09312 108.799147 81.3917867 89.9255467 105.57952 56.1698133"></polygon>
        <path d="M57.35488,27.7339733 C73.34208,27.7339733 86.3362133,40.41024 86.9186133,56.25664 L86.9186133,56.25664 L82.55168,58.5137067 C82.5687467,58.1275733 82.60928,57.7457067 82.60928,57.3531733 C82.60928,43.4267733 71.2791467,32.0987733 57.35488,32.0987733 C43.42848,32.0987733 32.0983467,43.4267733 32.0983467,57.3531733 C32.0983467,67.4929067 38.11648,76.2289067 46.7543467,80.2459733 C47.0530133,81.7691733 47.89568,83.17504 49.2290133,84.12864 L49.2290133,84.12864 L52.6338133,86.5627733 C38.5239467,84.2993067 27.7335467,72.10304 27.7335467,57.3531733 C27.7335467,40.9947733 40.9943467,27.7339733 57.35488,27.7339733 Z M63.79456,41.9432533 L58.46976,52.39872 L68.68416,54.42752 L48.5262933,68.2664533 L56.2724267,56.00832 L45.97056,55.1037867 L63.79456,41.9432533 Z" id="形状结合" fill="#FFFFFF"></path>
    </g>
</svg>