<?xml version="1.0" encoding="UTF-8"?>
<svg width="128px" height="128px" viewBox="0 0 128 128" version="1.1" xmlns="http://www.w3.org/2000/svg" xmlns:xlink="http://www.w3.org/1999/xlink">
    <title>大/代码迁移</title>
    <g id="大/代码迁移" stroke="none" stroke-width="1" fill="none" fill-rule="evenodd">
        <rect id="矩形备份-9" fill="#FFFFFF" x="0" y="0" width="128" height="128" rx="3"></rect>
        <polygon id="Fill-1" fill="#D20D17" points="59.2692267 69.34112 56.94176 75.8584533 46.3902933 74.0664533 58.83616 82.9624533 104.067093 46.18592"></polygon>
        <polygon id="Fill-2" fill="#DADADA" points="60.7591467 84.33824 88.3602133 104.067307 76.6610133 85.1915733 100.846613 51.4379733"></polygon>
        <path d="M52.6213333,23 C68.6085333,23 81.6048,35.6762667 82.1850667,51.5248 L82.1850667,51.5248 L77.8181333,53.7818667 C77.8352,53.3957333 77.8757333,53.0138667 77.8757333,52.6213333 C77.8757333,38.6949333 66.5456,27.3669333 52.6213333,27.3669333 C38.6949333,27.3669333 27.3648,38.6949333 27.3648,52.6213333 C27.3648,62.7610667 33.3829333,71.4970667 42.0229333,75.5141333 C42.3194667,77.0373333 43.1621333,78.4432 44.4954667,79.3968 L44.4954667,79.3968 L47.9002667,81.8309333 C33.7904,79.5674667 23,67.3712 23,52.6213333 C23,36.2629333 36.2629333,23 52.6213333,23 Z M49.1115733,35.6688 L61.8369067,42.4101333 L61.8369067,44.2128 L60.64224,44.7973333 L60.64224,43.3317333 L51.8721067,39.8970667 L51.8721067,60.8122667 L60.64224,56.1616 L60.64224,54.6469333 L61.8369067,55.3594667 L61.8369067,57.5952 L49.1115733,65.6101333 L49.1115733,35.6688 Z M41.1188267,36.70816 L46.3902933,39.47296 L46.3902933,41.89216 L43.7556267,40.33696 L43.7556267,58.65376 L46.3902933,57.3588267 L46.3902933,59.6052267 L41.1188267,63.66496 L41.1188267,36.70816 Z M66.2027733,46.1850667 L66.2027733,52.9498667 C63.7707733,49.912 55.3163733,49.1098667 55.3163733,49.1098667 C55.3163733,49.1098667 63.7985067,49.1098667 66.2027733,46.1850667 L66.2027733,46.1850667 Z" id="形状结合" fill="#7E7E7E"></path>
    </g>
</svg>