<?xml version="1.0" encoding="UTF-8"?>
<svg width="128px" height="128px" viewBox="0 0 128 128" version="1.1" xmlns="http://www.w3.org/2000/svg" xmlns:xlink="http://www.w3.org/1999/xlink">
    <title>大/代码迁移</title>
    <g id="大/代码迁移" stroke="none" stroke-width="1" fill="none" fill-rule="evenodd">
        <rect id="矩形备份-9" fill="#313335" x="0" y="0" width="128" height="128" rx="3"></rect>
        <polygon id="Fill-1" fill="#D20D17" points="64.0021333 74.07296 61.6746667 80.5902933 51.1232 78.7982933 63.5690667 87.6942933 108.8 50.91776"></polygon>
        <polygon id="Fill-2" fill="#DADADA" points="65.4920533 89.07008 93.09312 108.799147 81.39392 89.9234133 105.57952 56.1698133"></polygon>
        <path d="M57.35424,27.73184 C73.34144,27.73184 86.3377067,40.4081067 86.9179733,56.25664 L86.9179733,56.25664 L82.55104,58.5137067 C82.5681067,58.1275733 82.60864,57.7457067 82.60864,57.3531733 C82.60864,43.4267733 71.2785067,32.0987733 57.35424,32.0987733 C43.42784,32.0987733 32.0977067,43.4267733 32.0977067,57.3531733 C32.0977067,67.4929067 38.11584,76.2289067 46.75584,80.2459733 C47.0523733,81.7691733 47.89504,83.17504 49.2283733,84.12864 L49.2283733,84.12864 L52.6331733,86.5627733 C38.5233067,84.2993067 27.7329067,72.10304 27.7329067,57.3531733 C27.7329067,40.9947733 40.99584,27.73184 57.35424,27.73184 Z M53.84448,40.40064 L66.5698133,47.1419733 L66.5698133,48.94464 L65.3751467,49.5291733 L65.3751467,48.0635733 L56.6050133,44.6289067 L56.6050133,65.5441067 L65.3751467,60.89344 L65.3751467,59.3787733 L66.5698133,60.0913067 L66.5698133,62.32704 L53.84448,70.3419733 L53.84448,40.40064 Z M45.8517333,41.44 L51.1232,44.2048 L51.1232,46.624 L48.4885333,45.0688 L48.4885333,63.3856 L51.1232,62.0906667 L51.1232,64.3370667 L45.8517333,68.3968 L45.8517333,41.44 Z M70.93568,50.9169067 L70.93568,57.6817067 C68.50368,54.64384 60.04928,53.8417067 60.04928,53.8417067 C60.04928,53.8417067 68.5314133,53.8417067 70.93568,50.9169067 L70.93568,50.9169067 Z" id="形状结合" fill="#FFFFFF"></path>
    </g>
</svg>