<?xml version="1.0" encoding="UTF-8"?>
<svg width="14px" height="14px" viewBox="0 0 14 14" version="1.1" xmlns="http://www.w3.org/2000/svg" xmlns:xlink="http://www.w3.org/1999/xlink">
    <title>关于</title>
    <g id="2022_1230落地" stroke="none" stroke-width="1" fill="none" fill-rule="evenodd">
        <g id="切图" transform="translate(-119.000000, -14.000000)">
            <g id="关于" transform="translate(119.000000, 14.000000)">
                <rect id="Box" fill="#D8D8D8" opacity="0" x="0" y="0" width="14" height="14"></rect>
                <path d="M7,1 C10.3137085,1 13,3.6862915 13,7 C13,10.3137085 10.3137085,13 7,13 C3.6862915,13 1,10.3137085 1,7 C1,3.6862915 3.6862915,1 7,1 Z M7,6 C6.44771525,6 6,6.44771525 6,7 L6,7 L6,10 C6,10.5522847 6.44771525,11 7,11 C7.55228475,11 8,10.5522847 8,10 L8,10 L8,7 C8,6.44771525 7.55228475,6 7,6 Z M7,3 C6.44771525,3 6,3.44771525 6,4 C6,4.55228475 6.44771525,5 7,5 C7.55228475,5 8,4.55228475 8,4 C8,3.44771525 7.55228475,3 7,3 Z" id="形状结合" fill="#AFB1B3"></path>
            </g>
        </g>
    </g>
</svg>