<?xml version="1.0" encoding="UTF-8"?>
<svg width="14px" height="14px" viewBox="0 0 14 14" version="1.1" xmlns="http://www.w3.org/2000/svg" xmlns:xlink="http://www.w3.org/1999/xlink">
    <title>申请试用远程实验室</title>
    <g id="2022_1230落地" stroke="none" stroke-width="1" fill="none" fill-rule="evenodd">
        <g id="切图" transform="translate(-66.000000, -14.000000)">
            <g id="申请试用远程实验室" transform="translate(66.000000, 14.000000)">
                <rect id="Box" fill="#D8D8D8" opacity="0" x="0" y="0" width="14" height="14"></rect>
                <path d="M8,0 C8.55228475,-1.01453063e-16 9,0.44771525 9,1 L9,6.5 L12.9635332,12.4452998 C13.2698857,12.9048285 13.1457118,13.5256978 12.6861831,13.8320503 C12.5219156,13.941562 12.3289079,14 12.1314829,14 L1.86851709,14 C1.31623234,14 0.868517092,13.5522847 0.868517092,13 C0.868517092,12.802575 0.926955119,12.6095673 1.0364668,12.4452998 L5,6.5 L5,1 C5,0.44771525 5.44771525,1.01453063e-16 6,0 L8,0 Z M5.5,8.5 L3.82535718,11.5143571 C3.74282496,11.6629151 3.69951446,11.8300558 3.69951446,12 C3.69951446,12.5522847 4.14722971,13 4.69951446,13 L4.69951446,13 L9.27682032,13 C9.45084726,13 9.62186156,12.9545847 9.77295926,12.8682431 C10.2524767,12.5942332 10.4190734,11.9833785 10.1450635,11.5038611 L10.1450635,11.5038611 L9,9.5 C8.16828554,9.97665301 7.50161887,10.1433197 7,10 C6.49838113,9.85668032 5.99838113,9.35668032 5.5,8.5 L5.5,8.5 Z" id="形状结合" fill="#AFB1B3"></path>
            </g>
        </g>
    </g>
</svg>