<?xml version="1.0" encoding="UTF-8"?>
<svg width="14px" height="14px" viewBox="0 0 14 14" version="1.1" xmlns="http://www.w3.org/2000/svg" xmlns:xlink="http://www.w3.org/1999/xlink">
    <title>配置远端服务器</title>
    <g id="2022_1230落地" stroke="none" stroke-width="1" fill="none" fill-rule="evenodd">
        <g id="切图" transform="translate(-37.000000, -14.000000)">
            <g id="2.通用/1.Icon/3.通用/服务器" transform="translate(37.000000, 14.000000)">
                <rect id="矩形" fill="#D8D8D8" opacity="0" x="0" y="0" width="14" height="14"></rect>
                <path d="M0,0 L0,4.2 L14,4.2 L14,0 L0,0 Z M4.2,2.8 L1.4,2.8 L1.4,1.4 L4.2,1.4 L4.2,2.8 Z M0,9.1 L14,9.1 L14,4.9 L0,4.9 L0,9.1 Z M1.4,6.3 L4.2,6.3 L4.2,7.7 L1.4,7.7 L1.4,6.3 Z M0,14 L14,14 L14,9.8 L0,9.8 L0,14 Z M1.4,11.2 L4.2,11.2 L4.2,12.6 L1.4,12.6 L1.4,11.2 Z" id="形状" fill="#AFB1B3" fill-rule="nonzero"></path>
            </g>
        </g>
    </g>
</svg>