<?xml version="1.0" encoding="UTF-8"?>
<svg width="14px" height="14px" viewBox="0 0 14 14" version="1.1" xmlns="http://www.w3.org/2000/svg" xmlns:xlink="http://www.w3.org/1999/xlink">
    <title>配置服务端</title>
    <g id="2022_1230落地" stroke="none" stroke-width="1" fill="none" fill-rule="evenodd">
        <g id="切图" transform="translate(-13.000000, -14.000000)">
            <g id="配置服务端" transform="translate(13.000000, 14.000000)">
                <rect id="矩形" fill-opacity="0" fill="#D8D8D8" x="0" y="9.09494702e-13" width="14" height="14"></rect>
                <path d="M11.83,7.99908644 L13,8 C13.5522847,8 14,8.44771525 14,9 L14,13 C14,13.5522847 13.5522847,14 13,14 L1,14 C0.44771525,14 1.28867715e-16,13.5522847 6.123234e-17,13 L3.061617e-16,9 C2.38526325e-16,8.44771525 0.44771525,8 1,8 L2.163,7.99908644 L5.58266181,11.4173 L5.72206586,11.5429651 C6.56268862,12.1990593 7.69593354,12.1324554 8.41108894,11.4173 L11.83,7.99908644 Z M7,7.37188088e-14 C7.55228475,7.37526265e-14 8,0.44771525 8,1 L8.001,7.585 L10.2928932,5.29289322 C10.6533772,4.93240926 11.2206082,4.90467972 11.6128994,5.20970461 L11.7071068,5.29289322 C12.0675907,5.65337718 12.0953203,6.22060824 11.7902954,6.61289944 L11.7071068,6.70710678 L7.70710678,10.7071068 L7.65,10.757 L7.60977482,10.7933818 C7.25017455,11.072988 6.74357621,11.072988 6.38397593,10.7933818 L6.2897686,10.7101932 L3.577,7.99908644 L3.584,7.999 L2.29289322,6.70710678 C1.90236893,6.31658249 1.90236893,5.68341751 2.29289322,5.29289322 C2.65337718,4.93240926 3.22060824,4.90467972 3.61289944,5.20970461 L3.70710678,5.29289322 L6.001,7.585 L6,1 C6,0.44771525 6.44771525,7.36849911e-14 7,7.37188088e-14 Z" id="形状结合" fill="#AFB1B3"></path>
            </g>
        </g>
    </g>
</svg>