<?xml version="1.0" encoding="UTF-8"?>
<svg width="14px" height="14px" viewBox="0 0 14 14" version="1.1" xmlns="http://www.w3.org/2000/svg" xmlns:xlink="http://www.w3.org/1999/xlink">
    <title>建议反馈</title>
    <g id="2022_1230落地" stroke="none" stroke-width="1" fill="none" fill-rule="evenodd">
        <g id="切图" transform="translate(-95.000000, -14.000000)">
            <g id="建议反馈" transform="translate(95.000000, 14.000000)">
                <rect id="Box" fill="#D8D8D8" opacity="0" x="0" y="0" width="14" height="14"></rect>
                <path d="M8.835,1.99922037 L3.14458164,7.69021192 C2.89190893,7.94288462 2.71154561,8.25863831 2.62224962,8.60463429 L2.12790115,10.5200909 C2.09016712,10.6662993 2.08036662,10.8183159 2.0990142,10.9681592 C2.18085924,11.6258277 2.78035347,12.0926249 3.43802204,12.0107799 L5.56275067,11.7463633 C6.00446804,11.6913928 6.4152243,11.4906371 6.72997499,11.1758864 L10,7.90422037 L10,13 C10,13.5128358 9.61395981,13.9355072 9.11662113,13.9932723 L9,14 L1,14 C0.487164161,14 0.0644928393,13.6139598 0.00672773133,13.1166211 L0,13 L0,3 C-6.28042769e-17,2.48716416 0.38604019,2.06449284 0.883378875,2.00672773 L1,2 L8.835,1.99922037 Z M9.23214852,2.93846609 L11.3531485,5.06046609 L10,6.41346609 L10,6.49122037 L6.02286821,10.4687796 C5.86549286,10.6261549 5.66011473,10.7265328 5.43925605,10.7540181 L3.31452742,11.0184347 C3.21334764,11.0310262 3.1204293,10.9657041 3.09600398,10.8693676 C3.08404793,10.8513298 3.07267069,10.8219818 3.06867948,10.7899103 C3.06557155,10.7649364 3.06720497,10.7396003 3.07349397,10.7152322 L3.56784245,8.79977561 C3.61249044,8.62677762 3.7026721,8.46890077 3.82900845,8.34256442 L9.23214852,2.93846609 Z M12.8284271,0.757359313 L13.5355339,1.46446609 C13.9260582,1.85499039 13.9260582,2.48815536 13.5355339,2.87867966 L12.0601485,4.35346609 L9.93914852,2.23146609 L11.4142136,0.757359313 C11.8047379,0.366835021 12.4379028,0.366835021 12.8284271,0.757359313 Z" id="形状结合" fill="#AFB1B3"></path>
            </g>
        </g>
    </g>
</svg>