<?xml version="1.0" encoding="UTF-8"?>
<svg width="10px" height="10px" viewBox="0 0 10 10" version="1.1" xmlns="http://www.w3.org/2000/svg" xmlns:xlink="http://www.w3.org/1999/xlink">
    <title>登录</title>
    <g id="切图" stroke="none" stroke-width="1" fill="none" fill-rule="evenodd">
        <g id="画板" transform="translate(-165.000000, -9.000000)" fill="#BBBBBB" fill-rule="nonzero">
            <g id="登录" transform="translate(165.000000, 9.000000)">
                <path d="M6.01380973,5.62996798 L3.80693006,5.62996798 C1.91779745,5.62996798 0.980038269,7.12484615 0.386561279,9.01703948 L0.386561279,9.23490294 C0.386561279,9.99888045 0.827487281,9.99888045 3.80693006,10 L6.01380973,10 C8.5961499,10 9.43417851,9.97201138 9.43417851,9.23490294 L9.43417851,9.01692753 C9.27691047,7.59686779 7.90294234,5.62996798 6.01380973,5.62996798 Z M7.44839831,2.62208639 C7.44839831,1.17462664 6.26271346,0 4.80043185,0 C3.33815024,0 2.15235419,1.17350709 2.15235419,2.62197443 C2.15235419,4.07044176 3.33803902,5.24394886 4.80043185,5.24394886 C6.26271346,5.24406081 7.44839831,4.06954613 7.44839831,2.62208639 Z" id="形状"></path>
            </g>
        </g>
    </g>
</svg>