<?xml version="1.0" encoding="UTF-8"?>
<svg width="16px" height="16px" viewBox="0 0 16 16" version="1.1" xmlns="http://www.w3.org/2000/svg" xmlns:xlink="http://www.w3.org/1999/xlink">
    <!-- Generator: Sketch 63.1 (92452) - https://sketch.com -->
    <title>12备份迁移模板备份 3</title>
    <desc>Created with Sketch.</desc>
    <defs>
        <polygon id="path-1" points="0 0.00257777778 12.7676501 0.00257777778 12.7676501 15.9555422 0 15.9555422"></polygon>
    </defs>
    <g id="-dep" stroke="none" stroke-width="1" fill="none" fill-rule="evenodd">
        <g id="12备份迁移模板备份-2" transform="translate(-473.000000, -414.000000)">
            <g id="编组-6备份-2" transform="translate(473.000000, 414.000000)">
                <g id="编组" transform="translate(2.000000, 0.000000)">
                    <g transform="translate(0.000000, 0.041867)">
                        <mask id="mask-2" fill="white">
                            <use xlink:href="#path-1"></use>
                        </mask>
                        <g id="Clip-2"></g>
                        <path d="M0.894432111,14.9691422 L0.894432111,0.990075556 L0.894432111,0.901186667 L0.983013426,0.901186667 L7.74473522,0.901186667 L7.83331654,0.901186667 L7.83331654,0.990075556 L7.83331654,4.47407556 C7.83331654,4.72154222 8.03395322,4.92283111 8.28051931,4.92283111 L11.7846633,4.92283111 L11.8732446,4.92283111 L11.8732446,5.01172 L11.8732446,14.9691422 L11.8732446,15.0580311 L11.7846633,15.0580311 L0.983013426,15.0580311 L0.894432111,15.0580311 L0.894432111,14.9691422 Z M8.72776637,3.93643111 L8.72776637,1.50620889 L8.72776637,1.29229778 L8.8788418,1.44323111 L11.311329,3.87345333 L11.4633788,4.02532 L11.2488349,4.02532 L8.81634768,4.02532 L8.72776637,4.02532 L8.72776637,3.93643111 Z M0.447229343,15.9555422 L12.3204473,15.9555422 C12.4398992,15.9555422 12.5521761,15.9088756 12.6366826,15.82412 C12.7211449,15.7393644 12.7676501,15.6266533 12.7676501,15.5067867 L12.7676501,4.21963111 C12.7589248,4.11643111 12.7146342,4.01892 12.6427062,3.94465333 L8.8395117,0.139008889 C8.75496083,0.0519866667 8.63825495,0.00256444444 8.51840443,0.00256444444 C8.50888194,0.00256444444 8.49935945,0.00287555556 8.48983696,0.00345333333 L8.48700235,0.00367555556 L8.48416775,0.00367555556 L0.447229343,0.00367555556 C0.327777439,0.00367555556 0.215456332,0.0503422222 0.130994048,0.135097778 C0.0465317647,0.219853333 -1.7716263e-05,0.332564444 -1.7716263e-05,0.452431111 L-1.7716263e-05,15.5067867 C-1.7716263e-05,15.6266533 0.0465317647,15.7393644 0.130994048,15.82412 C0.215456332,15.9088756 0.327777439,15.9555422 0.447229343,15.9555422 L0.447229343,15.9555422 Z" id="Fill-1" fill="#6C7280" mask="url(#mask-2)"></path>
                    </g>
                    <path d="M9.55573149,8.55914222 L6.95179516,8.55914222 L6.95179516,5.94612 C6.95179516,5.64918667 6.71187266,5.40847556 6.41596678,5.40847556 C6.1200609,5.40847556 5.8801827,5.64918667 5.8801827,5.94612 L5.8801827,8.55914222 L3.12618962,8.55914222 C2.83028374,8.55914222 2.59040554,8.79985333 2.59040554,9.09678667 C2.59275294,9.18785333 2.61857439,9.27678667 2.66538962,9.35483111 C2.74759308,9.55563111 2.94202907,9.68714222 3.15834464,9.68820889 L5.83730934,9.68820889 L5.83730934,12.37652 C5.83730934,12.5685644 5.9394436,12.7460756 6.10522353,12.84212 C6.27100346,12.93812 6.47522768,12.93812 6.64100761,12.84212 C6.80678754,12.7460756 6.9089218,12.5685644 6.9089218,12.37652 L6.9089218,9.70972 L9.58788651,9.70972 C9.88379239,9.70972 10.1236706,9.46900889 10.1236706,9.17207556 C10.1213232,9.08096444 10.0955017,8.99203111 10.0486865,8.91398667 C9.9733481,8.70474222 9.77736194,8.56372 9.55573149,8.55914222" id="Fill-3" fill="#6C7280"></path>
                </g>
            </g>
        </g>
    </g>
</svg>