<?xml version="1.0" encoding="UTF-8"?>
<svg width="10px" height="10px" viewBox="0 0 10 10" version="1.1" xmlns="http://www.w3.org/2000/svg" xmlns:xlink="http://www.w3.org/1999/xlink">
    <!-- Generator: Sketch 63.1 (92452) - https://sketch.com -->
    <title>编组备份 2</title>
    <desc>Created with Sketch.</desc>
    <g id="-dep" stroke="none" stroke-width="1" fill="none" fill-rule="evenodd">
        <g id="12备份迁移模板备份-2" transform="translate(-405.000000, -310.000000)" fill="#6C7280">
            <g id="编组备份-2" transform="translate(405.000000, 310.000000)">
                <path d="M6.87453488,7.69064238 L7.38389535,7.69064238 L6.87453488,7.69064238 Z" id="Fill-1"></path>
                <polygon id="Fill-2" points="4.87268023 6.85929801 5.20436628 6.85929801 5.54297093 5.32956291 5.54297093 6.85929801 5.86302907 6.85929801 5.86302907 4.91598675 5.34640116 4.91598675 5.04035465 6.24168212 4.73070349 4.91598675 4.21506395 4.91598675 4.21506395 6.85929801 4.53529651 6.85929801 4.53529651 5.32956291"></polygon>
                <polygon id="Fill-3" points="3.93821512 5.2447351 3.93821512 4.91599338 2.58257558 4.91599338 2.58257558 5.2447351 3.08862209 5.2447351 3.08862209 6.85930464 3.43298256 6.85930464 3.43298256 5.2447351"></polygon>
                <polygon id="Fill-4" points="1.2693314 5.68082781 1.2693314 4.91599338 0.92497093 4.91599338 0.92497093 6.85930464 1.2693314 6.85930464 1.2693314 6.00963576 1.94438953 6.00963576 1.94438953 6.85930464 2.28886628 6.85930464 2.28886628 4.91599338 1.94438953 4.91599338 1.94438953 5.68082781"></polygon>
                <polygon id="Fill-5" points="7.47501744 6.53186093 6.61862209 6.53186093 6.61862209 4.93199338 6.27408721 4.93199338 6.27408721 6.85927815 7.47501744 6.85927815"></polygon>
                <path d="M8.37209302,2.17218543 C8.23255814,2.17218543 8.13953488,2.0397351 8.13953488,1.90728477 L8.13953488,0.741721854 L9.34883721,2.17218543 L8.37209302,2.17218543 Z M7.3255814,3.7615894 C7.58244186,3.7615894 7.79069767,3.99880795 7.79069767,4.29139073 L7.79069767,7.20529801 C7.79069767,7.49788079 7.58244186,7.73509934 7.3255814,7.73509934 L0.813953488,7.73509934 C0.557093023,7.73509934 0.348837209,7.49788079 0.348837209,7.20529801 L0.348837209,4.29139073 C0.348837209,3.99880795 0.557093023,3.7615894 0.813953488,3.7615894 L7.3255814,3.7615894 Z M9.76744186,6.80794702 C9.90697674,6.80794702 10,6.70198675 10,6.54304636 L10,2.17218543 L8.13953488,0 L2.95348837,0 C2.44186047,0 2.02325581,0.476821192 2.02325581,1.05960265 L2.02325581,3.36423841 L0.465116279,3.36423841 C0.209302326,3.36423841 0,3.60264901 0,3.89403974 L0,7.60264901 C0,7.89403974 0.209302326,8.13245033 0.465116279,8.13245033 L2.02325581,8.13245033 L2.02325581,8.92715232 C2.02325581,9.50993377 2.44186047,9.98675497 2.95348837,9.98675497 L9.06976744,9.98675497 C9.58139535,9.98675497 10,9.50993377 10,8.92715232 L10,8.13245033 C10,7.97350993 9.90697674,7.86754967 9.76744186,7.86754967 C9.62790698,7.86754967 9.53488372,7.97350993 9.53488372,8.13245033 L9.53488372,8.92715232 C9.53488372,9.21854305 9.3255814,9.45695364 9.06976744,9.45695364 L2.95348837,9.45695364 C2.69767442,9.45695364 2.48837209,9.21854305 2.48837209,8.92715232 L2.48837209,8.13245033 L7.6744186,8.13245033 C7.93023256,8.13245033 8.13953488,7.89403974 8.13953488,7.60264901 L8.13953488,3.89403974 C8.13953488,3.60264901 7.93023256,3.36423841 7.6744186,3.36423841 L2.48837209,3.36423841 L2.48837209,1.05960265 C2.48837209,0.768211921 2.69767442,0.529801325 2.95348837,0.529801325 L7.6744186,0.529801325 L7.6744186,1.90728477 C7.6744186,2.35761589 7.97674419,2.70198675 8.37209302,2.70198675 L9.53488372,2.70198675 L9.53488372,6.54304636 C9.53488372,6.70198675 9.62790698,6.80794702 9.76744186,6.80794702 L9.76744186,6.80794702 Z" id="Fill-6"></path>
            </g>
        </g>
    </g>
</svg>