<?xml version="1.0" encoding="UTF-8"?>
<svg width="16px" height="16px" viewBox="0 0 16 16" version="1.1" xmlns="http://www.w3.org/2000/svg" xmlns:xlink="http://www.w3.org/1999/xlink">
    <!-- Generator: Sketch 63.1 (92452) - https://sketch.com -->
    <title>12备份迁移模板备份 3</title>
    <desc>Created with Sketch.</desc>
    <defs>
        <polygon id="path-1" points="0.00291375 0.0139939698 5.8063875 0.0139939698 5.8063875 2.12028543 0.00291375 2.12028543"></polygon>
        <polygon id="path-3" points="0.0318102529 0.0369286432 5.9563875 0.0369286432 5.9563875 2.17083819 0.0318102529 2.17083819"></polygon>
    </defs>
    <g id="-dep" stroke="none" stroke-width="1" fill="none" fill-rule="evenodd">
        <g id="12备份迁移模板备份-2" transform="translate(-473.000000, -414.000000)">
            <g id="编组-6备份-2" transform="translate(473.000000, 414.000000)">
                <g id="编组" transform="translate(1.000000, 0.000000)">
                    <path d="M12.4810575,9.17342312 C11.806395,8.46254874 11.468895,8.18114171 10.31622,7.70001608 C11.131545,6.88847839 11.641545,5.73000603 11.641545,4.44389548 C11.641545,1.98958392 9.78402,3.61809045e-05 7.49232,3.61809045e-05 C5.281395,3.61809045e-05 3.3428325,1.82938291 3.3428325,4.44389548 C3.3428325,5.73004623 3.8528325,6.88847839 4.66842,7.70001608 C1.937895,8.89149347 0.01137,11.7586291 0.00297,15.1091819 L0.0240825,15.1091819 C0.0084075,15.1556141 7.5e-06,15.2055437 7.5e-06,15.2571618 C7.5e-06,15.504398 0.186795,15.7017849 0.41712,15.7017849 L7.507395,15.7017849 C7.736145,15.7017849 7.924545,15.5026693 7.924545,15.2571618 C7.924545,15.010207 7.7377575,14.8128603 7.507395,14.8128603 L0.8410575,14.8128603 C0.9672075,11.7217648 2.930295,9.14166432 5.5893075,8.29487035 C5.594745,8.29515176 5.600145,8.29547337 5.6055825,8.29547337 C5.8353825,8.29547337 6.0982575,8.17820704 6.0982575,7.85089045 C6.0982575,7.53615678 5.80887,7.42315176 5.58312,7.35565427 C5.58312,7.35392563 5.583645,7.35219698 5.583645,7.35042814 C4.7304075,6.70681005 4.1733075,5.6449809 4.1733075,4.44389548 C4.1733075,2.31179497 5.843895,0.888719598 7.4996325,0.888719598 C9.3368325,0.888719598 10.82592,2.48043819 10.82592,4.44389548 C10.82592,5.64771457 10.2658575,6.71187538 9.409395,7.35497085 C9.40992,7.35846834 9.4104825,7.36192563 9.4110075,7.36538291 C9.1844325,7.41993568 8.870145,7.48321206 8.870145,7.85089045 C8.870145,8.23714171 9.1581825,8.29318191 9.385845,8.29515176 C10.6662075,8.70291055 11.03502,8.7087799 11.8652325,9.78399598 C11.93967,9.9206392 12.07827,10.0126191 12.23637,10.0126191 C12.4737825,10.0126191 12.666195,9.80626734 12.666195,9.55179497 C12.666195,9.39509146 12.5931075,9.25639799 12.4810575,9.17342312" id="Fill-1" fill="#6C7280"></path>
                    <g transform="translate(8.587500, 10.579216)">
                        <mask id="mask-2" fill="white">
                            <use xlink:href="#path-1"></use>
                        </mask>
                        <g id="Clip-4"></g>
                        <path d="M0.00291375,1.70613467 C0.00291375,1.93451658 0.17016375,2.12028543 0.37570125,2.12028543 L5.43358875,2.12028543 C5.63916375,2.12028543 5.80641375,1.93451658 5.80641375,1.70613467 C5.80641375,1.58187337 5.75728875,1.46553166 5.67163875,1.38681809 L5.66766375,1.3831196 L5.66398875,1.3790593 L4.54322625,0.13600402 C4.47227625,0.0573306533 4.37893875,0.0139939698 4.28046375,0.0139939698 C4.18296375,0.0139939698 4.09093875,0.0564864322 4.02141375,0.133632161 C3.87505125,0.295963819 3.87587625,0.561049246 4.02328875,0.724506533 L4.35122625,1.08780302 L4.53572625,1.29230553 L4.27037625,1.29230553 L0.37570125,1.29230553 C0.17016375,1.29230553 0.00291375,1.47791357 0.00291375,1.70613467" id="Fill-3" fill="#6C7280" mask="url(#mask-2)"></path>
                    </g>
                    <g transform="translate(8.437500, 13.795296)">
                        <mask id="mask-4" fill="white">
                            <use xlink:href="#path-3"></use>
                        </mask>
                        <g id="Clip-6"></g>
                        <path d="M5.58360375,0.0369286432 L0.52571625,0.0369286432 C0.47220375,0.0369286432 0.42097875,0.0489085427 0.37346625,0.0725467337 L0.35936625,0.0795819095 L0.34395375,0.0821949749 C0.26655375,0.0955015075 0.19635375,0.135099497 0.14096625,0.196848241 C-0.00539625,0.359179899 -0.00442125,0.624064322 0.14299125,0.787561809 L1.28014125,2.04910955 C1.35097875,2.12758191 1.44427875,2.17083819 1.54275375,2.17083819 C1.64040375,2.17083819 1.73257875,2.12830553 1.80229125,2.0511598 C1.94842875,1.88902915 1.94745375,1.62410452 1.80000375,1.46068744 L1.44724125,1.06937085 L1.26292875,0.864948744 L1.52812875,0.864948744 L5.58360375,0.864948744 C5.78914125,0.864948744 5.95639125,0.679300503 5.95639125,0.451119598 C5.95639125,0.222737688 5.78914125,0.0369286432 5.58360375,0.0369286432" id="Fill-5" fill="#6C7280" mask="url(#mask-4)"></path>
                    </g>
                </g>
            </g>
        </g>
    </g>
</svg>