<?xml version="1.0" encoding="UTF-8"?>
<svg width="32px" height="32px" viewBox="0 0 32 32" version="1.1" xmlns="http://www.w3.org/2000/svg" xmlns:xlink="http://www.w3.org/1999/xlink">
    <title>32/编译调试</title>
    <g id="32/编译调试" stroke="none" stroke-width="1" fill="none" fill-rule="evenodd">
        <polygon id="Fill-1" fill="#D20D17" points="14.3165474 18.2925474 13.3978105 20.8651789 9.2336 20.1578105 14.1456 23.6693895 31.9999158 9.15233684"></polygon>
        <polygon id="Fill-2" fill="#DADADA" points="14.9046737 24.2124632 25.7998316 32.0002526 21.1808842 24.5493053 30.7286737 11.2255158"></polygon>
        <path d="M11.6926316,1.45661261e-13 C18.0033684,1.45661261e-13 23.1326316,5.00378947 23.3625263,11.2597895 L23.3625263,11.2597895 L21.6387368,12.1507368 C21.6454737,11.9983158 21.6614737,11.8475789 21.6614737,11.6926316 C21.6614737,6.19536842 17.1890526,1.72378947 11.6926316,1.72378947 C6.19536842,1.72378947 1.72294737,6.19536842 1.72294737,11.6926316 C1.72294737,15.6943158 4.09852632,19.1435789 7.50821053,20.7292632 C7.62610526,21.3305263 7.95873684,21.8854737 8.48505263,22.2618947 L8.48505263,22.2618947 L9.82905263,23.2227368 C4.25936842,22.3292632 -2.87769808e-13,17.5149474 -2.87769808e-13,11.6926316 C-2.87769808e-13,5.23536842 5.23452632,1.45661261e-13 11.6926316,1.45661261e-13 Z M6.05532632,12.8453895 L5.56269474,13.8980211 L13.3504842,16.8622316 L15.6216421,13.2293895 L13.4700632,17.6605474 L4.84606316,14.1220211 L6.05532632,12.8453895 Z M8.1824,8.70357895 L5.71924211,11.6585263 L12.7390316,14.0677895 L17.1533474,10.2555789 L12.9141895,15.3115789 L4.52513684,11.9869474 L8.1824,8.70357895 Z M15.8399158,4.8224 C14.0411789,4.59166316 11.6605474,8.73313684 11.6605474,8.73313684 L14.3173895,8.30450526 L9.83907368,11.3899789 L8.94391579,6.8224 L10.1077053,8.13608421 C10.1077053,8.13608421 12.8319158,3.71082105 15.8399158,4.8224 Z" id="形状结合" fill="#7E7E7E"></path>
    </g>
</svg>