<?xml version="1.0" encoding="UTF-8"?>
<svg width="32px" height="32px" viewBox="0 0 32 32" version="1.1" xmlns="http://www.w3.org/2000/svg" xmlns:xlink="http://www.w3.org/1999/xlink">
    <title>32/编译调试</title>
    <g id="32/编译调试" stroke="none" stroke-width="1" fill="none" fill-rule="evenodd">
        <polygon id="Fill-1" fill="#D20D17" points="14.3166316 18.2925474 13.3978947 20.8651789 9.23368421 20.1578105 14.1456842 23.6693895 32 9.15233684"></polygon>
        <polygon id="Fill-2" fill="#DADADA" points="14.9047579 24.2124632 25.7999158 32.0002526 21.1809684 24.5493053 30.7287579 11.2255158"></polygon>
        <path d="M11.6927158,5.82645043e-13 C18.0034526,5.82645043e-13 23.1327158,5.00378947 23.3626105,11.2597895 L23.3626105,11.2597895 L21.6388211,12.1507368 C21.6455579,11.9983158 21.6615579,11.8475789 21.6615579,11.6926316 C21.6615579,6.19536842 17.1891368,1.72378947 11.6927158,1.72378947 C6.19545263,1.72378947 1.72303158,6.19536842 1.72303158,11.6926316 C1.72303158,15.6943158 4.09861053,19.1435789 7.50829474,20.7292632 C7.62618947,21.3305263 7.95882105,21.8854737 8.48513684,22.2618947 L8.48513684,22.2618947 L9.82913684,23.2227368 C4.25945263,22.3292632 8.42105253e-05,17.5149474 8.42105253e-05,11.6926316 C8.42105253e-05,5.23536842 5.23461053,5.82645043e-13 11.6927158,5.82645043e-13 Z M6.05541053,12.8453895 L5.56277895,13.8980211 L13.3505684,16.8622316 L15.6217263,13.2293895 L13.4701474,17.6605474 L4.84614737,14.1220211 L6.05541053,12.8453895 Z M8.18248421,8.70357895 L5.71932632,11.6585263 L12.7391158,14.0677895 L17.1534316,10.2555789 L12.9142737,15.3115789 L4.52522105,11.9869474 L8.18248421,8.70357895 Z M15.84,4.8224 C14.0412632,4.59166316 11.6606316,8.73313684 11.6606316,8.73313684 L14.3174737,8.30450526 L9.83915789,11.3899789 L8.944,6.8224 L10.1077895,8.13608421 C10.1077895,8.13608421 12.832,3.71082105 15.84,4.8224 Z" id="形状结合" fill="#FFFFFF"></path>
    </g>
</svg>