<?xml version="1.0" encoding="UTF-8"?>
<svg width="16px" height="16px" viewBox="0 0 16 16" version="1.1" xmlns="http://www.w3.org/2000/svg" xmlns:xlink="http://www.w3.org/1999/xlink">
    <title>下载</title>
    <defs>
        <rect id="path-1" x="0" y="0" width="16" height="16" rx="1"></rect>
    </defs>
    <g id="port-intelij-630" stroke="none" stroke-width="1" fill="none" fill-rule="evenodd">
        <g id="0安装插件1-未下载" transform="translate(-298.000000, -191.000000)">
            <g id="左侧" transform="translate(27.000000, 103.000000)">
                <g id="鲲鹏代码迁移工具" transform="translate(0.000000, 82.000000)">
                    <g id="下载" transform="translate(271.000000, 6.000000)">
                        <mask id="mask-2" fill="white">
                            <use xlink:href="#path-1"></use>
                        </mask>
                        <g id="蒙版"></g>
                        <path d="M8.06615164,7 C8.46663099,7 8.79165771,7.33010526 8.79165771,7.73684211 L8.79165771,7.73684211 L8.79165771,10.6282105 L9.1964901,10.2214737 C9.48161398,9.93557895 9.94085933,9.93778947 10.2223557,10.2273684 C10.503852,10.5162105 10.5016755,10.9833684 10.2165516,11.2685263 L10.2165516,11.2685263 L8.57255487,12.9197895 C8.43108119,13.062 8.24680265,13.1327368 8.06252411,13.1327368 C7.87752006,13.1327368 7.69251601,13.062 7.55104232,12.9190526 L7.55104232,12.9190526 L5.91430062,11.2677895 C5.62990224,10.9811579 5.62845123,10.5147368 5.91067309,10.2258947 C6.19289496,9.93705263 6.6521403,9.93557895 6.93653868,10.2222105 L6.93653868,10.2222105 L7.34064556,10.6296842 L7.34064556,7.73684211 C7.34064556,7.33010526 7.66567228,7 8.06615164,7 Z M7.8814251,2 C10.1242502,2 11.9591183,3.77026147 12.1079547,6.01005216 L12.1169296,6.22136842 L12.1923822,6.22136842 C13.6121976,6.22136842 14.7628502,7.39073684 14.7628502,8.83126316 C14.7628502,10.1834848 13.7510157,11.295318 12.4542309,11.428521 C12.4841924,11.2898299 12.5,11.146761 12.5,11 C12.5,9.8954305 11.6045695,9 10.5,9 C10.3848955,9 10.2720621,9.00972367 10.1622764,9.02839439 L9.99998077,9.06301369 L10,7.33333333 C10,6.04466892 9.1045695,5 8,5 C6.94345526,5 6.07825887,5.95580294 6.00502165,7.16669619 L6,7.33333333 L6.00102216,9.06327212 C5.84090449,9.02196989 5.67301792,9 5.5,9 C4.3954305,9 3.5,9.8954305 3.5,11 C3.5,11.1517067 3.51689101,11.2994684 3.54889497,11.4415068 C2.13927753,11.4310433 1,10.2668546 1,8.832 C1,7.44546154 2.06384304,6.31166755 3.40788783,6.22650372 L3.57046802,6.22136842 L3.64592065,6.22136842 C3.68872551,3.88263158 5.56851174,2 7.8814251,2 Z" id="形状结合" fill="#AFB1B3" fill-rule="nonzero" mask="url(#mask-2)"></path>
                    </g>
                </g>
            </g>
        </g>
    </g>
</svg>