<?xml version="1.0" encoding="UTF-8"?>
<svg width="32px" height="32px" viewBox="0 0 32 32" version="1.1" xmlns="http://www.w3.org/2000/svg" xmlns:xlink="http://www.w3.org/1999/xlink">
    <title>32/foundation</title>
    <g id="32/foundation" stroke="none" stroke-width="1" fill="none" fill-rule="evenodd">
        <polygon id="Fill-1" fill="#D20D17" fill-rule="nonzero" points="14.3567034 18.2001701 13.4454483 20.7013036 9.31431335 20.0135942 14.1863129 23.4275799 31.8960689 9.31398269"></polygon>
        <polygon id="Fill-2" fill="#DADADA" fill-rule="nonzero" points="14.9597523 24.2770732 25.8439422 31.8957383 21.2304858 24.6066002 30.7669811 11.5721582"></polygon>
        <path d="M11.7595304,0.281445783 C17.9544721,0.281445783 22.9896188,5.1934212 23.2152952,11.3338038 L23.2152952,11.3338038 L21.5231355,12.2084033 C21.5297487,12.058779 21.5454551,11.910808 21.5454551,11.7587037 C21.5454551,6.36313596 17.1550981,1.97277895 11.7595304,1.97277895 C6.36313598,1.97277895 1.97277895,6.36313596 1.97277895,11.7587037 C1.97277895,15.6877881 4.30476862,19.0729343 7.65271552,20.629523 C7.76762036,21.2197536 8.09414851,21.7645183 8.61080697,22.1340325 L8.61080697,22.1340325 L9.93014605,23.0772441 C4.46265946,22.2001648 0.281445783,17.4741864 0.281445783,11.7587037 C0.281445783,5.41992426 5.42075092,0.281445783 11.7595304,0.281445783 Z M16.793928,15.3962392 C16.7940439,15.4200583 16.7870558,15.4441802 16.7722911,15.4656765 C16.7619213,15.4807741 16.7482643,15.4936277 16.7322232,15.5033875 L12.2096992,18.2549831 C12.165111,18.2821114 12.1077649,18.2821114 12.0631768,18.2549831 L7.54065278,15.5033875 C7.50068307,15.4790691 7.47895088,15.4382165 7.47895088,15.3965233 L8.60821246,15.3962758 L12.136438,17.5431567 L15.6646635,15.3962758 L16.793928,15.3962392 Z M7.93023531,12.4087464 L12.1252265,14.961346 L16.3202177,12.4087464 L17.6629186,12.408703 C17.6629186,12.4370235 17.6547203,12.4657039 17.6371653,12.4912626 C17.6248359,12.5092133 17.608598,12.524496 17.5895253,12.5361002 L12.2123327,15.8076936 C12.1593182,15.8399486 12.0911348,15.8399486 12.0381204,15.8076936 L6.6609277,12.5361002 C6.6134045,12.5071861 6.58756536,12.4586132 6.58756536,12.4090407 L7.93023531,12.4087464 Z M12.2363396,5.38992119 L18.4034178,9.14209699 C18.4887677,9.1940256 18.51323,9.30124184 18.4580558,9.38157116 C18.4439153,9.40215873 18.4252921,9.41968642 18.4034178,9.43299518 L12.2363396,13.185171 C12.1755376,13.2221641 12.0973383,13.2221641 12.0365363,13.185171 L5.86945815,9.43299518 C5.78410825,9.38106655 5.75964597,9.27385033 5.81482013,9.19352101 C5.82896069,9.17293344 5.84758386,9.15540575 5.86945815,9.14209699 L12.0365363,5.38992119 C12.0973383,5.35292801 12.1755376,5.35292801 12.2363396,5.38992119 Z M12.136438,6.35936881 L7.32522137,9.28693375 L12.136438,12.2144987 L16.9476546,9.28693375 L12.136438,6.35936881 Z" id="形状结合" fill="#FFFFFF" fill-rule="nonzero"></path>
    </g>
</svg>