<?xml version="1.0" encoding="UTF-8"?>
<svg width="32px" height="32px" viewBox="0 0 32 32" version="1.1" xmlns="http://www.w3.org/2000/svg" xmlns:xlink="http://www.w3.org/1999/xlink">
    <title>32/foundation</title>
    <g id="32/foundation" stroke="none" stroke-width="1" fill="none" fill-rule="evenodd">
        <polygon id="Fill-1" fill="#D20D17" fill-rule="nonzero" points="14.0752577 17.9187243 13.1640025 20.4198578 9.03286757 19.7321484 13.9048671 23.1461341 31.6146232 9.0325369"></polygon>
        <polygon id="Fill-2" fill="#DADADA" fill-rule="nonzero" points="14.6783065 23.9956275 25.5624964 31.6142925 20.94904 24.3251544 30.4855353 11.2907125"></polygon>
        <path d="M11.4780846,-1.13686838e-13 C17.6730263,-1.13686838e-13 22.708173,4.91197541 22.9338495,11.052358 L22.9338495,11.052358 L21.2416897,11.9269575 C21.2483029,11.7773332 21.2640094,11.6293622 21.2640094,11.4772579 C21.2640094,6.08169018 16.8736523,1.69133317 11.4780846,1.69133317 C6.08169019,1.69133317 1.69133317,6.08169018 1.69133317,11.4772579 C1.69133317,15.4063423 4.02332283,18.7914886 7.37126973,20.3480772 C7.48617458,20.9383078 7.81270272,21.4830726 8.32936119,21.8525867 L8.32936119,21.8525867 L9.64870027,22.7957983 C4.18121368,21.918719 3.55271368e-15,17.1927406 3.55271368e-15,11.4772579 C3.55271368e-15,5.13847848 5.13930513,-1.13686838e-13 11.4780846,-1.13686838e-13 Z M16.5124822,15.1147934 C16.5125981,15.1386126 16.50561,15.1627344 16.4908453,15.1842307 C16.4804755,15.1993283 16.4668185,15.2121819 16.4507774,15.2219417 L11.9282534,17.9735373 C11.8836653,18.0006656 11.8263191,18.0006656 11.781731,17.9735373 L7.25920699,15.2219417 C7.21923729,15.1976233 7.19750509,15.1567707 7.19750509,15.1150775 L8.32676667,15.11483 L11.8549922,17.2617109 L15.3832177,15.11483 L16.5124822,15.1147934 Z M7.64878953,12.1273007 L11.8437807,14.6799002 L16.0387719,12.1273007 L17.3814728,12.1272572 C17.3814728,12.1555777 17.3732745,12.1842581 17.3557195,12.2098168 C17.3433901,12.2277675 17.3271522,12.2430502 17.3080796,12.2546544 L11.9308869,15.5262478 C11.8778725,15.5585029 11.809689,15.5585029 11.7566746,15.5262478 L6.37948191,12.2546544 C6.33195871,12.2257403 6.30611958,12.1771674 6.30611958,12.1275949 L7.64878953,12.1273007 Z M11.9548938,5.10847541 L18.121972,8.86065121 C18.2073219,8.91257982 18.2317842,9.01979606 18.17661,9.10012537 C18.1624695,9.12071295 18.1438463,9.13824063 18.121972,9.15154939 L11.9548938,12.9037252 C11.8940918,12.9407184 11.8158926,12.9407184 11.7550905,12.9037252 L5.58801236,9.15154939 C5.50266247,9.09962077 5.47820019,8.99240454 5.53337434,8.91207523 C5.5475149,8.89148766 5.56613808,8.87395997 5.58801236,8.86065121 L11.7550905,5.10847541 C11.8158926,5.07148223 11.8940918,5.07148223 11.9548938,5.10847541 Z M11.8549922,6.07792303 L7.04377558,9.00548797 L11.8549922,11.9330529 L16.6662088,9.00548797 L11.8549922,6.07792303 Z" id="形状结合" fill="#7E7E7E" fill-rule="nonzero"></path>
    </g>
</svg>