<?xml version="1.0" encoding="UTF-8"?>
<svg width="32px" height="32px" viewBox="0 0 32 32" version="1.1" xmlns="http://www.w3.org/2000/svg" xmlns:xlink="http://www.w3.org/1999/xlink">
    <title>32/性能分析</title>
    <g id="32/性能分析" stroke="none" stroke-width="1" fill="none" fill-rule="evenodd">
        <polygon id="Fill-1" fill="#D20D17" points="14.3165474 18.2917895 13.3978105 20.8644211 9.2336 20.1570526 14.1456 23.6686316 31.9999158 9.15157895"></polygon>
        <polygon id="Fill-2" fill="#DADADA" points="14.9046737 24.2117053 25.7998316 31.9994947 21.1808842 24.5485474 30.7286737 11.2247579"></polygon>
        <path d="M11.6926316,-1.58095759e-13 C18.0033684,-1.58095759e-13 23.1326316,5.00378947 23.3625263,11.2589474 L23.3625263,11.2589474 L21.6387368,12.1498947 C21.6454737,11.9974737 21.6614737,11.8467368 21.6614737,11.6917895 C21.6614737,6.19452632 17.1890526,1.72294737 11.6926316,1.72294737 C6.19536842,1.72294737 1.72294737,6.19452632 1.72294737,11.6917895 C1.72294737,15.6943158 4.09852632,19.1427368 7.50821053,20.7284211 C7.62610526,21.3296842 7.95873684,21.8846316 8.48505263,22.2610526 L8.48505263,22.2610526 L9.82905263,23.2218947 C4.25936842,22.3284211 -2.89546165e-13,17.5141053 -2.89546165e-13,11.6917895 C-2.89546165e-13,5.23452632 5.23452632,-1.58095759e-13 11.6926316,-1.58095759e-13 Z M16.5187368,7.59991579 C17.0256842,7.31865263 17.3305263,7.72623158 16.9170526,8.13212632 L16.9170526,8.13212632 L12.7764211,12.1893895 C11.9570526,12.9927579 10.7730526,13.2041263 10.3402105,12.6230737 C9.90821053,12.0437053 10.4471579,10.9708632 11.4492632,10.4142316 L11.4492632,10.4142316 Z M15.5418105,5.74711579 C14.9051789,5.93995789 13.2285474,6.44606316 13.2285474,6.44606316 C13.2285474,6.44606316 6.17928421,2.66922105 4.8336,10.6069053 C6.25675789,0.579957895 15.7717053,5.10795789 15.5418105,5.74711579 Z" id="形状结合" fill="#7E7E7E"></path>
    </g>
</svg>