<?xml version="1.0" encoding="UTF-8"?>
<svg width="32px" height="32px" viewBox="0 0 32 32" version="1.1" xmlns="http://www.w3.org/2000/svg" xmlns:xlink="http://www.w3.org/1999/xlink">
    <title>32/性能分析</title>
    <g id="32/性能分析" stroke="none" stroke-width="1" fill="none" fill-rule="evenodd">
        <polygon id="Fill-1" fill="#D20D17" points="14.3166316 18.2919579 13.3978947 20.8645895 9.23368421 20.1572211 14.1456842 23.6688 32 9.15174737"></polygon>
        <polygon id="Fill-2" fill="#DADADA" points="14.9047579 24.2118737 25.7999158 31.9996632 21.1809684 24.5487158 30.7287579 11.2249263"></polygon>
        <path d="M11.6927158,0.000168421052 C18.0034526,0.000168421052 23.1327158,5.00395789 23.3626105,11.2591158 L23.3626105,11.2591158 L21.6388211,12.1500632 C21.6455579,11.9976421 21.6615579,11.8469053 21.6615579,11.6919579 C21.6615579,6.19469474 17.1891368,1.72311579 11.6927158,1.72311579 C6.19545263,1.72311579 1.72303158,6.19469474 1.72303158,11.6919579 C1.72303158,15.6944842 4.09861053,19.1429053 7.50829474,20.7285895 C7.62618947,21.3298526 7.95882105,21.8848 8.48513684,22.2612211 L8.48513684,22.2612211 L9.82913684,23.2220632 C4.25945263,22.3285895 8.42105254e-05,17.5142737 8.42105254e-05,11.6919579 C8.42105254e-05,5.23469474 5.23461053,0.000168421052 11.6927158,0.000168421052 Z M16.5188211,7.60008421 C17.0257684,7.31882105 17.3306105,7.7264 16.9171368,8.13229474 L16.9171368,8.13229474 L12.7765053,12.1895579 C11.9571368,12.9929263 10.7731368,13.2042947 10.3402947,12.6232421 C9.90829474,12.0438737 10.4472421,10.9710316 11.4493474,10.4144 L11.4493474,10.4144 Z M15.5418947,5.74728421 C14.9052632,5.94012632 13.2286316,6.44623158 13.2286316,6.44623158 C13.2286316,6.44623158 6.17936842,2.66938947 4.83368421,10.6070737 C6.25684211,0.580126316 15.7717895,5.10812632 15.5418947,5.74728421 Z" id="形状结合" fill="#FFFFFF"></path>
    </g>
</svg>