<?xml version="1.0" encoding="UTF-8"?>
<svg width="32px" height="32px" viewBox="0 0 32 32" version="1.1" xmlns="http://www.w3.org/2000/svg" xmlns:xlink="http://www.w3.org/1999/xlink">
    <title>32/加速库</title>
    <g id="32/加速库" stroke="none" stroke-width="1" fill="none" fill-rule="evenodd">
        <polygon id="Fill-1" fill="#D20D17" points="14.3166316 18.2919579 13.3978947 20.8645895 9.23368421 20.1572211 14.1456842 23.6688 32 9.15174737"></polygon>
        <polygon id="Fill-2" fill="#DADADA" points="14.9047579 24.2118737 25.7999158 31.9996632 21.1809684 24.5495579 30.7287579 11.2249263"></polygon>
        <path d="M11.6927158,0.00025263158 C18.0034526,0.00025263158 23.1327158,5.00404211 23.3626105,11.2592 L23.3626105,11.2592 L21.6388211,12.1501474 C21.6455579,11.9977263 21.6615579,11.8469895 21.6615579,11.6920421 C21.6615579,6.19477895 17.1891368,1.7232 11.6927158,1.7232 C6.19545263,1.7232 1.72303158,6.19477895 1.72303158,11.6920421 C1.72303158,15.6945684 4.09861053,19.1429895 7.50829474,20.7286737 C7.62618947,21.3299368 7.95882105,21.8848842 8.48513684,22.2613053 L8.48513684,22.2613053 L9.82913684,23.2221474 C4.25945263,22.3286737 8.42105256e-05,17.5143579 8.42105256e-05,11.6920421 C8.42105256e-05,5.23477895 5.23461053,0.00025263158 11.6927158,0.00025263158 Z M14.2346947,5.60917895 L12.1328,9.73633684 L16.1648,10.5371789 L8.20774737,15.9999158 L11.2654316,11.1611789 L7.19890526,10.8041263 L14.2346947,5.60917895 Z" id="形状结合" fill="#FFFFFF"></path>
    </g>
</svg>