<?xml version="1.0" encoding="UTF-8"?>
<svg width="32px" height="32px" viewBox="0 0 32 32" version="1.1" xmlns="http://www.w3.org/2000/svg" xmlns:xlink="http://www.w3.org/1999/xlink">
    <title>32/加速库</title>
    <g id="32/加速库" stroke="none" stroke-width="1" fill="none" fill-rule="evenodd">
        <polygon id="Fill-1" fill="#D20D17" points="14.3614465 18.3899246 13.4450292 20.9509593 9.29049217 20.2467795 14.1909308 23.742529 32.0001696 9.29091613"></polygon>
        <polygon id="Fill-2" fill="#DADADA" points="15.4840406 24.2613778 26.1450124 32.0005935 21.6261711 24.596119 30.9679115 11.3554323"></polygon>
        <path d="M12.0116786,8.8817842e-15 C18.4946113,8.8817842e-15 23.7638323,5.14032369 24,11.5661608 L24,11.5661608 L22.2291749,12.4814187 C22.2360956,12.3248387 22.2525322,12.1699888 22.2525322,12.0108135 C22.2525322,6.36355117 17.6580759,1.76995999 12.0116786,1.76995999 C6.36441625,1.76995999 1.76995999,6.36355117 1.76995999,12.0108135 C1.76995999,16.1225534 4.21035937,19.6650687 7.71308078,21.2940201 C7.83419241,21.9116894 8.17590023,22.4817792 8.71657715,22.8684713 L8.71657715,22.8684713 L10.0972498,23.8555311 C4.37559024,22.937678 -2.22044605e-13,17.991998 -2.22044605e-13,12.0108135 C-2.22044605e-13,5.37735645 5.37735645,8.8817842e-15 12.0116786,8.8817842e-15 Z M14.6230184,5.76197239 L12.463771,10.0017446 L16.6057888,10.8244386 L8.43161879,16.4362326 L11.5727355,11.4654652 L7.39524925,11.0986699 L14.6230184,5.76197239 Z" id="形状结合" fill="#7E7E7E"></path>
    </g>
</svg>