<?xml version="1.0" encoding="UTF-8"?>
<svg width="32px" height="32px" viewBox="0 0 32 32" version="1.1" xmlns="http://www.w3.org/2000/svg" xmlns:xlink="http://www.w3.org/1999/xlink">
    <title>32/代码迁移</title>
    <g id="32/代码迁移" stroke="none" stroke-width="1" fill="none" fill-rule="evenodd">
        <polygon id="Fill-1" fill="#D20D17" points="14.361277 18.389331 13.4448597 20.9503657 9.29032258 20.246186 14.1907612 23.7419355 32 9.29032258"></polygon>
        <polygon id="Fill-2" fill="#DADADA" points="15.483871 24.2607843 26.1448428 32 21.6260015 24.5955255 30.9677419 11.3548387"></polygon>
        <path d="M11.7732866,-0.000593548386 C18.1276461,-0.000593548386 23.2932129,5.03778433 23.5238488,11.3370286 L23.5238488,11.3370286 L21.7881438,12.2341346 C21.7949272,12.0806599 21.8110378,11.9288811 21.8110378,11.7728627 C21.8110378,6.2376 17.3077014,1.73511152 11.7732866,1.73511152 C6.23802396,1.73511152 1.73468756,6.2376 1.73468756,11.7728627 C1.73468756,15.8030562 4.12668756,19.2753143 7.56078894,20.8719594 C7.67865069,21.4773788 8.01358157,22.0361622 8.54353548,22.4151853 L8.54353548,22.4151853 L9.89682581,23.3826691 C4.28864147,22.4830194 -0.000169585254,17.6354249 -0.000169585254,11.7728627 C-0.000169585254,5.27096406 5.27138802,-0.000593548386 11.7732866,-0.000593548386 Z M10.3782783,5.03481659 L15.4361585,7.71426359 L15.4361585,8.43076129 L14.9613198,8.66309309 L14.9613198,8.08056774 L11.4754949,6.71540645 L11.4754949,15.0284756 L14.9613198,13.1799963 L14.9613198,12.5779687 L15.4361585,12.861176 L15.4361585,13.7498028 L10.3782783,16.9354618 L10.3782783,5.03481659 Z M7.20143779,5.44792627 L9.29666359,6.54683871 L9.29666359,7.5083871 L8.24947465,6.89024885 L8.24947465,14.1705438 L9.29666359,13.6558525 L9.29666359,14.5487189 L7.20143779,16.1623226 L7.20143779,5.44792627 Z M17.1714396,9.21466912 L17.1714396,11.9034433 C16.2048037,10.6959963 12.8444719,10.377176 12.8444719,10.377176 C12.8444719,10.377176 16.2158267,10.377176 17.1714396,9.21466912 L17.1714396,9.21466912 Z" id="形状结合" fill="#FFFFFF"></path>
    </g>
</svg>