<?xml version="1.0" encoding="UTF-8"?>
<svg width="32px" height="32px" viewBox="0 0 32 32" version="1.1" xmlns="http://www.w3.org/2000/svg" xmlns:xlink="http://www.w3.org/1999/xlink">
    <title>32/代码迁移</title>
    <g id="32/代码迁移" stroke="none" stroke-width="1" fill="none" fill-rule="evenodd">
        <polygon id="Fill-1" fill="#D20D17" points="14.3614465 18.3899246 13.4450292 20.9509593 9.29049217 20.2467795 14.1909308 23.742529 32.0001696 9.29091613"></polygon>
        <polygon id="Fill-2" fill="#DADADA" points="15.4840406 24.2613778 26.1450124 32.0005935 21.6261711 24.596119 30.9679115 11.3554323"></polygon>
        <path d="M11.7734562,2.13162821e-13 C18.1278157,2.13162821e-13 23.2933825,5.03837788 23.5240184,11.3376221 L23.5240184,11.3376221 L21.7883134,12.2347281 C21.7950968,12.0812535 21.8112074,11.9294747 21.8112074,11.7734562 C21.8112074,6.23819355 17.307871,1.73570507 11.7734562,1.73570507 C6.23819355,1.73570507 1.73485714,6.23819355 1.73485714,11.7734562 C1.73485714,15.8036498 4.12685714,19.2759078 7.56095853,20.872553 C7.67882028,21.4779724 8.01375115,22.0367558 8.54370507,22.4157788 L8.54370507,22.4157788 L9.89699539,23.3832627 C4.28881106,22.4836129 -3.73034936e-14,17.6360184 -3.73034936e-14,11.7734562 C-3.73034936e-14,5.2715576 5.2715576,2.13162821e-13 11.7734562,2.13162821e-13 Z M10.3784479,5.03541014 L15.4363281,7.71485714 L15.4363281,8.43135484 L14.9614894,8.66368664 L14.9614894,8.08116129 L11.4756645,6.716 L11.4756645,15.0290691 L14.9614894,13.1805899 L14.9614894,12.5785622 L15.4363281,12.8617696 L15.4363281,13.7503963 L10.3784479,16.9360553 L10.3784479,5.03541014 Z M7.20160737,5.44851982 L9.29683318,6.54743226 L9.29683318,7.50898065 L8.24964424,6.8908424 L8.24964424,14.1711373 L9.29683318,13.6564461 L9.29683318,14.5493124 L7.20160737,16.1629161 L7.20160737,5.44851982 Z M17.1716092,9.21526267 L17.1716092,11.9040369 C16.2049733,10.6965899 12.8446415,10.3777696 12.8446415,10.3777696 C12.8446415,10.3777696 16.2159963,10.3777696 17.1716092,9.21526267 L17.1716092,9.21526267 Z" id="形状结合" fill="#7E7E7E"></path>
    </g>
</svg>